<?xml version="1.0" encoding="utf-8"?>
<!-- Generator: Adobe Illustrator 27.4.1, SVG Export Plug-In . SVG Version: 6.00 Build 0)  -->
<svg version="1.1" id="Layer_1" xmlns="http://www.w3.org/2000/svg" xmlns:xlink="http://www.w3.org/1999/xlink" x="0px" y="0px"
	 viewBox="0 0 300 110" style="enable-background:new 0 0 300 110;" xml:space="preserve">
<style type="text/css">
	.st0{fill:#FFFFFF;}
</style>
<path class="st0" d="M299,80.3c0-3.3-1.8-4.5-4.9-4.5h-23c-10.8,0-14.6-6.9-15.1-11.7h31.9c9.3,0,12.1-7,12.1-11.4
	c0-4.8-3-11.4-12.1-11.4h-17.2c-15.7,0-20.8,11-20.8,20c0,9.9,5.9,20,20.8,20H299L299,80.3L299,80.3z M271.2,47h16
	c5.5,0,6.8,3.5,6.8,5.9c0,2-1.2,5.9-6.8,5.9h-31.1C256.4,54.7,259.6,47,271.2,47z M206.1,78.9c-1.6,2.3-2.8,3.1-4.2,3.1
	c-2,0-2.8-1.1-4.2-3.1c-3.5-4.9-26.5-37.5-26.5-37.5h3.6c3.9,0,5,1.4,6.5,3.7c0.7,1,20.7,30.3,20.7,30.3s20-29.3,20.8-30.5
	c1.5-2.2,2.6-3.6,6.5-3.6h3.1C232.4,41.4,209,74.9,206.1,78.9L206.1,78.9z M54.9,81.5c-2.4,0-3.9-1.2-4.4-3.9l-0.8-4.4
	c-1.3,2.5-6.1,8.3-16.6,8.3H21c-16.4,0-21-11.5-21-20c0-9.6,5.6-20,21.1-20h12.1c11.8,0,18.2,7.1,19.8,15.7
	c1.3,7.2,4.4,24.4,4.4,24.4L54.9,81.5L54.9,81.5z M31.8,47H21.4C9.9,47,5.9,54.6,5.9,61.4s3.9,14.5,15.5,14.5h10.3
	c12.1,0,15.6-8,15.6-14.5C47.4,55.6,44.2,47,31.8,47z M240.3,36.8c1.7,0,3-1.1,3-3.2v-1.3c0-2.1-1.4-3.2-3-3.2c-1.7,0-3,1-3,3.2v1.3
	C237.2,35.7,238.6,36.8,240.3,36.8z M237.3,41.4h1.4c2.8,0,4.5,1.3,4.5,5.2v34.9h-1.5c-3,0-4.5-1.7-4.5-5
	C237.3,75.9,237.3,41.4,237.3,41.4L237.3,41.4L237.3,41.4z M66.4,46.6c2.5-2.5,7.1-5.2,14.3-5.2h12.1c16.4,0,21.1,11.5,21.1,20
	c0,9.6-5.6,20-21.1,20H80.7c-11.8,0-20.2-7.9-20.2-20V27.9h1.8c2.6,0,4.1,1.4,4.1,4L66.4,46.6L66.4,46.6z M82,75.9h10.3
	c11.6,0,15.5-7.6,15.5-14.5c0-6.8-3.9-14.5-15.5-14.5H82c-12.1,0-15.6,8-15.6,14.5C66.4,67.3,69.5,75.9,82,75.9L82,75.9z
	 M125.7,46.6c2.5-2.5,7.1-5.2,14.3-5.2h12.1c16.4,0,21.1,11.5,21.1,20c0,9.6-5.6,20-21.1,20H140c-11.8,0-20.2-7.9-20.2-20V27.9h1.8
	c2.6,0,4.1,1.4,4.1,4L125.7,46.6L125.7,46.6z M141.3,75.9h10.3c11.6,0,15.5-7.6,15.5-14.5c0-6.8-3.9-14.5-15.5-14.5h-10.3
	c-12.1,0-15.6,8-15.6,14.5C125.7,67.3,128.9,75.9,141.3,75.9z"/>
</svg>
