<?xml version="1.0" encoding="UTF-8"?>
<svg xmlns="http://www.w3.org/2000/svg" viewBox="0 0 1366.75 176.49">
  <g fill="#ffffff">
    <path
      d="m1287.18,132.16l13.29,18.99c6.1,5.99,2.19,14.62-4.22,16.48-1.41.44-2.35,1.14-2.35,2.25v2.42l72.85-.02v-2.69c0-.75-.31-1.64-1.09-1.94-.47-.12-.94-.25-1.41-.41-7.5-2.49-13.91-6.25-20.01-14.12l-35.64-47.04,15.95-19.85c10.47-11.8,23.76-19.85,31.58-21.46,1.56-.31,1.88-1.02,1.88-2.36v-2.11h-43.61s-2.34.01-2.34.01v2.09c0,1.19.47,1.97,1.41,2.47.31.25.31.27.63.48,3.13,1.89,5.78,6.94-1.25,15.15,0,.19-5,6.35-12.19,14.98v-.13l-10.32-13.94c-6.25-6.16-1.88-15.19,4.69-16.68,1.56-.3,1.88-.98,1.88-2.33v-2.13h-2.5s-68.63.01-68.63.01c0,0-.16,1.14-.16,2.11,0,1.7,1.25,2.56,2.81,2.99,7.35,2.47,13.76,6.24,19.85,14.04l30.95,41.99-20.01,24.15c-10.47,11.66-19.38,20.48-26.58,22.06-1.56.33-2.35,1.13-2.35,2.24v2.42l42.21-.02v-2.63c0-.77-.31-1.53-1.09-1.95-.63-.23-.94-.36-1.25-.63-2.97-2-5.32-7,1.56-15.01,0-.17,8.29-11.41,15.48-20.04v.12" />
    <path
      d="m367.52,36.31c-3.75-9-13.44-12.83-23.76-12.83h-41.9v56.09l32.98.08c11.26,0,21.42-2.08,23.45-10.55.16-1,.94-1.73,1.88-1.75h1.88v39.52h-1.88c-.94.03-1.56-.83-2.03-1.96-2.66-7.3-12.66-10.82-23.29-10.82h-32.98v44.96c0,13.4,4.85,17.02,18.29,17.02h23.61c11.1,0,23.45-5.44,27.67-16.01.31-.8.94-1.19,1.88-1.19h1.56v33.3h-124.59v-2.16c0-1.11.78-2.13,2.34-2.25,7.66-.56,13.6-8.5,13.6-20.73V31.68c0-12.21-5.94-20.2-13.6-20.78-1.56-.13-2.34-1.14-2.34-2.25v-2.16h120.68v31.01h-1.56c-.78-.03-1.56-.53-1.88-1.2" />
    <path
      d="m450.22,172.18l.16-2.16c0-1.11-.78-2.13-2.5-2.25-7.5-.56-13.6-8.6-13.6-20.81V0l-48.15,6.5v2.16c0,1.11.78,2.13,2.34,2.25,7.66.58,13.6,8.52,13.6,20.73,0-.28.16,115.37.16,115.37,0,12.19-6.1,20.2-13.6,20.76-1.72.12-2.5,1.14-2.5,2.25l.16,2.16h63.94" />
    <path
      d="m1088.02,172.18l.16-2.16c0-1.11-.78-2.13-2.5-2.25-7.5-.56-13.6-8.6-13.6-20.81V0l-48.15,6.5v2.16c0,1.11.78,2.13,2.34,2.25,7.5.58,13.6,8.52,13.6,20.73,0-.28.16,115.37.16,115.37,0,12.19-6.1,20.2-13.6,20.76-1.72.12-2.5,1.14-2.5,2.25v2.16h64.09" />
    <path
      d="m840.87,58.34v25.03c5-9.22,14.85-27.15,36.11-27.15,3.91,0,7.03.84,9.22,1.66l-8.91,30.83h-13.6c-13.76,0-22.35,8.91-22.35,19.88v38.36c0,12.21,6.1,20.26,13.6,20.82,1.72.12,2.5,1.14,2.35,2.25v2.16h-63.62v-2.16c0-1.11.78-2.13,2.5-2.25,7.5-.56,13.6-8.58,13.6-20.79v-57.03c0-12.19-5.16-19.54-13.6-20.73-1.25-.16-2.5-1.53-2.5-2.72v-1.67l47.21-6.49" />
    <path
      d="m1223.4,172.29h-29.39c-10,0-12.97-6.28-12.97-11.52-12.98,9.9-22.35,14.13-39.24,14.73-18.92.59-36.27-11.15-36.27-32.17l-.16-53.29c0-12.22-6.1-20.17-13.6-20.74-1.56-.13-2.5-1.14-2.35-2.24v-2.17l49.24-6.5v69.3c0,30.98,30.48,27.69,42.36,18.95v-56.62c0-12.21-6.1-20.13-13.6-20.71-1.72-.13-2.5-1.14-2.5-2.24v-2.17l49.24-6.5v88.46c0,9.55,1.88,19.38,9.38,20.98,1.25.27,2.19.81,2.19,2.55v1.92h-2.34" />
    <path
      d="m690.18,93.44v-29.12s-16.88-7.68-44.08-7.68c-35.49,0-60.03,17.98-60.34,61.62-.31,34.49,19.85,57.56,58.93,57.56,25.79,0,40.8-12.74,46.27-17.87,3.44-2.56,3.44-4.88,3.44-7.8s.16-8.07.16-8.07c-10.47,7.6-24.7,12.82-38.46,12.82-28.29,0-36.58-20.03-36.58-42.24,0-9.16,2.97-40.41,29.39-40.71,17.04,0,26.73,5.14,36.74,21.82,1.72,2.53,2.81,3.08,4.53,2.72v-3.06" />
    <path
      d="m953.11,71.72c-21.1,0-27.04,16.51-27.04,42.47,0,20.93.31,47.18,27.36,47.18,25.95-.59,25.64-22.43,25.64-46.3,0-27.87-6.88-43.19-25.95-43.35h0Zm-1.88-15.65c27.36-.44,64.56,6.47,64.87,57.82,0,40.08-15.01,61.92-64.41,61.92-34.24,0-62.06-7.69-62.06-59.28-.31-52.46,37.99-60.15,61.59-60.45h0" />
    <path
      d="m571.53,112.13h-78.01c-1.56,35.38,17.66,42.44,36.27,42.74,15.79,0,27.83-5.41,38.14-12.65v8.96c0,1.84-.94,3.3-1.41,4.17-7.03,9.47-25.01,20.48-49.71,20.48-33.77,0-57.37-17.4-57.37-57.21,0-43.74,24.23-61.75,58-61.94h0c34.86,0,52.84,16.43,54.09,52.26v3.19h0Zm-54.4-42.47h0c-10.79.59-20.63,5.3-23.61,28.61h46.12c.31-23.9-11.72-28.01-22.82-28.61h.31" />
    <path
      d="m782.41,65.48v-5.1h-35.95V27.11l-47.52,49.23h15.16v65.27c0,11.13,3.44,34.59,34.86,34.89,13.91,0,23.76-4.97,31.42-11.71,2.81-2.28,2.81-3.74,2.97-6,.16-1.95,0-4.24,0-8.07-19.85,11.19-36.89,4.16-36.89-17.56v-56.82h25.48c5-.81,10.47-3.55,10.47-10.85" />
    <path
      d="m170.24,3.49H0v170.16h170.24V3.49Zm-62.69,160.51V13.12c32.52,9.63,56.28,39.96,56.28,75.4s-23.76,65.75-56.28,75.49h0ZM6.57,84.88C8.44,43.13,42.99,9.91,85.2,9.91c5,0,10,.48,14.85,1.42,0,40.83-32.98,73.55-73.94,73.55H6.57Zm19.54,7.35c40.96,0,73.94,32.66,73.94,73.57-4.85.92-9.85,1.41-14.85,1.41-42.21,0-76.76-33.22-78.63-74.97h19.54" />
  </g>
</svg>