<?xml version="1.0" encoding="utf-8"?>
<!-- Generator: Adobe Illustrator 27.4.1, SVG Export Plug-In . SVG Version: 6.00 Build 0)  -->
<svg version="1.1" id="Layer_1" xmlns="http://www.w3.org/2000/svg" xmlns:xlink="http://www.w3.org/1999/xlink" x="0px" y="0px"
	 viewBox="0 0 300 110" style="enable-background:new 0 0 300 110;" xml:space="preserve">
<style type="text/css">
	.st0{fill:#FFFFFF;}
</style>
<g>
	<path class="st0" d="M282.5,64.6l2.9,4.2c1.3,1.3,0.5,3.2-0.9,3.6c-0.3,0.1-0.5,0.3-0.5,0.5v0.5l16,0v-0.6c0-0.2-0.1-0.4-0.2-0.4
		c-0.1,0-0.2-0.1-0.3-0.1c-1.6-0.5-3.1-1.4-4.4-3.1l-7.8-10.3l3.5-4.4c2.3-2.6,5.2-4.4,6.9-4.7c0.3-0.1,0.4-0.2,0.4-0.5v-0.5h-9.6
		l-0.5,0v0.5c0,0.3,0.1,0.4,0.3,0.5c0.1,0.1,0.1,0.1,0.1,0.1c0.7,0.4,1.3,1.5-0.3,3.3c0,0-1.1,1.4-2.7,3.3v0l-2.3-3.1
		c-1.4-1.4-0.4-3.3,1-3.7c0.3-0.1,0.4-0.2,0.4-0.5v-0.5h-0.5l-15.1,0c0,0,0,0.3,0,0.5c0,0.4,0.3,0.6,0.6,0.7c1.6,0.5,3,1.4,4.4,3.1
		l6.8,9.2l-4.4,5.3c-2.3,2.6-4.3,4.5-5.8,4.8c-0.3,0.1-0.5,0.2-0.5,0.5v0.5l9.3,0v-0.6c0-0.2-0.1-0.3-0.2-0.4
		c-0.1-0.1-0.2-0.1-0.3-0.1c-0.7-0.4-1.2-1.5,0.3-3.3C279.1,69,281,66.5,282.5,64.6L282.5,64.6"/>
	<path class="st0" d="M80.7,43.6c-0.8-2-3-2.8-5.2-2.8h-9.2v12.3l7.2,0c2.5,0,4.7-0.5,5.1-2.3c0-0.2,0.2-0.4,0.4-0.4h0.4v8.7h-0.4
		c-0.2,0-0.3-0.2-0.4-0.4c-0.6-1.6-2.8-2.4-5.1-2.4h-7.2v9.9c0,2.9,1.1,3.7,4,3.7h5.2c2.4,0,5.1-1.2,6.1-3.5
		c0.1-0.2,0.2-0.3,0.4-0.3h0.3v7.3H54.9V73c0-0.2,0.2-0.5,0.5-0.5c1.7-0.1,3-1.9,3-4.6V42.6c0-2.7-1.3-4.4-3-4.6
		c-0.3,0-0.5-0.3-0.5-0.5v-0.5h26.5v6.8h-0.3C80.9,43.9,80.7,43.7,80.7,43.6"/>
	<path class="st0" d="M98.8,73.4l0-0.5c0-0.2-0.2-0.5-0.5-0.5c-1.6-0.1-3-1.9-3-4.6V35.6l-10.6,1.4v0.5c0,0.2,0.2,0.5,0.5,0.5
		c1.7,0.1,3,1.9,3,4.6c0-0.1,0,25.3,0,25.3c0,2.7-1.3,4.4-3,4.6c-0.4,0-0.5,0.3-0.5,0.5l0,0.5L98.8,73.4"/>
	<path class="st0" d="M238.8,73.4l0-0.5c0-0.2-0.2-0.5-0.5-0.5c-1.6-0.1-3-1.9-3-4.6V35.6l-10.6,1.4v0.5c0,0.2,0.2,0.5,0.5,0.5
		c1.6,0.1,3,1.9,3,4.6c0-0.1,0,25.3,0,25.3c0,2.7-1.3,4.4-3,4.6c-0.4,0-0.5,0.3-0.5,0.5v0.5L238.8,73.4"/>
	<path class="st0" d="M184.6,48.4v5.5c1.1-2,3.3-6,7.9-6c0.9,0,1.5,0.2,2,0.4l-2,6.8h-3c-3,0-4.9,2-4.9,4.4v8.4c0,2.7,1.3,4.4,3,4.6
		c0.4,0,0.5,0.3,0.5,0.5v0.5h-14V73c0-0.2,0.2-0.5,0.5-0.5c1.6-0.1,3-1.9,3-4.6V55.4c0-2.7-1.1-4.3-3-4.6c-0.3,0-0.5-0.3-0.5-0.6
		v-0.4L184.6,48.4"/>
	<path class="st0" d="M268.5,73.5h-6.5c-2.2,0-2.8-1.4-2.8-2.5c-2.8,2.2-4.9,3.1-8.6,3.2c-4.2,0.1-8-2.4-8-7.1l0-11.7
		c0-2.7-1.3-4.4-3-4.6c-0.3,0-0.5-0.3-0.5-0.5v-0.5l10.8-1.4v15.2c0,6.8,6.7,6.1,9.3,4.2V55.4c0-2.7-1.3-4.4-3-4.5
		c-0.4,0-0.5-0.3-0.5-0.5v-0.5l10.8-1.4v19.4c0,2.1,0.4,4.3,2.1,4.6c0.3,0.1,0.5,0.2,0.5,0.6v0.4L268.5,73.5"/>
	<path class="st0" d="M151.5,56.1v-6.4c0,0-3.7-1.7-9.7-1.7c-7.8,0-13.2,3.9-13.2,13.5c-0.1,7.6,4.4,12.6,12.9,12.6
		c5.7,0,9-2.8,10.2-3.9c0.8-0.6,0.8-1.1,0.8-1.7s0-1.8,0-1.8c-2.3,1.7-5.4,2.8-8.4,2.8c-6.2,0-8-4.4-8-9.3c0-2,0.7-8.9,6.5-8.9
		c3.7,0,5.9,1.1,8.1,4.8c0.4,0.6,0.6,0.7,1,0.6V56.1"/>
	<path class="st0" d="M209.2,51.4c-4.6,0-5.9,3.6-5.9,9.3c0,4.6,0.1,10.4,6,10.4c5.7-0.1,5.6-4.9,5.6-10.2
		C214.9,54.8,213.4,51.4,209.2,51.4L209.2,51.4L209.2,51.4z M208.8,47.9c6-0.1,14.2,1.4,14.2,12.7c0,8.8-3.3,13.6-14.1,13.6
		c-7.5,0-13.6-1.7-13.6-13C195.2,49.7,203.6,48,208.8,47.9L208.8,47.9"/>
	<path class="st0" d="M125.5,60.2h-17.1c-0.3,7.8,3.9,9.3,8,9.4c3.5,0,6.1-1.2,8.4-2.8v2c0,0.4-0.2,0.7-0.3,0.9
		c-1.5,2.1-5.5,4.5-10.9,4.5c-7.4,0-12.6-3.8-12.6-12.6c0-9.6,5.3-13.6,12.7-13.6l0,0c7.7,0,11.6,3.6,11.9,11.5L125.5,60.2
		L125.5,60.2L125.5,60.2z M113.5,50.9L113.5,50.9c-2.4,0.1-4.5,1.2-5.2,6.3h10.1C118.5,52,115.9,51.1,113.5,50.9L113.5,50.9"/>
	<path class="st0" d="M171.7,50v-1.1h-7.9v-7.3l-10.4,10.8h3.3v14.3c0,2.4,0.8,7.6,7.7,7.7c3.1,0,5.2-1.1,6.9-2.6
		c0.6-0.5,0.6-0.8,0.7-1.3c0-0.4,0-0.9,0-1.8c-4.4,2.5-8.1,0.9-8.1-3.9V52.4h5.6C170.5,52.2,171.7,51.6,171.7,50"/>
	<path class="st0" d="M37.4,36.4H0v37.3h37.4V36.4z M23.6,71.6V38.5C30.7,40.6,36,47.3,36,55.1S30.7,69.5,23.6,71.6L23.6,71.6
		L23.6,71.6z M1.4,54.3c0.4-9.2,8-16.5,17.3-16.5c1.1,0,2.2,0.1,3.3,0.3c0,9-7.2,16.1-16.2,16.1C5.7,54.3,1.4,54.3,1.4,54.3z
		 M5.7,55.9C14.7,55.9,22,63,22,72c-1.1,0.2-2.2,0.3-3.3,0.3C9.4,72.3,1.9,65,1.4,55.9L5.7,55.9"/>
</g>
</svg>
