<?xml version="1.0" encoding="UTF-8"?>
<svg xmlns="http://www.w3.org/2000/svg" viewBox="0 0 295 108.03">
  <g fill="#ed1c2e">
    <path
      d="m228.25,56.93c1.49-.06,5.19.43,13.16.73,8.34.31,10-6.14,9.65-10.15-8.51,1.83-10.52,2.31-17.85,2.31-7.72,0-17.21,2.15-17.39,8.93-.17,6.74,8.64,8.24,13.21,9.54,1.28.29,1.76,1.33.91,1.98-1.96,1.57-6.37,3.63-6.9,7.32-.75,5.22,4.01,9.3,10.02,9.18,8.01-.18,16.86-3.57,25.37-13.78,2.4-2.88,5.11-7.76,6.77-9.9.39-.78,1.55-1.14,2.05-1.08,1.51.33,3.66,1.48,3.38,3.13-.44,2.52-7.32,10.39-2.74,15.13,2.81,2.91,9.89,5.02,15.53.92,5.28-3.84,3.42-7.35,1.33-7.61-1.49-.18-5.67,5.07-9.05,1.32-2.81-3.1,3.86-9.53,5.19-11.82,1.92-3.3-5.55-5.79-8.69-9.89-2.01-2.7,3.23-11-3.34-13.19-2.15-.72-8.8,3.29-6.43,14.75-3.02,11.34-26.01,31.2-29.07,23.2-.75-1.95,1.24-5.19,6.49-6.29,8.69-1.82,8.01-7.19,3.87-7.73-6.51-.85-8.33-.85-16.1-2.66-3.06-.33-2.97-4.4.65-4.34" />
    <path
      d="m102.48,69.43c-2.09,2.12-4.51,5.05-4.83,7.42-.71,5.13,1.93,9.65,8.44,9.53,7-.12,9.3-5.18,21.01-12.31,3.27-1.99,7.33-5.35,9.01-5.63.64,0,1.58.21,1.52,1.44-1,4.66-2.08,7.8-.88,11.78.86,2.8,4.58,4.57,7.26,2.53,4.46-3.38,4.53-5.3,10.3-12.91.97-1.26,4.48-7.04,6.11-6.28,1.35.65.97,2.51.73,3.99-1.22,7.13-4.31,18.39,9.77,16.65,3.35-.41,6.04-2.67,3.5-5.07-1.53-1.44-3.25-.4-5.19-.85-4.53-1.04,6.67-21.65,1.33-25.47-7.5-5.37-14.45,4.15-19.67,11.11-2.06,2.74-3.57,1.54-4.92-2.33-1.48-4.29-10.41-1.15-15.53,1.49-8.16,4.21-23.25,18.32-24.66,11.28-.25-1.22,1.73-3.93,5.39-5.26,4.31-1.56,9.17-2.96,9.17-5.55,0-2-1.21-3.41-2.5-3.34-6,.33-12.98,1.92-20.99-.28-1.82,0-2.59-4.6,2.81-3.99,1.42.16,4.61.37,16.71.61,8.51.18,8.7-6.21,7.57-9.6-7.09,2.11-10.69,1.88-18.2,1.88s-18.46,1.08-18.01,8.66c.38,6.38,9.34,8.13,13.97,8.65,1.33-.11,1.75,1.15.79,1.82" />
    <path
      d="m76.65,53.07c.72-2.65,2.29-3.25,4.34-3.74,3.06-1,7.38-2.34,10-2.82,6.67-1.64,8.57-1.26,9.43-5.86.61-3.21-.78-4.75-.78-4.75,0,0-14.52,4.55-17.44,5.35-2.53,1.09-2.05-1.57-2.05-1.57,0,0-.36,1.69,1.21-5.19,4.75-20.94,1.96-26.52-1.81-29.7-9.57-7.91-44.53,8.52-69.52,28.24-8.33,7.25-13.16,8.94-7.73,14.73,4.83,4.82,7.97,1.2,7.97,1.2,4.59-3.61,14.49-13.75,21-18.58,9.28-6.87,22.1-16.78,33.44-19.44,9.01-2.29,11.71.36,10.5,9.55-.7,7.86-6.76,25.58-6.76,25.58,0,0-9.29,4.14-12.07,5.19-2.17.81-4.46.25-4.71,5.19-.11,5.31,3.09,3.32,5.26,2.49,1.65-.63,5.59-2.49,7.05-3.09,1.09-.85,2.3-.12,1.69,1.44-1.08,3.51-3.04,9.17-6.76,17.38-4.7,11.23-13.16,26.56-14.25,30.42.14,2.53,2.91,2.9,6.56,2.95,3.36-.25,4.92-2.58,4.92-2.58,0,0,4.37-9.39,11.1-25.95,4.88-12.02,8.06-21.95,9.42-26.44" />
    <path
      d="m196.79,57.47c-5.23-1.51-9.81,4.69-11.16,10.2-1.22,5.04-.57,11.81,3.98,12.67,3.66.71,7.9-2.49,8.99-8.41.29-1.58.96-6.63,1.17-7.93,1.25-8.01,2.18-11.53,2.18-11.53,4.37-16.75,14.85-49.33,17.7-51.23,2.97-1.97,11.12-2.31,8.56,4.5-3.96,10.57-8.57,19.94-12.75,32.98-4.9,15.28-14.36,39.83-5.91,40.91,3.96.51,5.55-3.14,7.93-1.29,3.62,2.84-.34,7.97-7.33,8.65-9.6.34-9.4-5.28-13.66-2.86-13.67,7.76-22.09-3.09-19.4-16.71,2.31-11.65,11.28-19.89,21.31-14.84,0,0,2.56,1.28,2.35,3.45-.17,1.68-1.43,2.02-3.94,1.43" />
    <path
      d="m292.94,51.81c-1.39,1.38-3.05,2.08-5.01,2.08s-3.63-.7-5-2.08c-1.36-1.38-2.05-3.05-2.05-5.01s.69-3.6,2.07-4.99c1.38-1.37,3.03-2.06,4.98-2.06s3.62.7,5.01,2.06c1.39,1.38,2.06,3.04,2.06,4.99,0,1.95-.68,3.62-2.06,5.01m-9.32-9.3c-1.19,1.19-1.79,2.61-1.79,4.3s.6,3.14,1.78,4.33c1.18,1.19,2.63,1.79,4.33,1.79s3.13-.6,4.32-1.79c1.2-1.19,1.79-2.64,1.79-4.33s-.59-3.11-1.79-4.3c-1.19-1.2-2.63-1.79-4.32-1.79-1.69,0-3.13.59-4.32,1.79m4.18.39c.97,0,1.67.1,2.13.28.81.32,1.21.98,1.21,1.95,0,.7-.25,1.2-.76,1.52-.27.18-.65.31-1.13.38.6.09,1.04.34,1.33.76.28.41.42.81.42,1.19v.58c0,.17.01.36.02.57s.03.33.07.4l.05.09h-1.28s-.01-.05-.01-.07c-.01-.03-.02-.06-.02-.09l-.03-.25v-.62c0-.88-.24-1.48-.75-1.77-.3-.17-.81-.25-1.54-.25h-1.1v3.03h-1.34v-7.73h2.72Zm1.48,1.25c-.35-.2-.91-.28-1.68-.28h-1.19v2.77h1.26c.58,0,1.02-.05,1.32-.18.55-.2.81-.6.81-1.18,0-.57-.18-.94-.52-1.13" />
  </g>
</svg>