<?xml version="1.0" encoding="utf-8"?>
<!-- Generator: Adobe Illustrator 27.4.1, SVG Export Plug-In . SVG Version: 6.00 Build 0)  -->
<svg version="1.1" id="Layer_1" xmlns="http://www.w3.org/2000/svg" xmlns:xlink="http://www.w3.org/1999/xlink" x="0px" y="0px"
	 viewBox="0 0 300 110" style="enable-background:new 0 0 300 110;" xml:space="preserve">
<style type="text/css">
	.st0{fill:#ED1C2E;}
</style>
<g>
	<path class="st0" d="M232.1,58c1.5-0.1,5.3,0.4,13.4,0.7c8.5,0.3,10.2-6.2,9.8-10.3c-8.7,1.9-10.7,2.3-18.2,2.3
		c-7.9,0-17.5,2.2-17.7,9.1c-0.2,6.9,8.8,8.4,13.4,9.7c1.3,0.3,1.8,1.4,0.9,2c-2,1.6-6.5,3.7-7,7.4c-0.8,5.3,4.1,9.5,10.2,9.3
		c8.1-0.2,17.1-3.6,25.8-14c2.4-2.9,5.2-7.9,6.9-10.1c0.4-0.8,1.6-1.2,2.1-1.1c1.5,0.3,3.7,1.5,3.4,3.2c-0.4,2.6-7.4,10.6-2.8,15.4
		c2.9,3,10.1,5.1,15.8,0.9c5.4-3.9,3.5-7.5,1.4-7.7c-1.5-0.2-5.8,5.2-9.2,1.3c-2.9-3.2,3.9-9.7,5.3-12c2-3.4-5.6-5.9-8.8-10.1
		c-2-2.7,3.3-11.2-3.4-13.4c-2.2-0.7-8.9,3.3-6.5,15c-3.1,11.5-26.5,31.7-29.6,23.6c-0.8-2,1.3-5.3,6.6-6.4c8.8-1.9,8.1-7.3,3.9-7.9
		c-6.6-0.9-8.5-0.9-16.4-2.7C228.4,62,228.5,57.9,232.1,58"/>
	<path class="st0" d="M104.2,70.7c-2.1,2.2-4.6,5.1-4.9,7.5c-0.7,5.2,2,9.8,8.6,9.7c7.1-0.1,9.5-5.3,21.4-12.5
		c3.3-2,7.5-5.4,9.2-5.7c0.7,0,1.6,0.2,1.5,1.5c-1,4.7-2.1,7.9-0.9,12c0.9,2.8,4.7,4.6,7.4,2.6c4.5-3.4,4.6-5.4,10.5-13.1
		c1-1.3,4.6-7.2,6.2-6.4c1.4,0.7,1,2.6,0.7,4.1c-1.2,7.3-4.4,18.7,9.9,16.9c3.4-0.4,6.1-2.7,3.6-5.2c-1.6-1.5-3.3-0.4-5.3-0.9
		c-4.6-1.1,6.8-22,1.4-25.9c-7.6-5.5-14.7,4.2-20,11.3c-2.1,2.8-3.6,1.6-5-2.4c-1.5-4.4-10.6-1.2-15.8,1.5
		c-8.3,4.3-23.6,18.6-25.1,11.5c-0.3-1.2,1.8-4,5.5-5.3c4.4-1.6,9.3-3,9.3-5.6c0-2-1.2-3.5-2.5-3.4c-6.1,0.3-13.2,2-21.3-0.3
		c-1.9,0-2.6-4.7,2.9-4.1c1.4,0.2,4.7,0.4,17,0.6c8.7,0.2,8.8-6.3,7.7-9.8c-7.2,2.1-10.9,1.9-18.5,1.9S88.8,52.3,89.2,60
		c0.4,6.5,9.5,8.3,14.2,8.8C104.8,68.7,105.2,70,104.2,70.7"/>
	<path class="st0" d="M77.9,54c0.7-2.7,2.3-3.3,4.4-3.8c3.1-1,7.5-2.4,10.2-2.9c6.8-1.7,8.7-1.3,9.6-6c0.6-3.3-0.8-4.8-0.8-4.8
		S86.6,41.2,83.6,42c-2.6,1.1-2.1-1.6-2.1-1.6s-0.4,1.7,1.2-5.3c4.8-21.3,2-27-1.8-30.2c-9.7-8-45.3,8.7-70.7,28.7
		c-8.5,7.4-13.4,9.1-7.9,15c4.9,4.9,8.1,1.2,8.1,1.2c4.7-3.7,14.7-14,21.4-18.9c9.4-7,22.5-17.1,34-19.8c9.2-2.3,11.9,0.4,10.7,9.7
		c-0.7,8-6.9,26-6.9,26s-9.4,4.2-12.3,5.3c-2.2,0.8-4.5,0.3-4.8,5.3c-0.1,5.4,3.1,3.4,5.3,2.5c1.7-0.6,5.7-2.5,7.2-3.1
		c1.1-0.9,2.3-0.1,1.7,1.5c-1.1,3.6-3.1,9.3-6.9,17.7c-4.8,11.4-13.4,27-14.5,30.9c0.1,2.6,3,2.9,6.7,3c3.4-0.3,5-2.6,5-2.6
		s4.4-9.5,11.3-26.4C73.3,68.7,76.6,58.6,77.9,54"/>
	<path class="st0" d="M200.1,58.5c-5.3-1.5-10,4.8-11.3,10.4c-1.2,5.1-0.6,12,4,12.9c3.7,0.7,8-2.5,9.1-8.6c0.3-1.6,1-6.7,1.2-8.1
		c1.3-8.1,2.2-11.7,2.2-11.7c4.4-17,15.1-50.2,18-52.1c3-2,11.3-2.3,8.7,4.6c-4,10.7-8.7,20.3-13,33.5c-5,15.5-14.6,40.5-6,41.6
		c4,0.5,5.6-3.2,8.1-1.3c3.7,2.9-0.3,8.1-7.5,8.8c-9.8,0.3-9.6-5.4-13.9-2.9c-13.9,7.9-22.5-3.1-19.7-17
		c2.3-11.8,11.5-20.2,21.7-15.1c0,0,2.6,1.3,2.4,3.5C204,58.8,202.7,59.1,200.1,58.5"/>
	<path class="st0" d="M297.9,52.8c-1.4,1.4-3.1,2.1-5.1,2.1s-3.7-0.7-5.1-2.1c-1.4-1.4-2.1-3.1-2.1-5.1c0-2,0.7-3.7,2.1-5.1
		c1.4-1.4,3.1-2.1,5.1-2.1s3.7,0.7,5.1,2.1c1.4,1.4,2.1,3.1,2.1,5.1C300,49.6,299.3,51.3,297.9,52.8 M288.4,43.3
		c-1.2,1.2-1.8,2.7-1.8,4.4s0.6,3.2,1.8,4.4s2.7,1.8,4.4,1.8s3.2-0.6,4.4-1.8c1.2-1.2,1.8-2.7,1.8-4.4s-0.6-3.2-1.8-4.4
		c-1.2-1.2-2.7-1.8-4.4-1.8C291.1,41.5,289.6,42.1,288.4,43.3 M292.7,43.7c1,0,1.7,0.1,2.2,0.3c0.8,0.3,1.2,1,1.2,2
		c0,0.7-0.3,1.2-0.8,1.5c-0.3,0.2-0.7,0.3-1.1,0.4c0.6,0.1,1.1,0.3,1.4,0.8c0.3,0.4,0.4,0.8,0.4,1.2v0.6c0,0.2,0,0.4,0,0.6
		c0,0.2,0,0.3,0.1,0.4l0.1,0.1h-1.3c0,0,0-0.1,0-0.1c0,0,0-0.1,0-0.1l0-0.3v-0.6c0-0.9-0.2-1.5-0.8-1.8c-0.3-0.2-0.8-0.3-1.6-0.3
		h-1.1v3.1h-1.4v-7.9L292.7,43.7L292.7,43.7z M294.2,45c-0.4-0.2-0.9-0.3-1.7-0.3h-1.2v2.8h1.3c0.6,0,1-0.1,1.3-0.2
		c0.6-0.2,0.8-0.6,0.8-1.2C294.7,45.5,294.5,45.2,294.2,45"/>
</g>
</svg>
