<?xml version="1.0" encoding="utf-8"?>
<!-- Generator: Adobe Illustrator 27.4.1, SVG Export Plug-In . SVG Version: 6.00 Build 0)  -->
<svg version="1.1" id="a" xmlns="http://www.w3.org/2000/svg" xmlns:xlink="http://www.w3.org/1999/xlink" x="0px" y="0px"
	 viewBox="0 0 300 110" style="enable-background:new 0 0 300 110;" xml:space="preserve">
<style type="text/css">
	.st0{fill:#FFFFFF;}
</style>
<g>
	<path class="st0" d="M40.5,49v-4c0,0,1.1-11.3-20-11.3C0.9,33.7,0,45,0,45v20.1c0,0,1.6,11.2,20.5,11.2c16,0,20-8,20-8V53.9h-20
		v5.4h9.4v9c0,0-0.5,2.6-9.4,2.6c-10.5,0-9.9-5.8-9.9-5.8V45c0,0-0.6-6.1,9.9-6.1s9.4,6.1,9.4,6.1v4H40.5"/>
	<path class="st0" d="M77.5,47.8v27.2H86V54c0,0,0-3.5,7-3.5c7,0,7,3.4,7,3.4v21.1h8.5v-22c0,0-0.3-7.2-15.5-7.2
		c-5.2,0-8.7,0.8-10.9,2h0.1H77.5"/>
	<path class="st0" d="M145.3,47.8v27.2h8.5V54c0,0,0-3.5,6.9-3.5s7,3.4,7,3.4v21.1h8.5v-22c0,0-0.3-7.2-15.5-7.2
		c-5.2,0-8.7,0.8-10.9,2h0.1H145.3"/>
	<path class="st0" d="M231.6,63.3h-22.5c0,0-0.1,5,0,5c0,0,0,3.4,7,3.4s7-3.5,7-3.5V66h8.5v2.2c0,0,0.6,8-15.5,8s-15.5-8-15.5-8v-14
		c0,0-0.6-8,15.5-8s15.5,8.1,15.5,8.1V63.3L231.6,63.3z M209.1,54.5v3.1h14c0,0,0-3.1,0-3.1c0,0,0-3.5-7-3.5
		C209.1,51,209.1,54.5,209.1,54.5"/>
	<path class="st0" d="M265.6,58.2v-3.8c0,0,0.7-8.1-15.5-8.1s-15.5,8-15.5,8v14c0,0-0.7,8,15.5,8s15.5-8,15.5-8v-3.5h-8.5v3.5
		c0,0,0,3.5-7,3.5c-7,0-6.9-3.5-7-3.5s0-13.8,0-13.8s0.1-3.5,7.3-3.5c6.8,0,6.6,3.5,6.6,3.5v3.7L265.6,58.2"/>
	<path class="st0" d="M178.3,47.4h2.7v-6.5h8.5v6.5h9.4V52h-9.4v16.7c0,0,0.5,4.2,9,3.1c0,0,0.1,4.2,0,4.2c-7.4,1-17.5,0.2-17.5-7.2
		V52h-2.7L178.3,47.4"/>
	<path class="st0" d="M269,34.1c0,0,8.5,0.1,8.5,0c0-0.1-0.1,12.5,0,12.5c1.9-0.4,4.1-0.6,6.9-0.6c15.2,0,15.5,7.2,15.5,7.2v22h-8.5
		V54c0,0,0-3.4-7-3.4c-7,0-6.9,3.5-6.9,3.5v21.1H269L269,34.1"/>
	<path class="st0" d="M142.4,63.3h-22.5c0,0-0.1,5,0,5c0,0,0,3.4,7,3.4c7,0,7-3.5,7-3.5V66h8.5v2.2c0,0,0.6,8-15.5,8s-15.5-8-15.5-8
		v-14c0,0-0.6-8,15.5-8s15.5,8.1,15.5,8.1V63.3L142.4,63.3z M119.9,54.5v3.1h14c0,0,0-3.1,0-3.1c0,0,0-3.5-7-3.5
		C119.9,51,119.9,54.5,119.9,54.5"/>
	<path class="st0" d="M74.6,63.3H52.1c0,0-0.1,5,0,5c0,0,0,3.4,7,3.4s7-3.5,7-3.5V66h8.5v2.2c0,0,0.7,8-15.5,8s-15.5-8-15.5-8v-14
		c0,0-0.7-8,15.5-8s15.5,8.1,15.5,8.1L74.6,63.3L74.6,63.3z M52.1,54.5v3.1h14c0,0,0-3.1,0-3.1c0,0,0-3.5-7-3.5
		C52.1,51,52.1,54.5,52.1,54.5"/>
</g>
</svg>
