<?xml version="1.0" encoding="utf-8"?>
<!-- Generator: Adobe Illustrator 27.4.1, SVG Export Plug-In . SVG Version: 6.00 Build 0)  -->
<svg version="1.1" id="Layer_1" xmlns="http://www.w3.org/2000/svg" xmlns:xlink="http://www.w3.org/1999/xlink" x="0px" y="0px"
	 viewBox="0 0 300 110" style="enable-background:new 0 0 300 110;" xml:space="preserve">
<style type="text/css">
	.st0{fill:#04B4E1;}
	.st1{fill:#FFFFFF;}
</style>
<g>
	<path class="st0" d="M65.6,43.4c0.3,5.1-4.3,10.3-9.4,11c-8.5,1.2-5,7-4.4,12.6c-1,16.8-25.8,14.5-23.4-2.2c0.6-4.1,3.5-7.5,7.3-9
		c2-0.6,4.1-0.8,5.9-2c4.9-3.9-2-9.7,1.5-15.8C48.2,26.5,66.3,30.6,65.6,43.4z"/>
	<path class="st0" d="M0,66.7c-0.1-5.1,3.6-9.7,8.4-11.1c2.9-0.6,6.3-1.4,6.8-4.8c0.2-2.2-1.2-4.2-1.2-6.4
		c-1.7-17.8,25.4-17.2,23.2,0.5c-2.8,12.9-14,6.6-15,14.2c-0.2,3.4,2.1,6.8,1.1,10.3C20.2,83.1-0.3,80.9,0,66.7z"/>
	<path class="st0" d="M68,78.7c-15.7-0.9-15.1-23.6,0.6-23.6C84.2,55.9,83.6,78.6,68,78.7z"/>
</g>
<g>
	<path class="st1" d="M199.2,61.4c0-2.4,0-4.8,0-7.2c0-0.4-0.1-0.8-0.1-1.1c-0.5-2.7-4.5-2.7-6.6-2c-1.9,0.6-2,2.7-1.9,4.4
		c0,4.4,0,8.8,0,13.1c0,0.5-0.1,0.7-0.6,0.7c-1.4,0.1-2.8,0.1-4.2,0c-0.3,0-0.5-0.2-0.5-0.5c0-4.7,0-9.3,0-14c0-1.4,0.2-2.8,0.7-4.2
		c1.8-4.5,7.3-5.4,11.6-4.5c0.6,0.1,1.1,0.4,1.6,0.6c0.2,0.1,0.3,0.2,0.5,0.1c0.2-0.1,0.1,0.2,0.2,0.3c0.6,0.4,1.2,0.9,1.6,1.6
		c0.1,0.2,0.2,0.1,0.3,0c1.1-1.5,2.6-2.3,4.4-2.6c2.7-0.6,5.3-0.2,7.8,0.9c3,1.4,4,5,3.9,8c0,4.6,0,9.1,0,13.7c0,0.6,0,0.6-0.6,0.7
		c-1.4,0.1-2.9,0.1-4.3,0c-0.2,0-0.4-0.1-0.3-0.3c0.1-1,0-2,0-3c0-3.2,0-6.4,0-9.6c0-2.6,0.4-5.3-2.9-5.8c-1-0.2-2.1-0.2-3.1,0.1
		c-1.7,0.4-2.4,1.2-2.6,2.9c-0.2,4.6,0,9.2-0.1,13.9c0,0.4,0,0.8,0,1.2c0,0.3-0.1,0.5-0.4,0.5c-1.3,0.1-2.7,0.1-4,0
		c-0.5-0.1-0.6-0.2-0.6-0.7C199.2,66.3,199.2,63.8,199.2,61.4L199.2,61.4L199.2,61.4z"/>
	<path class="st1" d="M126.7,61.1c0,2.5,0,5.1,0,7.6c0,0.5-0.1,0.6-0.6,0.6c-1.3,0-2.6,0-3.9,0c-0.6,0-0.6-0.1-0.6-0.6
		c0-4.7,0-9.4,0-14.1c0-0.5,0-1-0.1-1.5c-0.5-2.7-3.6-2.7-5.8-2.4c-1.4,0.2-2.4,1.2-2.6,2.6c-0.1,0.6-0.1,1.3-0.1,1.9
		c0,4.4,0,8.9,0,13.3c0,0.7,0,0.7-0.7,0.7c-1.3,0-2.6,0-3.8,0c-0.3,0-0.4-0.1-0.4-0.4c0.1-4.7,0-9.4,0-14c0-1.8-0.5-3.7-2.6-4
		c-1.1-0.2-2.2-0.3-3.3-0.1c-1.8,0.3-2.6,1.2-2.8,2.9c0,5,0,10.1,0,15.2c0,0.3-0.1,0.4-0.4,0.4c-1.4,0-2.9,0-4.3,0
		c-0.3,0-0.4-0.1-0.4-0.4c0-5.1-0.1-10.2,0-15.3c0.1-1.9,0.7-3.6,1.9-5.1c1.9-2.2,5-2.7,7.8-2.7c2.4,0.1,4.9,0.8,6.3,2.8
		c0.1,0.2,0.2,0.3,0.4,0c2.3-3.1,6.8-3.2,10.3-2.4c3.9,0.8,5.8,4.3,5.8,8.2C126.7,56.7,126.7,58.9,126.7,61.1L126.7,61.1z"/>
	<path class="st1" d="M267.2,49.3c0,3.8,0,7.6,0,11.5c0,1.6-0.5,3.2-1.3,4.7c-2.6,4.6-8.8,4.9-13.4,3.9c-2-0.5-3.7-1.4-4.9-3.2
		c-1-1.6-1.6-3.3-1.6-5.2c0-2,0-4,0-6.1c0-1.8,0.5-3.5,1.4-5c0.9-1.7,2.4-2.8,4.3-3.4c3.2-1,7.6-1,10.1,1.5c0.1,0.1,0.2,0.3,0.3,0.2
		c0.1-0.1,0.1-0.3,0.1-0.4c-0.2-3.3,0-6.5-0.1-9.8c0-1,0-1,1-1c1.2,0,2.4,0,3.6,0c0.5,0,0.6,0,0.6,0.6
		C267.2,41.6,267.2,45.5,267.2,49.3C267.2,49.3,267.2,49.3,267.2,49.3L267.2,49.3z M262.1,57.9c0-2.5,0.4-6-2.7-6.9
		c-2-0.5-4.1-0.6-6.1,0.1c-2,0.7-2.3,2.9-2.3,4.7c0,1.8,0,3.6,0.1,5.4c0.1,1.9,1,3.2,2.9,3.6c1.1,0.3,2.3,0.2,3.5,0.2
		c0.8,0,1.5-0.1,2.2-0.4C262.6,63.7,262,60.3,262.1,57.9L262.1,57.9z"/>
	<path class="st1" d="M234.5,59.8c-2.3,0-4.5,0-6.8,0c-0.4,0-0.5,0.1-0.5,0.5c-0.1,2.4,0.9,3.9,3.3,4.4c1.6,0.4,3.1,0.3,4.7,0.2
		c1.7-0.1,3.3-0.3,4.9-0.8c0.4-0.1,0.8-0.3,1.2-0.3c0.2,0,0.3,0,0.3,0.3c0,1.3,0,2.6,0,4c0,0.3-0.2,0.4-0.4,0.5
		c-3,1-6.2,1.3-9.3,1.1c-3.3-0.2-6.8-1.2-8.5-4.3c-0.7-1.2-1-2.6-1.1-4c-0.2-2.4-0.2-4.8,0-7.1c0.2-2.9,1.7-6,4.5-7.3
		c2.6-1.1,5.3-1.4,8.1-0.9c3.8,0.5,6.5,2.8,7.2,6.6c0.5,2.3,0.4,4.5-0.2,6.8c-0.1,0.5-0.7,0.3-1.1,0.4
		C238.7,59.9,236.6,59.9,234.5,59.8L234.5,59.8L234.5,59.8z M233,55.6c1.6,0,2.9,0,4.1,0c0.4,0,0.5-0.2,0.5-0.5
		c0-0.4-0.1-0.7-0.1-1.1c-0.1-3.8-5-4.3-7.8-3.2c-2,0.7-2.4,2.3-2.4,4.3c0,0.4,0.1,0.4,0.5,0.5C229.6,55.6,231.5,55.7,233,55.6
		L233,55.6z"/>
	<path class="st1" d="M143.1,59.8c-2.2,0-4.4,0-6.7,0c-0.4,0-0.5,0.1-0.5,0.5c0,0.6,0,1.2,0.1,1.8c0.6,2.3,3.1,2.9,5.2,2.9
		c2.8,0,5.7-0.2,8.4-1.1c0.4-0.2,0.6,0,0.6,0.4c0,1.2,0,2.4,0,3.6c0,0.4-0.2,0.6-0.6,0.7c-2,0.6-4,1-6.1,1.1
		c-5.7,0.3-11.9-0.9-12.5-7.7c-0.3-3.2-0.4-6.3,0.2-9.5c1.1-6,7.7-7.4,12.9-6.4c6.4,1.1,7.7,7.5,6.5,13c-0.1,0.8-1,0.6-1.6,0.6
		C147.1,59.8,145.1,59.8,143.1,59.8C143.1,59.8,143.1,59.8,143.1,59.8L143.1,59.8z M141.4,55.6c1.5,0,2.9,0,4.4,0
		c0.4,0,0.5-0.1,0.5-0.5c0-0.3,0-0.6,0-1c-0.1-1.5-0.7-2.7-2.2-3.3c-2-0.8-4-0.8-6,0c-1.1,0.5-1.9,1.3-2.1,2.6
		c-0.1,0.5-0.1,1-0.1,1.5c0,0.5,0.1,0.5,0.6,0.6C138.1,55.7,139.8,55.6,141.4,55.6L141.4,55.6z"/>
	<path class="st1" d="M300,57.9c-0.1,3.5,0.9,7.8-2.4,10.2c-1.2,0.9-2.6,1.3-4.1,1.5c-1.7,0.3-3.4,0.4-5.1,0.2
		c-5.6-0.4-8.6-3.3-7.6-9.1c0.5-3.2,3.9-4.8,6.9-5c2-0.2,4.1,0,6.1-0.2c0.1,0,0.3,0,0.4,0c0.5,0,0.7-0.2,0.7-0.7c0-0.5,0-1.1,0-1.6
		c0-2.4-2.5-3-4.5-3c-1.4,0-2.8-0.1-4.2,0.2c-0.8,0.2-1.6,0.2-2.3,0.5c-0.1,0.1-0.3,0.1-0.4,0.1c-0.3,0-0.4-0.1-0.4-0.3
		c0-1.2,0-2.4,0-3.6c0-0.3,0.1-0.4,0.4-0.5c1.1-0.3,2.2-0.5,3.3-0.6c3.8-0.4,10-0.3,12.2,3.4c1.2,1.9,1,4.2,1,6.3
		C300,56.4,300,57.2,300,57.9L300,57.9z M292,59.5c-2.1,0.1-5.8-0.5-6.3,2.3c-0.4,1.8,0.6,3.2,2.4,3.5c1.4,0.2,2.9,0.2,4.3-0.1
		c3-0.7,2.4-2.9,2.4-5.4c0-0.3-0.1-0.4-0.4-0.4C293.7,59.5,292.8,59.5,292,59.5L292,59.5z"/>
	<path class="st1" d="M173.6,57c0,1.6,0,3.1,0,4.7c0,0.7,0.1,1.5,0.5,2.1c1.1,2.1,6.3,1.1,8.1,0.4c0.3-0.1,0.5,0,0.5,0.4
		c0,1.1,0,2.3,0,3.4c0,0.8,0,0.8-0.7,1.1c-2.7,0.9-5.5,1.1-8.3,0.4c-4-0.9-5.3-5-5.2-8.7c0-3,0-6,0-8.9c0-0.6,0-0.6-0.6-0.6
		c-0.9,0-1.8,0-2.8,0c-0.6,0-0.6,0-0.6-0.6c0-1,0-1.9,0-2.9c0-0.3,0.1-0.5,0.5-0.6c1.1-0.2,2.1-0.4,3.2-0.6c0.2,0,0.3-0.2,0.4-0.4
		c0.2-1.6,0.4-3.3,0.6-4.9c0.1-0.7,0.1-0.8,0.8-0.8c1,0,2,0,2.9,0c0.6,0,0.7,0.1,0.7,0.6c0,1.6,0,3.1,0,4.7c0,0.6,0,0.6,0.6,0.6
		c2.3,0,4.6,0,6.9,0c0.7,0,0.8,0.1,0.8,0.8c0,1.1,0,2.3,0,3.4c0,0.5-0.1,0.6-0.6,0.6c-2.4,0-4.8,0-7.1,0c-0.5,0-0.5,0-0.5,0.5
		C173.6,53.5,173.6,55.2,173.6,57L173.6,57L173.6,57z"/>
	<path class="st1" d="M159.9,49.8c0.1,4.4-0.1,8.9,0.1,13.3c0.1,2,1.8,1.8,3.4,1.7c0.3,0,0.5,0.1,0.5,0.4c0,1.2,0,2.4,0,3.6
		c0,0.3-0.1,0.5-0.4,0.6c-1.8,0.6-3.8,0.4-5.5-0.4c-3.5-1.7-3.1-6-3.1-9.3c0-7.3,0-14.7,0-22c0-0.5,0-0.6,0.5-0.6c1.4,0,2.8,0,4.1,0
		c0.4,0,0.5,0.2,0.5,0.5C159.9,41.7,159.9,45.8,159.9,49.8L159.9,49.8L159.9,49.8z"/>
	<path class="st1" d="M277,57.9c0,3.7,0,7.4,0,11.1c0,0.3-0.1,0.4-0.3,0.4c-1.5,0.1-3,0.1-4.5,0c-0.3,0-0.4-0.1-0.4-0.4
		c0-7.2,0-14.4,0-21.6c0-0.7,0.2-0.9,1-0.9c1.2,0,2.5,0,3.7,0c0.5,0,0.5,0,0.5,0.5C277,50.6,277,54.2,277,57.9L277,57.9L277,57.9z"
		/>
	<path class="st1" d="M277.5,39.6c-0.1,2-1.5,3.2-3.1,3.1c-4.2-0.1-4-5.8-0.1-6.1C276.2,36.5,277.5,38.1,277.5,39.6z"/>
</g>
</svg>
