<?xml version="1.0" encoding="UTF-8"?>
<svg xmlns="http://www.w3.org/2000/svg" viewBox="0 0 934.52 147.81">
  <g fill="#04b4e1">
    <path
      d="m204.39,37.7c1.02,15.96-13.35,32.02-29.14,34.41-26.37,3.62-15.63,21.75-13.76,39.31-2.99,52.28-80.29,45.3-72.82-6.75,1.88-12.68,11.04-23.25,22.8-28.06,6.1-1.78,12.73-2.53,18.25-6.17,15.19-12.08-6.15-30.17,4.7-49.08,15.67-36.12,72.22-23.59,69.97,16.34Z" />
    <path
      d="m0,110.44c-.27-15.78,11.14-30.35,26.23-34.58,9.04-1.86,19.52-4.41,21.29-15.07.62-6.8-3.61-13.03-3.89-19.86-5.16-55.44,79.04-53.72,72.26,1.63-8.71,40.07-43.64,20.48-46.84,44.12-.47,10.74,6.68,21.32,3.32,32.05C63.03,161.33-.9,154.54,0,110.44Z" />
    <path d="m211.86,147.81c-48.84-2.91-47.03-73.59,1.96-73.54,48.51,2.31,46.6,73.25-1.96,73.54Z" />
  </g>
  <g fill="#ffffff">
    <path class="b"
      d="m620.63,93.8c0-7.47,0-14.94,0-22.4,0-1.21-.23-2.39-.46-3.57-1.56-8.34-14.13-8.53-20.46-6.2-6.02,1.99-6.17,8.52-5.97,13.83,0,13.65.02,27.3.04,40.95,0,1.61-.29,2.07-1.72,2.19-4.31.37-8.63.36-12.96.08-1.05-.07-1.43-.5-1.43-1.55.02-14.52-.07-29.04.07-43.56.04-4.42.49-8.86,2.23-13.04,5.51-13.92,22.82-16.95,36.01-13.97,1.77.4,3.37,1.17,4.99,1.92.5.23.94.65,1.62.43.68-.21.18.57.59.82,2,1.24,3.62,2.91,4.97,4.83.42.59.74.3,1.05-.13,3.35-4.73,8.23-7.09,13.67-8.23,8.39-1.76,16.58-.73,24.35,2.86,9.33,4.34,12.34,15.45,12.23,24.97.07,14.23.03,28.46.03,42.69,0,1.74,0,1.74-1.75,2.05-4.46.22-8.99.16-13.46-.09-.66-.05-1.15-.17-1.08-.99.25-3.06.04-6.13.01-9.19-.08-9.92-.08-19.83-.01-29.75.15-8.17,1.3-16.59-9-17.97-3.23-.61-6.46-.55-9.66.23-5.19,1.26-7.39,3.8-8.03,9.14-.63,14.37-.05,28.79-.23,43.18,0,1.28-.02,2.58.11,3.85.1,1.04-.32,1.42-1.28,1.54-4.17.33-8.41.24-12.59.09-1.67-.29-1.84-.49-1.85-2.2,0-7.59,0-15.19,0-22.78h-.01Z" />
    <path class="b"
      d="m394.74,93.01c0,7.93,0,15.85,0,23.78,0,1.51-.28,1.83-1.82,1.84-4.08.02-8.16.02-12.24-.02-1.72-.02-1.83-.17-1.83-1.87,0-14.61,0-29.21,0-43.82,0-1.58.03-3.15-.37-4.7-1.67-8.38-11.26-8.34-18.13-7.37-4.39.58-7.41,3.61-8.15,7.98-.34,2.02-.43,4.03-.43,6.07,0,13.82,0,27.64,0,41.46,0,2.15-.12,2.28-2.23,2.28-4,0-7.99-.03-11.99,0-1.03,0-1.36-.27-1.24-1.37.23-14.54-.01-29.13.08-43.69.05-5.76-1.58-11.43-8.02-12.51-3.42-.67-6.88-.82-10.3-.23-5.48.94-7.97,3.7-8.81,9.18-.14,15.73.05,31.53,0,47.29,0,.94-.28,1.36-1.28,1.35-4.5-.04-8.99-.04-13.49-.02-1.01,0-1.24-.31-1.14-1.33-.04-15.81-.35-31.7.13-47.53.27-5.91,2.08-11.36,6.05-15.85,6.01-6.92,15.5-8.39,24.22-8.39,7.37.18,15.23,2.47,19.66,8.72.46.57.76.95,1.38.1,7.28-9.7,21.18-10.12,32.01-7.51,12.3,2.61,18.12,13.49,17.94,25.49-.07,6.89-.02,13.78-.02,20.67Z" />
    <path class="b"
      d="m832.29,56.3c0,11.91.1,23.82-.05,35.73-.06,5.12-1.54,10.02-4.05,14.49-7.99,14.18-27.45,15.39-41.74,12.13-6.2-1.52-11.65-4.37-15.23-9.86-3.19-4.88-5.01-10.28-5.01-16.18,0-6.31-.04-12.61.01-18.92.05-5.54,1.57-10.75,4.22-15.58,2.94-5.36,7.6-8.73,13.37-10.56,9.97-3.21,23.65-3.16,31.54,4.66.29.31.53.95,1.02.75.46-.19.31-.82.27-1.25-.47-10.15-.07-20.32-.19-30.49,0-3.03.01-3.04,2.97-3.05,3.7-.01,7.41,0,11.11,0,1.64,0,1.77.13,1.77,1.78,0,12.12,0,24.23,0,36.35,0,0-.02,0-.03,0Zm-15.86,26.59c-.02-7.87,1.25-18.81-8.38-21.44-6.17-1.6-12.85-1.72-18.92.42-6.21,2.07-7.22,8.91-7.24,14.63-.14,5.55-.06,11.12.23,16.67.26,6,3.16,9.97,9.1,11.32,3.55,1.02,7.19.48,10.8.59,2.37.07,4.62-.44,6.85-1.16,9.06-2.78,7.42-13.58,7.56-21.04Z" />
    <path class="b"
      d="m730.59,88.99c-7.03,0-14.07.02-21.1-.02-1.16,0-1.56.41-1.57,1.51-.41,7.42,2.79,12.25,10.14,13.82,4.86,1.16,9.75.79,14.64.59,5.16-.22,10.23-1.09,15.24-2.34,1.21-.3,2.35-.8,3.63-.84.69-.02,1.03.13,1.03.85,0,4.11,0,8.21-.02,12.32,0,.89-.47,1.35-1.37,1.65-9.45,3.1-19.18,4.07-29.05,3.52-10.4-.59-21.25-3.76-26.53-13.53-2.3-3.87-2.96-8.2-3.29-12.52-.56-7.4-.58-14.85.02-22.25.53-9.18,5.21-18.82,14.08-22.63,8.13-3.52,16.56-4.34,25.28-2.93,11.7,1.65,20.21,8.76,22.4,20.51,1.52,7.1,1.34,14.15-.51,21.18-.36,1.6-2.23,1.01-3.42,1.14-6.53,0-13.07,0-19.6,0v-.02Zm-4.91-13.08c5.08,0,8.91-.03,12.73.02,1.23.02,1.65-.51,1.57-1.64-.08-1.16-.17-2.31-.22-3.47-.32-11.8-15.64-13.32-24.33-10.05-6.37,2.21-7.62,7.25-7.53,13.51-.04,1.11.42,1.4,1.47,1.42,5.86.09,11.71.33,16.31.21Z" />
    <path class="b"
      d="m445.64,88.95c-6.91,0-13.82.02-20.73-.02-1.15,0-1.56.35-1.51,1.5.09,1.9-.06,3.81.44,5.69,1.76,7.29,9.71,8.88,16.21,8.98,8.8.13,17.72-.51,26.1-3.32,1.31-.51,1.73-.13,1.73,1.28,0,3.78-.04,7.55.02,11.33.02,1.31-.49,1.92-1.74,2.28-6.22,1.76-12.49,3.02-18.98,3.31-17.91.82-36.96-2.86-39.01-24.02-1.02-9.88-1.28-19.78.71-29.59,3.36-18.61,24.11-23.07,40.21-19.8,19.81,3.52,24.03,23.25,20.29,40.46-.39,2.64-3.1,1.76-5.02,1.97-6.24,0-12.49,0-18.73,0,0-.01,0-.02,0-.03Zm-5.24-13.04c4.53,0,9.06-.02,13.59.01,1.11,0,1.62-.34,1.53-1.51-.08-.99.04-1.99-.02-2.98-.29-4.75-2.22-8.46-6.81-10.39-6.17-2.59-12.41-2.56-18.55,0-3.55,1.48-5.79,4.2-6.43,8.11-.26,1.57-.3,3.13-.29,4.7.01,1.57.16,1.7,1.78,1.89,5.05.38,10.14.07,15.21.17Z" />
    <path class="b"
      d="m934.4,82.94c-.43,10.9,2.66,24.34-7.53,31.79-3.74,2.74-8.1,3.97-12.63,4.67-5.28.82-10.59,1.25-15.91.69-17.44-1.36-26.72-10.36-23.71-28.38,1.59-10.02,12.3-14.84,21.47-15.49,6.3-.59,12.64-.11,18.96-.53.46-.03.92,0,1.37.01q2.17.07,2.17-2.08c0-1.66,0-3.32,0-4.98-.08-7.62-7.81-9.36-14.09-9.29-4.32.09-8.66-.27-12.95.56-2.44.47-4.97.57-7.29,1.58-.41.18-.88.25-1.33.33-.82.13-1.31-.23-1.31-1.07,0-3.78,0-7.55.03-11.33,0-.84.44-1.35,1.28-1.6,3.4-1.03,6.88-1.47,10.41-1.84,11.73-1.1,31.18-.79,37.92,10.55,3.7,5.83,3.18,13,3.14,19.57.06,2.28,0,4.56,0,6.85Zm-24.67,5.1c-6.49.22-17.92-1.41-19.61,7.29-1.19,5.46,1.79,10.09,7.38,10.92,4.51.63,9.07.71,13.53-.25,9.41-2.07,7.34-9.11,7.56-16.73,0-.9-.32-1.25-1.25-1.24-2.54.04-5.08.01-7.61.01Z" />
    <path class="b"
      d="m540.78,80c0,4.89.04,9.79-.02,14.68-.03,2.33.37,4.53,1.48,6.59,3.45,6.64,19.54,3.3,25.35,1.29,1.07-.37,1.56.04,1.55,1.18-.03,3.52-.05,7.05-.07,10.57-.01,2.52,0,2.56-2.33,3.34-8.49,2.83-17.12,3.3-25.79,1.11-12.58-2.85-16.57-15.51-16.23-27.04-.01-9.29,0-18.58,0-27.88,0-1.76,0-1.77-1.81-1.78-2.87-.01-5.74,0-8.61-.02-1.72-.02-1.82-.15-1.82-1.87,0-3.03.04-6.06-.02-9.08-.02-1.08.4-1.62,1.43-1.81,3.31-.57,6.62-1.2,9.93-1.75.73-.1,1.07-.51,1.16-1.23.66-5.09,1.36-10.18,2-15.28.29-2.32.36-2.43,2.64-2.43,3.04,0,6.08,0,9.11-.02,1.91,0,2.09.16,2.08,2.02,0,4.89,0,9.79,0,14.68,0,1.73.01,1.73,1.81,1.73,7.12,0,14.23,0,21.35,0,2.24,0,2.57.33,2.59,2.61.03,3.53.01,7.05,0,10.58,0,1.56-.37,1.87-1.95,1.86-7.41-.01-14.81-.02-22.22-.03-1.53,0-1.59.07-1.59,1.64,0,5.43,0,10.87,0,16.3h-.01Z" />
    <path class="b"
      d="m498.12,57.82c.18,13.8-.38,27.64.28,41.42.41,6.3,5.65,5.7,10.48,5.33.99-.06,1.45.36,1.45,1.38-.02,3.69-.02,7.38-.02,11.07,0,.9-.36,1.45-1.25,1.75-5.62,1.78-11.91,1.32-17.26-1.13-10.95-5.43-9.65-18.74-9.78-29.05-.14-22.89.11-45.79,0-68.66-.12-1.56.12-1.75,1.66-1.76,4.29-.01,8.57.03,12.86,0,1.26-.01,1.62.47,1.62,1.7-.04,12.65-.02,25.3-.02,37.95h-.02Z" />
    <path class="b"
      d="m862.8,83.02c0,11.49,0,22.99.02,34.48,0,.8-.24,1.11-1.05,1.15-4.66.28-9.31.25-13.97-.03-.88-.05-1.2-.37-1.2-1.3.02-22.45.02-44.9,0-67.35,0-2.31.61-2.94,2.96-2.95,3.87-.01,7.74,0,11.61,0,1.53,0,1.6.08,1.6,1.63,0,11.45,0,22.91,0,34.36h.01Z" />
    <path class="b"
      d="m864.51,25.83c-.16,6.16-4.59,9.96-9.63,9.78-12.97-.29-12.57-18.2-.42-19.06,5.81-.14,9.86,4.56,10.05,9.28Z" />
  </g>
</svg>