<?xml version="1.0" encoding="utf-8"?>
<!-- Generator: Adobe Illustrator 27.4.1, SVG Export Plug-In . SVG Version: 6.00 Build 0)  -->
<svg version="1.1" id="Layer_1" xmlns="http://www.w3.org/2000/svg" xmlns:xlink="http://www.w3.org/1999/xlink" x="0px" y="0px"
	 viewBox="0 0 300 110" style="enable-background:new 0 0 300 110;" xml:space="preserve">
<style type="text/css">
	.st0{fill:#E57150;}
	.st1{fill:#FFFFFF;}
</style>
<path class="st0" d="M61.2,55.6c0.2-5.2-1-10.4-3.2-15.1C51.2,26,36,16.1,30.3,11.9c-0.4-0.3-1.1-0.2-1.4,0.2
	c-0.1,0.2-0.2,0.5-0.2,0.7c1,4.5-1.8,20.3-8.7,21.7c-2.7,0.6-4.7-2.3-3.3-6.4c0.1-0.5-0.2-0.9-0.7-1c-0.2-0.1-0.5,0-0.7,0.1
	C-1.3,38,0,52.5,0,55.2v0.4c0.5,10.5,6,18.8,14.3,23.3L0.2,93.2c-0.3,0.3-0.3,0.7,0,0.9c0.1,0.1,0.3,0.2,0.5,0.2h22.2
	c0.2,0,0.4-0.1,0.5-0.2l6.7-5.9c0.3-0.2,0.7-0.2,0.9,0l6.7,5.9c0.1,0.1,0.3,0.2,0.5,0.2h22.2c0.4,0,0.7-0.3,0.7-0.7
	c0-0.2-0.1-0.3-0.2-0.5L46.6,78.9C55.2,74.3,60.8,65.4,61.2,55.6L61.2,55.6z M30.6,68.5c-5.9,0-10.7-4.8-10.7-10.6
	s4.8-10.7,10.6-10.7c5.9,0,10.7,4.8,10.7,10.6l0,0C41.3,63.8,36.5,68.5,30.6,68.5z"/>
<g>
	<path class="st1" d="M96.8,50.9h8.3c0.2,0,0.4,0.2,0.4,0.4v6.6c0,0.2-0.2,0.4-0.4,0.4h-8.9c-0.2,0-0.4,0.2-0.4,0.4v12.4
		c0,2.7,1.2,3.5,3.6,3.5c0.6,0,1.3,0,1.9-0.1c0.3,0,0.6,0.2,0.7,0.5c0,0,0,0.1,0,0.1v5.7c0,0.2-0.2,0.5-0.4,0.6
		c-1.4,0.4-2.8,0.6-4.3,0.6c-6,0-9.7-3.5-9.7-9.4V58.7c0-0.2-0.2-0.4-0.4-0.4h-4.8c-0.2,0-0.4-0.2-0.4-0.4l0,0v-6.6
		c0-0.2,0.2-0.4,0.4-0.4h1.2c3.2,0,4.7-2.1,4.7-4.9v-3.7c0-0.3,0.3-0.6,0.6-0.6h6.3c0.3,0,0.6,0.3,0.6,0.6v7.6
		C95.8,50.5,96.2,50.9,96.8,50.9C96.8,50.9,96.8,50.9,96.8,50.9z"/>
	<path class="st1" d="M116,81.5h-7.1c-0.3,0-0.6-0.3-0.6-0.6V37.1c0-0.3,0.3-0.6,0.6-0.6h7.1c0.3,0,0.6,0.3,0.6,0.6v14.3
		c0,0.5,0.4,0.9,1,0.9c0.2,0,0.4-0.1,0.6-0.2c2-1.3,4.4-2,6.8-2c7.8,0,11.4,5.4,11.4,12.1V81c0,0.3-0.3,0.6-0.6,0.6h-7.1
		c-0.3,0-0.6-0.3-0.6-0.6V63.7c0-3.4-1.7-6.1-5.7-6.1c-3.5,0-5.5,2.6-5.7,5.9v17.4C116.6,81.3,116.4,81.5,116,81.5z"/>
	<path class="st1" d="M272.8,59.1c-0.8-0.2-1.7-0.3-2.5-0.2c-4.2,0-7.9,2.1-7.9,8.6V81c0,0.3-0.3,0.6-0.6,0.6h-7.1
		c-0.3,0-0.6-0.3-0.6-0.6V51.5c0-0.3,0.3-0.6,0.6-0.6h6.9c0.3,0,0.6,0.3,0.6,0.6v3.1c0,0.1,0.1,0.2,0.2,0.2c0.1,0,0.1,0,0.2-0.1
		c2-3.4,5.9-4,8.3-4c0.5,0,0.9,0,1.4,0.1c0.3,0,0.5,0.3,0.5,0.6C272.7,51.3,272.8,59.1,272.8,59.1z"/>
	<path class="st1" d="M290.9,50.9h8.5c0.3,0,0.6,0.3,0.6,0.6v6.2c0,0.3-0.3,0.6-0.6,0.6h-8.5c-0.3,0-0.6,0.3-0.6,0.6v12.3
		c0,2.7,1.2,3.5,3.6,3.5c0.6,0,1.3,0,1.9-0.1c0.3,0,0.6,0.2,0.7,0.5c0,0,0,0.1,0,0.1v5.7c0,0.2-0.2,0.5-0.4,0.6
		c-1.4,0.4-2.8,0.6-4.3,0.6c-6,0-9.7-3.5-9.7-9.4V58.9c0-0.3-0.3-0.6-0.6-0.6h-5.4c-0.3,0-0.6-0.3-0.6-0.6v-6.2
		c0-0.3,0.3-0.6,0.6-0.6h2c3.2,0,4.7-2.1,4.7-4.9v-3.7c0-0.3,0.3-0.6,0.6-0.6h6.3c0.3,0,0.6,0.3,0.6,0.6v8
		C290.3,50.7,290.6,50.9,290.9,50.9C290.9,50.9,290.9,50.9,290.9,50.9z"/>
	<path class="st1" d="M168.5,72.6c0.3,0.1,0.5,0.4,0.4,0.7c0,0,0,0,0,0.1c-0.9,2.3-2.4,4.2-4.3,5.7c-1.7,1.3-3.6,2.2-5.7,2.8
		c-8.1,2.2-16.8-1.7-19.5-11.7c-2.6-9.4,2.8-17.4,10.3-19.5c9.1-2.5,16.2,1.9,18.7,11.4c0.1,0.5,0.2,0.8,0.2,1
		c0.1,0.3-0.1,0.6-0.4,0.7l-19.7,7.1c-0.3,0.1-0.5,0.5-0.4,0.8c0,0,0,0,0,0.1c1.6,3.2,5.1,4.3,8.9,3.3c1.2-0.3,2.3-0.9,3.3-1.7
		c0.7-0.6,1.2-1.3,1.5-2.1c0.1-0.3,0.4-0.4,0.7-0.3L168.5,72.6L168.5,72.6z M159.7,60.6c0.1,0,0.2-0.1,0.1-0.2c0,0,0,0,0,0
		c-1.2-2.7-4.1-4.7-8.4-3.1c-3.3,1.1-5.2,4.5-4.4,7.8c0,0.1,0.1,0.2,0.2,0.1c0,0,0,0,0,0L159.7,60.6L159.7,60.6z"/>
	<path class="st1" d="M216.2,76V37.1c0-0.3-0.3-0.6-0.6-0.6h-7c-0.3,0-0.6,0.3-0.6,0.6v14.3c0,0.4-0.3,0.7-0.7,0.7
		c-0.1,0-0.2,0-0.3-0.1c-7.8-4.4-17.7-1.6-22.1,6.2c-4.4,7.8-1.6,17.7,6.2,22.1c2.4,1.4,5.2,2.1,8,2.1c3,0,6-0.8,8.5-2.5
		c0.3-0.2,0.6-0.1,0.8,0.2c0.1,0.1,0.1,0.2,0.1,0.3c0,0.6,0.5,1,1,1h6.2c0.3,0,0.6-0.3,0.6-0.6c0,0,0,0,0,0
		C216.3,79.6,216.2,77.7,216.2,76L216.2,76z M200.7,74.9c-4.8,0.6-9.2-2.8-9.8-7.6c-0.6-4.8,2.8-9.2,7.6-9.8
		c4.8-0.6,9.2,2.8,9.8,7.6c0.1,0.8,0.1,1.5,0,2.3C207.8,71.3,204.7,74.4,200.7,74.9L200.7,74.9z"/>
	<path class="st1" d="M223.5,92.4c-0.3,0.2-0.4,0.7-0.1,1l0.1,0.1c0.9,1.1,2,2,3.1,2.7c1.2,0.7,2.5,1.2,3.9,1.6
		c1.4,0.3,2.9,0.5,4.4,0.5c1.9,0,3.7-0.3,5.5-0.8c1.6-0.5,3.2-1.3,4.5-2.4c1.4-1.1,2.5-2.6,3.2-4.3c0.8-2,1.2-4.1,1.2-6.2V70
		c0.1-0.6,0.1-1.1,0.1-1.7V51.6c0-0.4-0.3-0.7-0.7-0.7h-6.7c-0.4,0-0.7,0.3-0.7,0.7c0,0,0,0,0,0V67c0,2.3-0.6,4.4-1.7,5.5
		c-2.6,2.2-6.4,2.2-9,0c-1.1-1.1-1.7-3.2-1.7-5.5V51.6c0-0.4-0.3-0.7-0.7-0.7h-6.7c-0.4,0-0.7,0.3-0.7,0.7v16.7
		c0,1.7,0.2,3.4,0.8,5.1c0.4,1.4,1.2,2.7,2.1,3.9c0.9,1.1,2,2,3.1,2.7c1.2,0.7,2.5,1.2,3.9,1.6c0,0,5.4,1.5,9.6-2.1
		c0.2-0.2,0.6-0.1,0.8,0.1c0.1,0.1,0.1,0.2,0.1,0.4v4c0,2.3-0.6,4-1.7,5.2c-2.6,2.2-6.4,2.2-9,0c-0.2-0.2-0.4-0.5-0.6-0.7
		c-0.2-0.3-0.7-0.4-1-0.2c0,0,0,0-0.1,0L223.5,92.4L223.5,92.4z"/>
</g>
</svg>
