<?xml version="1.0" encoding="UTF-8"?>
<svg xmlns="http://www.w3.org/2000/svg" viewBox="0 0 572.03 165.07">
  <path fill="#e57150"
    d="m116.76,83.7c.29-9.93-1.82-19.79-6.17-28.73C97.72,27.32,68.72,8.29,57.8.36c-.85-.62-2.04-.43-2.65.43-.28.39-.41.87-.35,1.34,2,8.55-3.52,38.63-16.64,41.44-5.14,1.11-8.92-4.34-6.38-12.21.2-.9-.36-1.79-1.26-1.99-.47-.11-.97,0-1.36.28C-2.54,50.17-.02,77.73.09,82.87v.83c1,20,11.53,35.89,27.29,44.41L.38,155.32c-.49.49-.48,1.28,0,1.77.23.23.55.36.88.36h42.3c.34,0,.67-.15.91-.39l12.76-11.31c.49-.44,1.24-.44,1.73,0l12.77,11.31c.24.25.57.39.91.39h42.26c.69,0,1.25-.57,1.24-1.26,0-.33-.13-.64-.36-.87l-27-27.21c16.49-8.84,27.12-25.71,27.97-44.41Zm-58.34,24.64c-11.22,0-20.31-9.08-20.32-20.3s9.08-20.31,20.3-20.32c11.22,0,20.31,9.08,20.32,20.3h0c0,11.22-9.09,20.31-20.3,20.32Z" />
  <g fill="#ffffff">
    <path
      d="m184.55,74.76h15.77c.41,0,.73.33.74.74v12.52c0,.41-.33.74-.74.74h-16.95c-.41,0-.74.34-.74.75v23.73c0,5.09,2.37,6.76,6.88,6.76,1.21,0,2.41-.09,3.61-.24.6-.09,1.15.32,1.24.92,0,.06.01.12.01.18v10.94c0,.47-.29.89-.73,1.06-2.64.83-5.4,1.22-8.16,1.15-11.39,0-18.51-6.76-18.51-18v-26.5c0-.41-.33-.74-.74-.75h-9.08c-.41,0-.74-.33-.74-.74h0v-12.52c0-.41.33-.74.74-.74h2.23c6.16,0,9-4,9-9.26v-7.07c0-.62.5-1.12,1.12-1.12h12c.62,0,1.12.5,1.12,1.12v14.4c-.02,1.04.81,1.91,1.85,1.93.03,0,.05,0,.08,0Z" />
    <path
      d="m221.27,133.13h-13.54c-.62,0-1.12-.5-1.12-1.12V48.36c0-.62.5-1.12,1.12-1.12h13.54c.62,0,1.12.5,1.12,1.12v27.21c.01,1,.83,1.8,1.83,1.79.38,0,.75-.13,1.05-.35,3.82-2.52,8.31-3.83,12.89-3.77,14.83,0,21.75,10.31,21.75,23.12v35.66c0,.62-.5,1.12-1.12,1.12h-13.57c-.62,0-1.12-.5-1.12-1.12v-32.93c0-6.52-3.21-11.63-10.79-11.63-6.63,0-10.54,5-10.91,11.34v33.21c-.01.62-.51,1.11-1.13,1.12Z" />
    <path
      d="m520.07,90.43c-1.56-.32-3.15-.48-4.74-.47-8.07,0-15.07,3.91-15.07,16.48v25.58c0,.62-.5,1.12-1.12,1.12h-13.55c-.62,0-1.12-.5-1.12-1.12v-56.14c0-.62.5-1.12,1.12-1.12h13.07c.62,0,1.12.5,1.12,1.12v5.86c0,.23.19.42.43.41.15,0,.28-.08.35-.2,3.86-6.41,11.19-7.66,15.83-7.66.93,0,1.81.06,2.66.14.57.06,1,.54,1,1.11l.02,14.89Z" />
    <path
      d="m554.67,74.76h16.24c.62,0,1.12.5,1.12,1.12v11.77c0,.61-.51,1.11-1.12,1.11h-16.2c-.62,0-1.12.5-1.12,1.12v23.36c0,5.09,2.37,6.76,6.89,6.76,1.2,0,2.41-.09,3.6-.24.6-.09,1.16.33,1.25.93,0,.06.01.11.01.17v10.94c0,.47-.29.9-.74,1.06-2.64.83-5.4,1.22-8.16,1.15-11.38,0-18.5-6.76-18.5-18v-26.13c0-.62-.5-1.12-1.12-1.12h-10.37c-.61,0-1.11-.5-1.12-1.11v-11.77c0-.62.5-1.12,1.12-1.12h3.85c6.17,0,9-4,9-9.26v-7.07c0-.62.5-1.12,1.12-1.12h12c.62,0,1.12.5,1.12,1.12v15.21c-.01.61.47,1.11,1.08,1.12.02,0,.03,0,.05,0Z" />
    <path
      d="m321.37,116.07c.59.16.93.76.77,1.35,0,.03-.02.07-.03.1-1.69,4.31-4.52,8.08-8.2,10.89-3.25,2.46-6.95,4.25-10.89,5.26-15.46,4.16-32.09-3.26-37.22-22.28-4.89-17.99,5.27-33.25,19.7-37.15,17.41-4.69,30.84,3.61,35.72,21.7.24.88.36,1.48.45,1.88.1.54-.21,1.07-.72,1.25l-37.62,13.57c-.59.22-.89.87-.68,1.46.01.04.03.07.05.11,3.06,6.1,9.76,8.29,16.89,6.36,2.32-.57,4.48-1.66,6.32-3.19,1.25-1.09,2.25-2.43,2.94-3.94.23-.49.79-.75,1.31-.59l11.21,3.22Zm-16.94-22.94c.19-.07.3-.28.23-.47,0-.01,0-.02-.01-.03-2.33-5.18-7.8-9-16.07-5.91-6.24,2.05-9.87,8.53-8.37,14.92.06.2.27.32.47.26,0,0,.01,0,.02,0l23.73-8.76Z" />
    <path
      d="m412.33,122.58V48.36c0-.61-.5-1.11-1.11-1.12h-13.31c-.61,0-1.11.51-1.11,1.12v27.34c0,.75-.62,1.34-1.36,1.34-.22,0-.44-.06-.64-.17-14.94-8.36-33.83-3.03-42.19,11.91s-3.03,33.83,11.91,42.19c4.65,2.61,9.9,3.97,15.23,3.95,5.76,0,11.41-1.62,16.3-4.68.51-.32,1.18-.15,1.5.36.1.16.16.35.16.54,0,1.1.9,2,2,2h11.87c.61,0,1.11-.49,1.11-1.11,0-.03,0-.06,0-.09-.18-2.47-.36-6.04-.36-9.36Zm-29.56-2.11c-9.17,1.2-17.57-5.25-18.78-14.42s5.25-17.57,14.42-18.78c9.17-1.2,17.57,5.25,18.78,14.42.19,1.45.19,2.91,0,4.36-.99,7.52-6.9,13.43-14.42,14.42h0Z" />
    <path
      d="m426.1,153.91c-.58.47-.67,1.33-.2,1.91l.14.18c1.7,2.01,3.73,3.73,6,5.07,2.33,1.37,4.86,2.38,7.49,3,2.76.66,5.59,1,8.43,1,3.53.03,7.05-.49,10.42-1.55,3.14-1,6.07-2.57,8.65-4.63,2.67-2.19,4.75-5.01,6.06-8.21,1.53-3.73,2.28-7.74,2.2-11.77v-27.79c.1-1.06.15-2.14.15-3.25v-31.82c0-.75-.62-1.36-1.37-1.37h-12.76c-.76-.01-1.39.6-1.4,1.36,0,0,0,0,0,.01v29.43c0,4.42-1.08,8.43-3.23,10.56-4.94,4.27-12.26,4.27-17.2,0-2.15-2.13-3.23-6.14-3.23-10.56v-29.43c0-.75-.6-1.35-1.34-1.37h-12.84c-.75,0-1.36.62-1.37,1.37v31.83c-.03,3.29.46,6.56,1.47,9.69.85,2.7,2.21,5.22,4,7.41,1.7,2.02,3.73,3.74,6,5.08,2.33,1.37,4.86,2.38,7.49,3,0,0,10.34,2.92,18.33-4,.47-.36,1.15-.28,1.51.19.15.2.23.44.23.69v7.58c0,4.42-1.07,7.69-3.22,9.82-4.94,4.27-12.26,4.27-17.2,0-.45-.43-.84-.91-1.17-1.43-.41-.64-1.26-.82-1.89-.41-.04.02-.07.05-.11.08l-10.04,8.33Z" />
  </g>
</svg>