<?xml version="1.0" encoding="utf-8"?>
<!-- Generator: Adobe Illustrator 27.4.1, SVG Export Plug-In . SVG Version: 6.00 Build 0)  -->
<svg version="1.1" id="Layer_1" xmlns="http://www.w3.org/2000/svg" xmlns:xlink="http://www.w3.org/1999/xlink" x="0px" y="0px"
	 viewBox="0 0 300 110" style="enable-background:new 0 0 300 110;" xml:space="preserve">
<style type="text/css">
	.st0{fill:#FFFFFF;}
</style>
<path class="st0" d="M170.1,89.5c0,0,0.7-0.8,0.7-2.3c0-1.9-1.4-4-4-4c-2.4,0-4.1,1.9-4.1,4.4c0,3.4,3.4,5.2,6.9,5.2
	c6.1,0,10.1-3.9,13.6-12.2l11-26h3.5v-4.3H185v4.3h4.5l-7.9,19.9l-7.9-19.9h5.3v-4.3h-17.3v4.3h4.2l12,27.1
	C175.6,87.5,173.9,89,170.1,89.5L170.1,89.5L170.1,89.5z M274.4,50.2h-11.7v4.3h4.8v22.2h-4.8v4.3h16.2v-4.3h-4.2V64.1
	c0-5.9,4-9.6,7.7-9.6c3.4,0,5.6,2.5,5.6,6.9v15.3h-4.2v4.3H300v-4.3h-4.9V59.5c0-6.3-3.2-10-8.6-10c-4.7,0-9.1,1.8-12.1,7.2
	L274.4,50.2L274.4,50.2z M237,65.6c0-9.2,2.5-12.8,8-12.8s8,3.6,8,12.8s-2.5,12.8-8,12.8S237,74.8,237,65.6z M261,65.6
	c0-9.6-6.5-16.1-16-16.1s-16,6.5-16,16.1s6.5,16.1,16,16.1S261,75.2,261,65.6L261,65.6z M211,49.5c-6.3,0-10.8,4.1-10.8,9.5
	c0,4.9,2.9,7.5,10.6,9.5c5.9,1.5,8.5,2.8,8.5,5.9c0,2.7-1.9,4.3-5.2,4.3c-4.1,0-8.2-3.1-10.5-8h-4v11h3.8l1-4.7
	c2,2.6,5.1,4.7,9.9,4.7c7.3,0,11.2-5,11.2-9.7c0-5.6-4-7.8-10.9-9.6c-5.5-1.4-8.3-2.7-8.3-5.7c0-2.4,2-4.3,4.9-4.3
	c4.5,0,7,3.6,9,7.3h3.9V49.5h-3.8l-0.9,4.3C217.9,51.4,215.2,49.5,211,49.5L211,49.5z M121.5,35.5v11.8h3.4c1.2-6.7,2.6-7.4,9.5-7.4
	h5.3v37h-9.1v4.3H156v-4.3h-9v-37h5.3c6.9,0,8.3,0.8,9.5,7.4h3.4V35.5H121.5L121.5,35.5z M45.5,57h-5.8c-1.4,0-2.6-1.2-2.6-2.6h-3.6
	c0,1.2,0.3,2.3,0.9,3.3h-0.6c-1.8,0-3.3-1.5-3.3-3.3H27c0,1.8,0.8,3.4,2,4.5c-1.3,1.2-2,2.8-2,4.5h3.6c0-1.8,1.5-3.3,3.3-3.3h0.6
	c-0.6,1-0.9,2.1-0.9,3.3h3.6c0-1.4,1.2-2.6,2.6-2.6h5.8V57L45.5,57z M67.9,84.4v-5.1H56.7V35.5h6.7c8.1,0,9.8,0.9,11.2,8.8h4V30.4
	H27v13.9h4c1.4-7.9,3.1-8.8,11.2-8.8h6.7v43.8H37.8v5.1H67.9z M73.9,53.9h-2.8V57h-11v3.9h11V64h2.8c0.7-2,2.6-3.4,4.8-3.4v-3.3
	C76.5,57.3,74.6,56,73.9,53.9L73.9,53.9z M52.8,7.9C26.8,7.9,5.7,29,5.7,55c-0.3,26,20.5,47.3,46.6,47.6s47.3-20.5,47.6-46.6
	c0-0.4,0-0.7,0-1.1C99.9,29,78.8,7.9,52.8,7.9C52.8,7.9,52.8,7.9,52.8,7.9L52.8,7.9L52.8,7.9z M105.6,55c0,29.2-23.6,52.8-52.8,52.8
	C23.6,107.8,0,84.2,0,55C0,25.8,23.7,2.2,52.8,2.2C82,2.2,105.6,25.8,105.6,55L105.6,55z M98.4,102.1l-1.2,3.8l-1.3-3.8h-1.5v5.1
	h0.9v-4.1l1.4,4.1h0.8l1.4-4.1v4.1h0.9v-5.1H98.4L98.4,102.1z M89.5,102.1h4.2v0.8h-1.6v4.3h-1v-4.3h-1.6"/>
</svg>
