<svg xmlns="http://www.w3.org/2000/svg" viewBox="0 0 100 100">

  <title>Brad Waropay</title>

  <g>

    <path d="M60.71,78.45q-0.53.57-1,1.17t-0.83,1.16a7.1,7.1,0,0,0-.56,1,2.12,2.12,0,0,0-.21.79,0.47,0.47,0,0,0,.55.51,2,2,0,0,0,1.09-.33,4,4,0,0,0,.94-0.88,7.54,7.54,0,0,0,.79-1.24,13.75,13.75,0,0,0,.63-1.43q0.27-.73.46-1.43t0.3-1.24a10,10,0,0,0-1.09.85Q61.23,77.88,60.71,78.45Z"/>
    <path d="M50.15,63.58a6.8,6.8,0,0,0-.87,1.09A8.5,8.5,0,0,0,48.6,66a8.13,8.13,0,0,0-.44,1.36A5.74,5.74,0,0,0,48,68.62a4.45,4.45,0,0,0,0,.66,2,2,0,0,0,.17.57,1.12,1.12,0,0,0,.33.41,0.83,0.83,0,0,0,.52.16A1.23,1.23,0,0,0,50,70a4.27,4.27,0,0,0,.71-1.05,7.56,7.56,0,0,0,.49-1.27,7.69,7.69,0,0,0,.24-1.09l0.83-4a2.33,2.33,0,0,0-1.09.28A4.06,4.06,0,0,0,50.15,63.58Z"/>
    <path d="M57.91,31.58A6.76,6.76,0,0,0,57,32.68,8.42,8.42,0,0,0,56.36,34a8.24,8.24,0,0,0-.45,1.36,5.82,5.82,0,0,0-.16,1.29,4.58,4.58,0,0,0,0,.66,2,2,0,0,0,.17.57,1.12,1.12,0,0,0,.33.41,0.83,0.83,0,0,0,.52.16A1.23,1.23,0,0,0,57.74,38a4.28,4.28,0,0,0,.71-1.05,7.64,7.64,0,0,0,.48-1.27,7.85,7.85,0,0,0,.24-1.09l0.83-4a2.32,2.32,0,0,0-1.09.28A4.09,4.09,0,0,0,57.91,31.58Z"/>
    <path d="M57,47.41a1.76,1.76,0,0,0-.49-0.63,1.15,1.15,0,0,0-.72-0.23,1.54,1.54,0,0,0-1.07.48,4.45,4.45,0,0,0-.89,1.22A7.81,7.81,0,0,0,53,51.63a5,5,0,0,0,.11,1.08,2.74,2.74,0,0,0,.34.88,1.71,1.71,0,0,0,1.53.83,1.25,1.25,0,0,0,.9-0.47,4.48,4.48,0,0,0,.77-1.19,8.1,8.1,0,0,0,.53-1.59,7.43,7.43,0,0,0,.2-1.66,6.84,6.84,0,0,0-.1-1.17A3.65,3.65,0,0,0,57,47.41Z"/>
    <path d="M43.25,52.84a5.61,5.61,0,0,0-1.94-1.08,9.44,9.44,0,0,0-3.06-.42,5.82,5.82,0,0,0-2.5.53,6.75,6.75,0,0,0-2,1.43,9.28,9.28,0,0,0-1.52,2.11A14.3,14.3,0,0,0,31.17,58a17.76,17.76,0,0,0-.62,2.8,20.61,20.61,0,0,0-.2,2.81q0,0.56,0,1.51t0.08,2q0.07,1.08.22,2.19a11.27,11.27,0,0,0,.44,2,4.77,4.77,0,0,0,.74,1.46,1.36,1.36,0,0,0,1.11.57,1.63,1.63,0,0,0,1.19-.49A3.86,3.86,0,0,0,35,71.59a8.82,8.82,0,0,0,.52-1.75q0.19-1,.29-2c0.06-.66.14-1.28,0.16-1.88S36,64.89,36,64.47V63.83A8,8,0,0,1,34.18,63a4.56,4.56,0,0,1-1-.66,1.44,1.44,0,0,1-.43-0.66,3.29,3.29,0,0,1-.09-0.81c0-.16,0-0.33,0-0.49A1.63,1.63,0,0,1,32.74,60a0.75,0.75,0,0,1,.18-0.3,0.43,0.43,0,0,1,.32-0.12,0.59,0.59,0,0,1,.25.05l0.29,0.15q0.45,0.25.82,0.4l0.63,0.25a4.31,4.31,0,0,0,.55.16c0-.12,0-0.35,0-0.7s0-.75.08-1.2a11.38,11.38,0,0,1,.25-1.42,5.33,5.33,0,0,1,.52-1.35,3.14,3.14,0,0,1,.89-1,2.22,2.22,0,0,1,1.35-.4,2.76,2.76,0,0,1,.51,0,1.37,1.37,0,0,1,.47.18,1.14,1.14,0,0,1,.36.35,1,1,0,0,1,.14.56,0.82,0.82,0,0,1,0,.13,0.44,0.44,0,0,0,0,.09l-0.83,3.51-0.12,1.08a8.56,8.56,0,0,0,2.31-.66,5.8,5.8,0,0,0,1.61-1.07,4,4,0,0,0,.94-1.35,3.91,3.91,0,0,0,.31-1.52,4.52,4.52,0,0,0-.29-1.57A3.68,3.68,0,0,0,43.25,52.84Z"/>
    <path d="M50,0a50,50,0,1,0,50,50A50,50,0,0,0,50,0Zm0,97A47,47,0,1,1,97,50,47.05,47.05,0,0,1,50,97Z"/>
    <path d="M50,5A45,45,0,1,0,95,50,45.05,45.05,0,0,0,50,5ZM39.31,63.67q0,1-.07,1.83l0,0.71c0,0.24,0,.45,0,0.65s0,0.37,0,.51,0,0.25,0,.3a12.52,12.52,0,0,1-.23,2,12,12,0,0,1-.57,2,11.29,11.29,0,0,1-.92,1.87,7.24,7.24,0,0,1-1.26,1.54,5.76,5.76,0,0,1-1.61,1.05,4.78,4.78,0,0,1-1.94.39,3.56,3.56,0,0,1-2-.58,5.56,5.56,0,0,1-1.54-1.57A10.12,10.12,0,0,1,28,72.12a19.8,19.8,0,0,1-.75-2.69,25.67,25.67,0,0,1-.42-2.82q-0.13-1.42-.13-2.68a21.47,21.47,0,0,1,.4-4.17A19.36,19.36,0,0,1,28.22,56,15.92,15.92,0,0,1,30,52.78a12.46,12.46,0,0,1,2.37-2.49,10.38,10.38,0,0,1,2.87-1.61,9.54,9.54,0,0,1,3.3-.57,11.89,11.89,0,0,1,4,.62,8.61,8.61,0,0,1,2.88,1.65,6.82,6.82,0,0,1,1.73,2.37,6.91,6.91,0,0,1,.58,2.78,7.16,7.16,0,0,1-.52,2.65,7.58,7.58,0,0,1-1.57,2.42A9.48,9.48,0,0,1,43,62.53,12.38,12.38,0,0,1,39.31,63.67Zm32.41,6.9q-0.39.44-.86,0.89t-1,.86q-0.51.42-1,.79-1.16.87-2.5,1.7-0.26,1.46-.62,2.85a21,21,0,0,1-.84,2.6,14.59,14.59,0,0,1-1.11,2.22A8.14,8.14,0,0,1,62.4,84.2a5.92,5.92,0,0,1-1.76,1.13,5.55,5.55,0,0,1-2.15.4,5.82,5.82,0,0,1-1-.1,2.77,2.77,0,0,1-1-.38,2.24,2.24,0,0,1-.76-0.82,2.89,2.89,0,0,1-.3-1.42,3.73,3.73,0,0,1,.31-1.39A10.19,10.19,0,0,1,56.61,80a19.37,19.37,0,0,1,1.3-1.78q0.75-.92,1.63-1.84t1.85-1.8q1-.89,1.95-1.7l0.37-1.27a7.19,7.19,0,0,1-1.54,1.06,3.44,3.44,0,0,1-1.55.4,3.22,3.22,0,0,1-1.28-.27,3.32,3.32,0,0,1-1.1-.77,3.45,3.45,0,0,1-.33-0.42l-0.26.23a7.4,7.4,0,0,1-1.41.9,3.39,3.39,0,0,1-1.5.37,2.08,2.08,0,0,1-1.5-.58,4.75,4.75,0,0,1-1-1.69,6.66,6.66,0,0,1-.81.78,7.16,7.16,0,0,1-1,.72,6.71,6.71,0,0,1-1.18.53,3.87,3.87,0,0,1-1.23.21,3.21,3.21,0,0,1-1.28-.27,3.32,3.32,0,0,1-1.1-.77,3.74,3.74,0,0,1-.77-1.22,4.33,4.33,0,0,1-.29-1.62,8.18,8.18,0,0,1,.29-2.11A11.52,11.52,0,0,1,45.58,65,12,12,0,0,1,46.77,63a9.57,9.57,0,0,1,1.51-1.6A7.34,7.34,0,0,1,50,60.35a4.53,4.53,0,0,1,1.85-.4,0.85,0.85,0,0,1,.49.12,1.26,1.26,0,0,1,.29.28l0.23,0.31a0.64,0.64,0,0,0,.27.22,1.24,1.24,0,0,0,.33.09l0.35,0h0.62a1.7,1.7,0,0,1,.38,0,0.65,0.65,0,0,1,.31.18,0.9,0.9,0,0,1,.21.38,2.39,2.39,0,0,1,.08.67,8.74,8.74,0,0,1-.14,1.46q-0.14.8-.3,1.64T54.7,67a10,10,0,0,0-.14,1.59,3.43,3.43,0,0,0,.12,1,0.48,0.48,0,0,0,.5.36,1.45,1.45,0,0,0,.6-0.14,3.69,3.69,0,0,0,.64-0.38,7.25,7.25,0,0,0,.64-0.53l0.14-.14c0-.63,0-1.23.11-1.78a15.85,15.85,0,0,1,.33-1.9,13.56,13.56,0,0,1,.55-1.74q0.33-.84.75-1.7a2.16,2.16,0,0,1,.9-0.94A2.39,2.39,0,0,1,61,60.41a1.39,1.39,0,0,1,.82.24,0.85,0.85,0,0,1,.34.75,1.77,1.77,0,0,1,0,.33,2.1,2.1,0,0,1-.12.38q-0.25.63-.49,1.48t-0.42,1.75q-0.18.9-.29,1.76a12.16,12.16,0,0,0-.11,1.52,4.45,4.45,0,0,0,0,.66,2,2,0,0,0,.17.57,1.12,1.12,0,0,0,.33.41,0.83,0.83,0,0,0,.52.16A1.23,1.23,0,0,0,62.67,70a4.26,4.26,0,0,0,.71-1.05,7.56,7.56,0,0,0,.49-1.27,7.69,7.69,0,0,0,.24-1.09l1-4a2.14,2.14,0,0,1,.39-0.83,2.81,2.81,0,0,1,.64-0.61,2.84,2.84,0,0,1,.76-0.37,2.54,2.54,0,0,1,.75-0.12,1.29,1.29,0,0,1,.71.18,0.64,0.64,0,0,1,.29.58,1.21,1.21,0,0,1,0,.29q-0.08.36-.21,1T68.09,64q-0.14.78-.29,1.65t-0.29,1.73q-0.34,2-.7,4.35a10.4,10.4,0,0,0,.89-0.57,9.27,9.27,0,0,0,1.07-.92q0.59-.57,1.31-1.44t1.63-2.17l0.66,3A5.58,5.58,0,0,1,71.72,70.56ZM59.84,48.48a7.66,7.66,0,0,1,.2,1.69,7.75,7.75,0,0,1-.18,1.63,8.33,8.33,0,0,1-.51,1.59,7.61,7.61,0,0,1-.82,1.44A5.78,5.78,0,0,1,57.42,56a5.23,5.23,0,0,1-1.36.78,4.3,4.3,0,0,1-1.57.29,3.85,3.85,0,0,1-2.06-.53A4.37,4.37,0,0,1,51,55.14a6.08,6.08,0,0,1-.8-1.91A9.31,9.31,0,0,1,50,51.07a8.54,8.54,0,0,1,.45-2.81A6.78,6.78,0,0,1,51.72,46a6,6,0,0,1,2.06-1.52,6.53,6.53,0,0,1,2.73-.55,7.23,7.23,0,0,1,2.43.4,9.25,9.25,0,0,1,2.13,1.08A12.05,12.05,0,0,1,62.92,47a23.44,23.44,0,0,1,1.59,1.8l-0.26,1.93a8,8,0,0,0-1-1.07Q62.62,49,61.92,48.5t-1.39-1l-1.18-.81-0.11.15A7.29,7.29,0,0,1,59.84,48.48Zm19.38-13L78.41,36a10.16,10.16,0,0,1-1,.54,7.16,7.16,0,0,1-1.07.42,3.79,3.79,0,0,1-1.13.17,2.94,2.94,0,0,1-1.65-.42,3,3,0,0,1-1-1.09,6.92,6.92,0,0,1-.55-1.71A10.75,10.75,0,0,1,71.76,32H71.54L69.1,39c-0.13.36-.25,0.74-0.36,1a3.58,3.58,0,0,1-.35.61,1.11,1.11,0,0,1-.38.33,1.12,1.12,0,0,1-.45.1,1.42,1.42,0,0,1-1.43-.87,3,3,0,0,1-.22-0.76c-0.16.15-.33,0.3-0.5,0.44a7.44,7.44,0,0,1-1.41.9,3.39,3.39,0,0,1-1.5.37,2.08,2.08,0,0,1-1.5-.58,4.71,4.71,0,0,1-1-1.69,6.66,6.66,0,0,1-.81.78,7.17,7.17,0,0,1-1,.72,6.62,6.62,0,0,1-1.18.53,3.87,3.87,0,0,1-1.23.21,3.22,3.22,0,0,1-1.28-.27,3.32,3.32,0,0,1-1.1-.77,3.72,3.72,0,0,1-.77-1.22c0-.06,0-0.12-0.05-0.18l0,0a3.85,3.85,0,0,1-2,.67,2.47,2.47,0,0,1-.85-0.14,1.94,1.94,0,0,1-.7-0.44A2.38,2.38,0,0,1,48.37,38a4.21,4.21,0,0,1-.29-1.13,16.65,16.65,0,0,1-1.47,2.29,10.48,10.48,0,0,1-1.67,1.74A7.2,7.2,0,0,1,43.1,42a5.26,5.26,0,0,1-2,.39,3.57,3.57,0,0,1-2.21-.68,5,5,0,0,1-1.48-1.86,10.08,10.08,0,0,1-.83-2.76,20.87,20.87,0,0,1-.26-3.38,10.36,10.36,0,0,1,.07-1.23q0.07-.57.11-1a29.7,29.7,0,0,1-1.24,5.22A11.79,11.79,0,0,1,33.53,40a5.78,5.78,0,0,1-2.3,1.81,7.36,7.36,0,0,1-2.86.54,2.89,2.89,0,0,1-1.72-.59A5,5,0,0,1,25.2,40a11.37,11.37,0,0,1-1-2.95,20.07,20.07,0,0,1-.38-4.14,27.8,27.8,0,0,1,.16-3q0.16-1.52.47-3.06t0.76-3q0.45-1.5,1-2.93a5.87,5.87,0,0,1,.68-1.24,2.57,2.57,0,0,1,.7-0.66,1.79,1.79,0,0,1,.72-0.25,6.49,6.49,0,0,1,.73,0,3.34,3.34,0,0,1,.55,0,0.93,0.93,0,0,1,.42.17,0.8,0.8,0,0,1,.26.37,1.92,1.92,0,0,1,.09.65,6.27,6.27,0,0,1-.23,1.37q-0.23.91-.57,2.1L28.86,26q-0.4,1.39-.74,2.83t-0.57,2.82a16.13,16.13,0,0,0-.23,2.58,11.84,11.84,0,0,0,.13,1.81,5.84,5.84,0,0,0,.4,1.46,2.7,2.7,0,0,0,.68,1,1.43,1.43,0,0,0,1,.36,2,2,0,0,0,1.09-.33,4.5,4.5,0,0,0,1-.9,8.72,8.72,0,0,0,.94-1.37q0.45-.79.87-1.72t0.79-1.94q0.37-1,.7-2.06a74.94,74.94,0,0,0,2-8.33A6.57,6.57,0,0,1,37.34,21a2.52,2.52,0,0,1,.54-0.81,1.77,1.77,0,0,1,.73-0.42,3.41,3.41,0,0,1,1-.12,3.19,3.19,0,0,1,.85.1A1.46,1.46,0,0,1,41,20a0.9,0.9,0,0,1,.28.4,1.55,1.55,0,0,1,.08.52q0,0.1-.11.8l-0.28,1.8q-0.17,1.1-.37,2.5T40.2,28.84q-0.17,1.47-.28,2.91t-0.11,2.64q0,1.23.09,2.22a8.45,8.45,0,0,0,.3,1.69,2.71,2.71,0,0,0,.55,1.07,1.11,1.11,0,0,0,.85.37A2.26,2.26,0,0,0,43.2,39a6.89,6.89,0,0,0,1.31-1.83,16.26,16.26,0,0,0,1.07-2.65q0.47-1.5.83-3.14T47,28.13q0.27-1.67.44-3.15t0.28-2.67q0.1-1.18.14-1.85a2.91,2.91,0,0,1,.25-1.12,1.74,1.74,0,0,1,.54-0.66,1.84,1.84,0,0,1,.75-0.31,4.83,4.83,0,0,1,.85-0.08,2.42,2.42,0,0,1,.62.08,1.17,1.17,0,0,1,.49.26,1.18,1.18,0,0,1,.31.49,2.4,2.4,0,0,1,.11.79,26.2,26.2,0,0,1-.17,2.86q-0.17,1.54-.42,3.08t-0.55,3q-0.29,1.46-.55,2.64l-0.42,2a6.85,6.85,0,0,0-.17,1,2.44,2.44,0,0,0,.15.91,1.76,1.76,0,0,0,.4.62,1.48,1.48,0,0,0,.6.36,2.47,2.47,0,0,0,.75.11,2,2,0,0,0,.81-0.18l0.06,0a8.63,8.63,0,0,1,.22-1.19A11.48,11.48,0,0,1,53.33,33,12,12,0,0,1,54.53,31,9.61,9.61,0,0,1,56,29.44a7.38,7.38,0,0,1,1.73-1.09,4.54,4.54,0,0,1,1.85-.4,0.86,0.86,0,0,1,.49.12,1.24,1.24,0,0,1,.29.28l0.23,0.31a0.63,0.63,0,0,0,.27.22,1.24,1.24,0,0,0,.33.09l0.35,0h0.62a1.7,1.7,0,0,1,.38,0,0.65,0.65,0,0,1,.31.18,0.9,0.9,0,0,1,.21.38,2.35,2.35,0,0,1,.08.67,8.85,8.85,0,0,1-.14,1.46q-0.14.8-.3,1.64c-0.11.56-.21,1.12-0.3,1.68a9.87,9.87,0,0,0-.14,1.59,3.47,3.47,0,0,0,.12,1,0.48,0.48,0,0,0,.5.36,1.45,1.45,0,0,0,.6-0.14,3.69,3.69,0,0,0,.63-0.38,6.9,6.9,0,0,0,.64-0.53q0.32-.29.61-0.61c0.2-.22.39-0.45,0.59-0.69,0-.18,0-0.35.06-0.54q0.12-.89.27-1.81t0.33-1.76Q66.85,30.7,67,30a9.85,9.85,0,0,1,.36-1.15,2.7,2.7,0,0,1,.22-0.48,1,1,0,0,1,.25-0.28A0.83,0.83,0,0,1,68.22,28a3.43,3.43,0,0,1,.53,0,3.48,3.48,0,0,1,.55,0,0.44,0.44,0,0,1,.29.16,0.82,0.82,0,0,1,.25.38,3.87,3.87,0,0,1,.16.67v1.22A8.65,8.65,0,0,0,69.75,32H69.9a2.5,2.5,0,0,1,.62-1.32,8.44,8.44,0,0,1,.79-1.31,4.82,4.82,0,0,1,1-1,2.26,2.26,0,0,1,1.33-.42,1.48,1.48,0,0,1,.51.08,1.31,1.31,0,0,1,.43.25,1.2,1.2,0,0,1,.29.4,1.28,1.28,0,0,1,.11.54,4.24,4.24,0,0,1-.07.65q-0.07.42-.15,0.87t-0.15.89a4.69,4.69,0,0,0-.07.72,3,3,0,0,0,.1.82,1.53,1.53,0,0,0,.25.53,0.89,0.89,0,0,0,.36.28,1.08,1.08,0,0,0,.42.08A3.29,3.29,0,0,0,77,33.77a8.21,8.21,0,0,0,1.2-.62,11.37,11.37,0,0,0,1.26-.9Z"/>

  </g>

</svg>
