<svg xmlns="http://www.w3.org/2000/svg" viewBox="0 0 100 100" class="svg-designer-developer">
  <path d="M72.5 22.7l-5 5L90 50.3 67.5 72.8l5 5L100 50.3M32 28.2l.5-.5-2.5-2.5-2.5-2.5L0 50.3l27.5 27.5 2.5-2.5 2.5-2.5-.5-.5-1.2 1.2-.5-.5 1.2-1.2-.5-.5-1.2 1.2-1.3 1.3-.5-.5 2.5-2.5-.5-.5-1.2 1.2-.5-.5 1.2-1.2-.5-.5-2.5 2.5-.5-.5 2.5-2.5-.5-.5-1.2 1.2-.5-.5 1.2-1.2-.5-.5-2.5 2.5-.5-.5 2.5-2.5-.5-.5-1.2 1.2-.5-.5 1.2-1.2-.5-.5-2.5 2.5-.5-.5 2.5-2.5-.5-.5-1.2 1.2-.5-.5 1.2-1.2-.5-.5-2.5 2.5-.5-.5 2.5-2.5-.5-.5-1.2 1.2-.5-.5 1.2-1.2-.5-.5-2.5 2.5-.5-.5 2.5-2.5-.5-.5-1.2 1.2-.5-.5 1.2-1.2-.5-.5-2.5 2.5-.5-.5 2.5-2.5-.5-.5-1.2 1.2-.5-.5 1.2-1.2-.5-.5-2.5 2.5-.5-.5 2.5-2.5-.5-.5-1.2 1.2-.5-.5 1.2-1.2-.5-.5-1.2 1.2-1.3 1.3-.5-.5 2.5-2.5-.5-.5-1.2 1.2-.5-.5 1.2-1.2-.5-.5-2.5 2.5-.5-.5 2.5-2.5-.5-.5-1.2 1.2-.5-.5 1.2-1.2-.5-.5-2.5 2.5-.5-.5 2.5-2.5-.5-.5.5-.5L8 47.3l.5-.5 2.5 2.5.5-.5-1.2-1.3.5-.5 1.2 1.3.5-.5-2.5-2.5.5-.5 2.5 2.5.5-.5-1.2-1.3.5-.5 1.2 1.3.5-.5-2.5-2.5.5-.5 2.5 2.5.5-.5-1.2-1.3.5-.5 1.2 1.3.5-.5-2.5-2.5.5-.5 1.3 1.2 1.2 1.3.5-.5-1.2-1.3.5-.5 1.2 1.3.5-.5-2.5-2.5.5-.6 1.3 1.3 1.2 1.3.5-.5-1.2-1.3.5-.5 1.2 1.3.5-.5-2.5-2.6.5-.5 1.3 1.3 1.2 1.2.5-.5-1.2-1.2.5-.5 1.2 1.2.5-.5-2.5-2.5.5-.5 2.5 2.5.5-.5-1.2-1.2.5-.5 1.2 1.2.5-.5-2.5-2.5.5-.5 2.5 2.5.5-.5-1.2-1.2.5-.5 1.2 1.2.5-.5-2.5-2.5.5-.5 1.3 1.3 1.2 1.2.5-.5-1.2-1.2.5-.5 1.2 1.2.5-.5-2.5-2.5.5-.5 1.3 1.3 1.2 1.2.5-.5-1.2-1.2.5-.5 1.2 1.2.5-.5-2.5-2.5.5-.5 1.3 1.3 1.2 1.2.5-.5-1.2-1.2.5-.5M27.5 67.8L26.3 69l1.2-1.2M43.795 71.843l-6.56-2.717L53.69 29.4l6.56 2.716zM60.53 31.51l-6.56-2.717.268-.647 6.56 2.717zM61.583 28.863l-6.56-2.717 1.608-3.88 6.56 2.716zM61.02 30.173l-6.56-2.717.27-.647 6.558 2.716zM37 69.8l.5 7.8 2.8-6.5M37.5 77.6l6-5.1-1.6-.7"/>
</svg>
