<?xml version="1.0" encoding="utf-8"?>
<!-- Generator: Adobe Illustrator 19.0.1, SVG Export Plug-In . SVG Version: 6.00 Build 0)  -->
<svg version="1.1" xmlns="http://www.w3.org/2000/svg" xmlns:xlink="http://www.w3.org/1999/xlink" x="0px" y="0px"
	 viewBox="0 0 100 100" style="enable-background:new 0 0 100 100;" xml:space="preserve">
<style type="text/css">
	.st0{display:none;}
	.st1{display:inline;}
	.st2{clip-path:url(#SVGID_2_);fill:none;stroke:#000000;stroke-miterlimit:10;}
	.st3{clip-path:url(#SVGID_2_);}
	.st4{clip-path:url(#SVGID_2_);fill:#FFFFFF;stroke:#000000;stroke-width:0.5;stroke-miterlimit:10;}
	.st5{fill:none;stroke:#000000;stroke-miterlimit:10;}
	.st6{fill:none;stroke:#000000;stroke-miterlimit:10;stroke-dasharray:2,2;}
	.st7{clip-path:url(#SVGID_4_);fill:#EEEEEE;}
	.st8{clip-path:url(#SVGID_4_);}
	.st9{fill:#FFFFFF;}
	.st10{fill:#EEEEEE;}
</style>
<g id="design" class="st0">
	<g class="st1">
		<defs>
			<circle id="SVGID_1_" cx="50" cy="50" r="50"/>
		</defs>
		<clipPath id="SVGID_2_">
			<use xlink:href="#SVGID_1_"  style="overflow:visible;"/>
		</clipPath>
		<rect x="25" y="25" class="st2" width="50" height="50"/>
		<rect x="22.5" y="22.5" class="st3" width="5" height="5"/>
		<rect x="47.5" y="22.5" class="st3" width="5" height="5"/>
		<rect x="72.5" y="22.5" class="st3" width="5" height="5"/>
		<rect x="22.5" y="72.5" class="st3" width="5" height="5"/>
		<rect x="47.5" y="72.5" class="st3" width="5" height="5"/>
		<rect x="72.5" y="72.5" class="st3" width="5" height="5"/>
		<rect x="22.5" y="47.5" class="st3" width="5" height="5"/>
		<rect x="72.5" y="47.5" class="st3" width="5" height="5"/>
		<circle class="st2" cx="79.9" cy="20.1" r="37.5"/>
		<rect x="52" y="45.2" transform="matrix(-0.7071 0.7071 -0.7071 -0.7071 124.08 41.8776)" class="st3" width="2.8" height="2.8"/>
		<line class="st4" x1="68.4" y1="61.6" x2="38.4" y2="31.6"/>
		<circle class="st3" cx="68.4" cy="61.6" r="1"/>
		<circle class="st3" cx="38.4" cy="31.6" r="1"/>
		<polygon class="st3" points="25.3,36.2 22.7,42.5 16.5,27.5 31.5,33.7 		"/>
		<g class="st3">
			<g>
				<line class="st5" x1="0" y1="85" x2="1" y2="85"/>
				<line class="st6" x1="3" y1="85" x2="98" y2="85"/>
				<line class="st5" x1="99" y1="85" x2="100" y2="85"/>
			</g>
		</g>
		<g class="st3">
			<path d="M50,5c24.8,0,45,20.2,45,45S74.8,95,50,95S5,74.8,5,50S25.2,5,50,5 M50,0C22.4,0,0,22.3,0,50s22.4,50,50,50
				s50-22.4,50-50S77.6,0,50,0L50,0z"/>
		</g>
	</g>
</g>
<g id="design_outlined">
	<g>
		<defs>
			<circle id="SVGID_3_" cx="50" cy="50" r="50"/>
		</defs>
		<clipPath id="SVGID_4_">
			<use xlink:href="#SVGID_3_"  style="overflow:visible;"/>
		</clipPath>
		<path class="st7" d="M75.5,75.5h-51v-51h51V75.5z M25.5,74.5h49v-49h-49V74.5z"/>
		<rect x="22.5" y="22.5" class="st7" width="5" height="5"/>
		<rect x="47.5" y="22.5" class="st7" width="5" height="5"/>
		<rect x="72.5" y="22.5" class="st7" width="5" height="5"/>
		<rect x="22.5" y="72.5" class="st7" width="5" height="5"/>
		<rect x="47.5" y="72.5" class="st7" width="5" height="5"/>
		<rect x="72.5" y="72.5" class="st7" width="5" height="5"/>
		<rect x="22.5" y="47.5" class="st7" width="5" height="5"/>
		<rect x="72.5" y="47.5" class="st7" width="5" height="5"/>
		<path class="st7" d="M79.9,58.1c-9.7,0-19.5-3.7-26.9-11.1c-7.2-7.2-11.1-16.7-11.1-26.9c0-10.2,4-19.7,11.1-26.9
			c14.8-14.8,38.9-14.8,53.7,0c7.2,7.2,11.1,16.7,11.1,26.9c0,10.1-4,19.7-11.1,26.9C99.3,54.4,89.6,58.1,79.9,58.1z M79.9-16.9
			c-9.5,0-18.9,3.6-26.2,10.8c-7,7-10.8,16.3-10.8,26.2c0,9.9,3.8,19.2,10.8,26.2c14.4,14.4,37.9,14.4,52.3,0l0,0
			c7-7,10.8-16.3,10.8-26.2c0-9.9-3.8-19.2-10.8-26.2C98.8-13.3,89.4-16.9,79.9-16.9z"/>
		<rect x="52" y="45.2" transform="matrix(-0.7071 0.7071 -0.7071 -0.7071 124.08 41.8776)" class="st7" width="2.8" height="2.8"/>
		<g class="st8">
			<line class="st9" x1="68.4" y1="61.6" x2="38.4" y2="31.6"/>
			
				<rect x="32.2" y="46.3" transform="matrix(0.7071 0.7071 -0.7071 0.7071 48.5789 -24.1475)" class="st10" width="42.4" height="0.5"/>
		</g>
		<circle class="st7" cx="68.4" cy="61.6" r="1"/>
		<circle class="st7" cx="38.4" cy="31.6" r="1"/>
		<polygon class="st7" points="25.3,36.2 22.7,42.5 16.5,27.5 31.5,33.7 		"/>
		<g class="st8">
			<rect y="84.5" class="st10" width="1" height="1"/>
			<path class="st10" d="M97,85.5h-2v-1h2V85.5z M93,85.5h-2v-1h2V85.5z M89,85.5h-2v-1h2V85.5z M85,85.5h-2v-1h2V85.5z M81,85.5h-2
				v-1h2V85.5z M77,85.5h-2v-1h2V85.5z M73,85.5h-2v-1h2V85.5z M69,85.5h-2v-1h2V85.5z M65,85.5h-2v-1h2V85.5z M61,85.5h-2v-1h2
				V85.5z M57,85.5h-2v-1h2V85.5z M53,85.5h-2v-1h2V85.5z M49,85.5h-2v-1h2V85.5z M45,85.5h-2v-1h2V85.5z M41,85.5h-2v-1h2V85.5z
				 M37,85.5h-2v-1h2V85.5z M33,85.5h-2v-1h2V85.5z M29,85.5h-2v-1h2V85.5z M25,85.5h-2v-1h2V85.5z M21,85.5h-2v-1h2V85.5z M17,85.5
				h-2v-1h2V85.5z M13,85.5h-2v-1h2V85.5z M9,85.5H7v-1h2V85.5z M5,85.5H3v-1h2V85.5z"/>
			<rect x="99" y="84.5" class="st10" width="1" height="1"/>
		</g>
		<path class="st7" d="M50,5c24.8,0,45,20.2,45,45S74.8,95,50,95S5,74.8,5,50S25.2,5,50,5 M50,0C22.4,0,0,22.3,0,50s22.4,50,50,50
			s50-22.4,50-50S77.6,0,50,0L50,0z"/>
	</g>
</g>
<g id="devopment" class="st0">
	<g class="st1">
		<path class="st10" d="M50,5c24.8,0,45,20.2,45,45S74.8,95,50,95S5,74.8,5,50S25.2,5,50,5 M50,0C22.4,0,0,22.4,0,50s22.4,50,50,50
			s50-22.4,50-50S77.6,0,50,0L50,0z"/>
	</g>
	<g class="st1">
		<path class="st10" d="M15.9,47.2l22-8.5v8L28.4,50V50l9.5,3.3v8l-22-8.5V47.2z"/>
		<path class="st10" d="M52,33.2h8.7L48,66.8h-8.7L52,33.2z"/>
		<path class="st10" d="M62.1,53.4l9.5-3.3V50l-9.5-3.3v-8l22,8.5v5.6l-22,8.5V53.4z"/>
	</g>
</g>
</svg>
