<svg id="about" class="info__icon creativity" xmlns="http://www.w3.org/2000/svg" viewBox="0 0 100 100">
  <title>Who I Am</title>
  <g class="creativity__brain-bulb">
    <g>
      <path fill="#029978" d="M56.89,80.56c0,1.08-3.39,1.91-7.58,1.91s-7.58-.83-7.58-1.91S56.89,79.48,56.89,80.56Z"/>
      <path fill="#029978" d="M59.83,78.39H39a.81.81,0,0,1-.13-1.61l10.42-1.63H39a.81.81,0,0,1-.13-1.61l10.42-1.63H39a.81.81,0,0,1-.13-1.61l10.42-1.63H38.71a.81.81,0,0,1,0-1.62h21a.81.81,0,0,1,.13,1.61L49.38,70.27H59.68a.81.81,0,0,1,.13,1.61L49.38,73.52H59.68a.81.81,0,0,1,.13,1.61L49.38,76.77H59.83a.81.81,0,1,1,0,1.62Z"/>
    </g>
    <g class="creativity__brain">
      <path fill="#EB4B4B" d="M67.94,23.11a6.78,6.78,0,0,0-6.88-.44,6.06,6.06,0,0,0-3.76,5.07,5.67,5.67,0,0,0,.8,3.11.56.56,0,0,1-1,.56,6.79,6.79,0,0,1-.94-3.73,7.16,7.16,0,0,1,4.41-6,8.25,8.25,0,0,1,6.71-.2,6.85,6.85,0,0,0-2.83-3.51A7.29,7.29,0,0,0,61.56,17h0a9.58,9.58,0,0,0-3.1.15.56.56,0,1,1-.28-1.09,10.07,10.07,0,0,1,2.35-.25,6.1,6.1,0,0,0-4.46-1.49,5.6,5.6,0,0,1,.69,1.25,7.83,7.83,0,0,1-.69,6.68,2.37,2.37,0,0,1,.69,1.54.56.56,0,0,1-.5.61H56.2a.56.56,0,0,1-.56-.51,1.22,1.22,0,0,0-.45-.92,2.37,2.37,0,0,0-1.62-.27.56.56,0,0,1-.21-1.1,4,4,0,0,1,1.73.09A6.78,6.78,0,0,0,55.71,16a4.39,4.39,0,0,0-3.33-2.69,5.8,5.8,0,0,0-3.87,1c-.37.22-.56.33-.83.24a5.59,5.59,0,0,0-5.22,1.14,5,5,0,0,1,1.82,1.43c1.13,1.43,1.45,3.46,1,6a3.45,3.45,0,0,1,.36.25,4.29,4.29,0,0,1,1.35,3.84.56.56,0,0,1-.56.53h0a.56.56,0,0,1-.53-.6,3.25,3.25,0,0,0-.93-2.89,2.43,2.43,0,0,0-.51-.31h0a5.63,5.63,0,0,0-3.18-.2,4.93,4.93,0,0,1-.57,1.73.56.56,0,0,1-1-.52,3.56,3.56,0,0,0,.47-1.6.56.56,0,0,1,0-.13,1.76,1.76,0,0,0-.7-1.39.56.56,0,0,1-.16-.78.56.56,0,0,1,.77-.16,2.79,2.79,0,0,1,1.13,1.71,7.21,7.21,0,0,1,3,.06c.37-2.13.11-3.77-.78-4.89a4.47,4.47,0,0,0-3.14-1.55h0c-.16,0-4-.24-4.38,3.64l0,.34-.32.13A5.43,5.43,0,0,0,32,23.85a5.51,5.51,0,0,0-.23,1.64,5.89,5.89,0,0,1,3.14.66A5.66,5.66,0,0,1,38,30.24a3.46,3.46,0,0,1,1.65.65.56.56,0,1,1-.66.91,2.37,2.37,0,0,0-1.43-.46h-.08a3.23,3.23,0,0,0-1.5.47.56.56,0,0,1-.62-.94,4.46,4.46,0,0,1,1.5-.59,4.57,4.57,0,0,0-2.46-3.13,4.44,4.44,0,0,0-4.4.06A4.26,4.26,0,0,0,28.65,32a2.89,2.89,0,0,0,2.75,2.26h.09c.79,0,3.86,0,7.84,0,.45-.06,6.16-.86,9.21-5.3,2.12-3.08,2.51-7.22,1.16-12.3a.56.56,0,0,1,1.09-.29c1.44,5.42,1,9.87-1.33,13.23a13.27,13.27,0,0,1-6,4.62H64.85a5.14,5.14,0,0,0,5-3.77C70.57,28.12,70.31,24.92,67.94,23.11Zm-6.76-5a.28.28,0,0,1,.1.55,2.62,2.62,0,0,0-2,2.41.28.28,0,0,1-.28.27h0a.28.28,0,0,1-.27-.29A3.2,3.2,0,0,1,61.18,18.13Zm-23.72,3.8a2.4,2.4,0,0,0-1.83,2.42.28.28,0,0,1-.27.29h0a.28.28,0,0,1-.28-.27,3,3,0,0,1,2.24-3,.28.28,0,1,1,.14.54Zm-3.34,9a.28.28,0,0,1-.4,0,2.08,2.08,0,0,0-2.66-.19.28.28,0,0,1-.33-.45,2.62,2.62,0,0,1,3.38.23A.28.28,0,0,1,34.12,31Zm9.24-1.62a.28.28,0,0,1-.25.16l-.12,0a.28.28,0,0,1-.13-.37A2.82,2.82,0,0,0,43,26.58a2,2,0,0,0-.63-.74.28.28,0,1,1,.29-.48S44.69,26.6,43.37,29.36ZM48.5,19.09h-.06a.28.28,0,0,1-.27-.23c-.51-2.5-2.28-2.55-2.36-2.55a.28.28,0,0,1,0-.56s2.31,0,2.91,3A.28.28,0,0,1,48.5,19.09Zm6.24,13.15h-.08a.28.28,0,0,1-.27-.2c-.55-1.76-2.54-1.35-2.62-1.34a.28.28,0,0,1-.12-.55,3.27,3.27,0,0,1,.76-.07,3.07,3.07,0,0,1,1.94-2.6.28.28,0,0,1,.19.53A2.44,2.44,0,0,0,53,30.16a2.42,2.42,0,0,1,2,1.73A.28.28,0,0,1,54.74,32.24Zm12.88-5.29h0a.26.26,0,0,1-.28-.26,2.47,2.47,0,0,0-2-2.4.27.27,0,0,1-.22-.32.28.28,0,0,1,.33-.22,3,3,0,0,1,2.43,2.92A.26.26,0,0,1,67.62,26.95Z"/>
    </g>
    <g class="creativity__bulb">
      <path d="M50.55,39.09a1,1,0,0,0-.85-.53h0c-.32,0-.55.2-.7.58a1.35,1.35,0,0,0,0,1.14,8.39,8.39,0,0,0,1.51-1C50.57,39.2,50.57,39.15,50.55,39.09Z"/>
      <path d="M51.23,43.07a6,6,0,0,1-2.57-1.37,31.26,31.26,0,0,1-5.51,1.7,12.87,12.87,0,0,1-3.07.44L44.8,65h9.13l4.81-21.61A30.32,30.32,0,0,1,51.23,43.07Z"/>
      <path d="M70.74,36H28.58c-.07,1-.14,1.07-.17,1.56a25.08,25.08,0,0,0,3.67,14.19c.6,1,1.25,2.14,2,3.27,1.93,2.92,4.09,6.43,4.09,9,0,.45.34,1,.78,1h4.73L39,43.78a3.25,3.25,0,0,1-2.26-1,1.69,1.69,0,0,1,.12-2A1.64,1.64,0,0,1,38.45,40a1.24,1.24,0,0,1,1,1l.36,1.59a13.26,13.26,0,0,0,3.05-.24A31.78,31.78,0,0,0,48,40.77a2.43,2.43,0,0,1,0-2,1.82,1.82,0,0,1,1.75-1.23,2.06,2.06,0,0,1,1.84,1.23,1.2,1.2,0,0,1-.37,1.36,9.2,9.2,0,0,1-1.47,1,5.27,5.27,0,0,0,1.78.81A29.51,29.51,0,0,0,59,42.1l.27-1.21,0-.08a7,7,0,0,1,.47-.7c.7-.91,1.37-.93,1.7-.86a1.41,1.41,0,0,1,1,1.08,2,2,0,0,1-.66,2,4.3,4.3,0,0,1-2,.89L55,65h4.64c.45,0,.83-.54.83-1,0-2.55,2.2-5.95,4.14-8.87.75-1.14,1.6-2.26,2.2-3.29,2.87-5,4.35-9.89,4.07-14.31C70.88,37.06,70.81,37,70.74,36Z"/>
      <path d="M38.27,41.05H38.2a.57.57,0,0,0-.45.23c-.21.34-.26.58-.16.72a1.82,1.82,0,0,0,1.13.47l-.28-1.26A.18.18,0,0,0,38.27,41.05Z"/>
      <path d="M61.46,40.61c0-.15-.12-.27-.2-.29s-.32.06-.63.46a5.7,5.7,0,0,0-.35.52l-.14.62a2.5,2.5,0,0,0,1-.39A.92.92,0,0,0,61.46,40.61Z"/>
      <path class="creativity__bulb__top" d="M50,17.69h0C39.5,17.7,30,26,28.58,36H70.74C69.29,26,59.56,17.69,50,17.69Z"/>
    </g>
  </g>
  <path fill="#EB4B4B" d="M50,3A47,47,0,1,1,3,50,47.05,47.05,0,0,1,50,3m0-3a50,50,0,1,0,50,50A50,50,0,0,0,50,0Z"/>
  <path class="creativity__inner-ring" fill="#FFF9E6" d="M50,11A39,39,0,1,1,11,50,39,39,0,0,1,50,11m0-6A45,45,0,1,0,95,50,45,45,0,0,0,50,5Z"/>
</svg>
