<svg class="info__icon design-develop" xmlns="http://www.w3.org/2000/svg" viewBox="0 0 100 100">
  <title>What I Do</title>
  <g class="design-develop__pencil-brackets">
    <g class="design-develop__pencil">
      <rect fill="#EB4B4B" x="75.23" y="43" width="5.76" height="7.68" transform="translate(-10.25 68.95) rotate(-45)"/>
      <rect fill="#FFF9E6" x="74.07" y="46.4" width="1.28" height="7.68" transform="translate(-13.64 67.54) rotate(-45)"/>
      <rect fill="#FFF9E6" x="72.26" y="48.21" width="1.28" height="7.68" transform="translate(-15.45 66.8) rotate(-45)"/>
      <path fill="#EB8E4B" d="M68.83,50.69,45.76,73.76,44,81l7.24-1.81L74.26,56.12ZM48.47,76.48l1.66,1.66-4.42,1.11Zm-.9-2.71L68.83,52.5l1.81,1.81L49.38,75.57Z"/>
    </g>
    <g class="design-develop__brackets">
      <polygon class="design-develop__bracket design-develop__bracket--ruler" fill="#029978" points="26.5 28.5 26.5 69.5 36.5 69.5 36.5 67.3 35.65 67.3 35.65 66 36.5 66 36.5 64.16 33.09 64.15 33.09 62.91 36.5 62.91 36.5 61.05 35.65 61.05 35.65 59.81 36.5 59.81 36.5 57.95 33.09 57.95 33.09 56.71 36.5 56.71 36.5 54.8 35.65 54.8 35.65 53.6 36.5 53.6 36.5 51.74 33.09 51.74 33.09 50.5 36.5 50.5 36.5 48.64 35.65 48.64 35.65 47.4 36.5 47.4 36.5 45.53 33.09 45.53 33.09 44.29 36.5 44.29 36.5 42.4 35.65 42.4 35.65 41.17 36.5 41.19 36.5 39.3 34.37 39.3 34.38 36.11 37.6 36.13 37.6 38.5 39.4 38.5 39.4 37.4 40.7 37.4 40.7 38.5 42.5 38.5 42.5 34.8 43.8 34.8 43.8 38.5 45.6 38.5 45.6 37.4 46.9 37.4 46.9 38.5 48.7 38.5 48.7 34.8 50 34.8 50 38.5 51.8 38.5 51.8 37.4 53.1 37.4 53.1 38.5 54.9 38.5 54.9 34.8 56.2 34.8 56.2 38.5 58.1 38.5 58.1 37.4 59.3 37.4 59.3 38.5 61.2 38.5 61.2 34.8 62.4 34.8 62.4 38.5 64.3 38.5 64.3 37.4 65.5 37.4 65.5 38.5 67.5 38.5 67.5 28.5 26.5 28.5"/>
      <polygon class="design-develop__bracket design-develop__bracket--code design-develop__bracket--code--1" fill="#029978" points="26.5 69.5 36.5 69.5 36.5 38.5 67.5 38.5 67.5 28.5 26.5 28.5 26.5 69.5"/>
      <polygon class="design-develop__bracket design-develop__bracket--code design-develop__bracket--code--2" fill="#EB8E4B" points="116.45 77.45 106.45 77.45 106.45 108.45 75.45 108.45 75.45 118.45 116.45 118.45 116.45 77.45"/>
    </g>
  </g>
  <path fill="#EB4B4B" d="M50,3A47,47,0,1,1,3,50,47.05,47.05,0,0,1,50,3m0-3a50,50,0,1,0,50,50A50,50,0,0,0,50,0Z"/>
  <path fill="#FFF9E6" d="M50,11A39,39,0,1,1,11,50,39,39,0,0,1,50,11m0-6A45,45,0,1,0,95,50,45,45,0,0,0,50,5Z"/>
</svg>
