<svg class="icon-animation icon-animation--creativity" xmlns="http://www.w3.org/2000/svg" viewBox="0 0 100 100">
  <defs>
    <style>
      .cls-1 {
        fill: none;
      }

      .cls-2 {
        clip-path: url(#clip-path);
      }
    </style>
    <clipPath id="clip-path">
      <path class="cls-1" d="M50,5A45,45,0,1,0,95,50,45.05,45.05,0,0,0,50,5Z"/>
    </clipPath>
  </defs>
  <title>Creativity</title>
  <g class="cls-2">
    <g fill="#029978" class="icon-animation--creativity__raindrops">
      <path d="M97.5,95c0,0-1.8,3.2-2.3,5h4.7C99.3,98.2,97.5,95,97.5,95z"/>
      <path d="M63.5,100h4.7c-0.6-1.8-2.3-5-2.3-5S64.1,98.2,63.5,100z"/>
      <path d="M31.8,100h4.7c-0.6-1.8-2.3-5-2.3-5S32.4,98.2,31.8,100z"/>
      <path d="M0.2,100h4.7c-0.6-1.8-2.3-5-2.3-5S0.7,98.2,0.2,100z"/>
      <path d="M84.2,85.8c0,1.4-1.1,2.5-2.5,2.5c-1.4,0-2.5-1.1-2.5-2.5s2.5-5.8,2.5-5.8S84.2,84.5,84.2,85.8z"/>
      <path d="M52.5,85.8c0,1.4-1.1,2.5-2.5,2.5s-2.5-1.1-2.5-2.5S50,80,50,80S52.5,84.5,52.5,85.8z"/>
      <path d="M20.8,85.8c0,1.4-1.1,2.5-2.5,2.5c-1.4,0-2.5-1.1-2.5-2.5c0-1.4,2.5-5.8,2.5-5.8S20.8,84.5,20.8,85.8z"/>
      <path d="M100,68.5c0,1.4-1.1,2.5-2.5,2.5S95,69.9,95,68.5c0-1.4,2.5-5.8,2.5-5.8S100,67.1,100,68.5z"/>
      <path d="M68.3,68.5c0,1.4-1.1,2.5-2.5,2.5c-1.4,0-2.5-1.1-2.5-2.5c0-1.4,2.5-5.8,2.5-5.8S68.3,67.1,68.3,68.5z"/>
      <path d="M36.7,68.5c0,1.4-1.1,2.5-2.5,2.5c-1.4,0-2.5-1.1-2.5-2.5c0-1.4,2.5-5.8,2.5-5.8S36.7,67.1,36.7,68.5z"/>
      <path d="M5,68.5C5,69.9,3.9,71,2.5,71S0,69.9,0,68.5c0-1.4,2.5-5.8,2.5-5.8S5,67.1,5,68.5z"/>
      <path d="M84.2,51.8c0,1.4-1.1,2.5-2.5,2.5c-1.4,0-2.5-1.1-2.5-2.5s2.5-5.8,2.5-5.8S84.2,50.5,84.2,51.8z"/>
      <path d="M52.5,51.8c0,1.4-1.1,2.5-2.5,2.5s-2.5-1.1-2.5-2.5S50,46,50,46S52.5,50.5,52.5,51.8z"/>
      <path d="M20.8,51.8c0,1.4-1.1,2.5-2.5,2.5c-1.4,0-2.5-1.1-2.5-2.5c0-1.4,2.5-5.8,2.5-5.8S20.8,50.5,20.8,51.8z"/>
      <path d="M100,34.5c0,1.4-1.1,2.5-2.5,2.5S95,35.9,95,34.5c0-1.4,2.5-5.8,2.5-5.8S100,33.1,100,34.5z"/>
      <path d="M68.3,34.5c0,1.4-1.1,2.5-2.5,2.5c-1.4,0-2.5-1.1-2.5-2.5c0-1.4,2.5-5.8,2.5-5.8S68.3,33.1,68.3,34.5z"/>
      <path d="M36.7,34.5c0,1.4-1.1,2.5-2.5,2.5c-1.4,0-2.5-1.1-2.5-2.5c0-1.4,2.5-5.8,2.5-5.8S36.7,33.1,36.7,34.5z"/>
      <path d="M5,34.5C5,35.9,3.9,37,2.5,37S0,35.9,0,34.5c0-1.4,2.5-5.8,2.5-5.8S5,33.1,5,34.5z"/>
      <path d="M84.2,17.8c0,1.4-1.1,2.5-2.5,2.5c-1.4,0-2.5-1.1-2.5-2.5s2.5-5.8,2.5-5.8S84.2,16.5,84.2,17.8z"/>
      <path d="M52.5,17.8c0,1.4-1.1,2.5-2.5,2.5s-2.5-1.1-2.5-2.5S50,12,50,12S52.5,16.5,52.5,17.8z"/>
      <path d="M20.8,17.8c0,1.4-1.1,2.5-2.5,2.5c-1.4,0-2.5-1.1-2.5-2.5c0-1.4,2.5-5.8,2.5-5.8S20.8,16.5,20.8,17.8z"/>
      <path d="M100,1.8c0,1.4-1.1,2.5-2.5,2.5S95,3.2,95,1.8S97.5-4,97.5-4S100,0.5,100,1.8z"/>
      <path d="M68.3,1.8c0,1.4-1.1,2.5-2.5,2.5c-1.4,0-2.5-1.1-2.5-2.5S65.8-4,65.8-4S68.3,0.5,68.3,1.8z"/>
      <path d="M36.7,1.8c0,1.4-1.1,2.5-2.5,2.5c-1.4,0-2.5-1.1-2.5-2.5S34.2-4,34.2-4S36.7,0.5,36.7,1.8z"/>
      <path d="M5,1.8c0,1.4-1.1,2.5-2.5,2.5S0,3.2,0,1.8C0,0.5,2.5-4,2.5-4S5,0.5,5,1.8z"/>
      <path d="M84.2-13.7c0,1.4-1.1,2.5-2.5,2.5c-1.4,0-2.5-1.1-2.5-2.5s2.5-5.8,2.5-5.8S84.2-15.1,84.2-13.7z"/>
      <path d="M52.5-13.7c0,1.4-1.1,2.5-2.5,2.5c-1.4,0-2.5-1.1-2.5-2.5s2.5-5.8,2.5-5.8S52.5-15.1,52.5-13.7z"/>
      <path d="M20.8-13.7c0,1.4-1.1,2.5-2.5,2.5c-1.4,0-2.5-1.1-2.5-2.5c0-1.4,2.5-5.8,2.5-5.8S20.8-15.1,20.8-13.7z"/>
      <path d="M100-31.1c0,1.4-1.1,2.5-2.5,2.5S95-29.7,95-31.1s2.5-5.8,2.5-5.8S100-32.5,100-31.1z"/>
      <path d="M68.3-31.1c0,1.4-1.1,2.5-2.5,2.5c-1.4,0-2.5-1.1-2.5-2.5c0-1.4,2.5-5.8,2.5-5.8S68.3-32.5,68.3-31.1z"/>
      <path d="M36.7-31.1c0,1.4-1.1,2.5-2.5,2.5c-1.4,0-2.5-1.1-2.5-2.5c0-1.4,2.5-5.8,2.5-5.8S36.7-32.5,36.7-31.1z"/>
      <path d="M5-31.1c0,1.4-1.1,2.5-2.5,2.5S0-29.7,0-31.1c0-1.4,2.5-5.8,2.5-5.8S5-32.5,5-31.1z"/>
      <path d="M84.2-47.7c0,1.4-1.1,2.5-2.5,2.5c-1.4,0-2.5-1.1-2.5-2.5c0-1.4,2.5-5.8,2.5-5.8S84.2-49.1,84.2-47.7z"/>
      <path d="M52.5-47.7c0,1.4-1.1,2.5-2.5,2.5s-2.5-1.1-2.5-2.5c0-1.4,2.5-5.8,2.5-5.8S52.5-49.1,52.5-47.7z"/>
      <path d="M20.8-47.7c0,1.4-1.1,2.5-2.5,2.5c-1.4,0-2.5-1.1-2.5-2.5c0-1.4,2.5-5.8,2.5-5.8S20.8-49.1,20.8-47.7z"/>
      <path d="M100-65.1c0,1.4-1.1,2.5-2.5,2.5S95-63.7,95-65.1c0-1.4,2.5-5.8,2.5-5.8S100-66.5,100-65.1z"/>
      <path d="M68.3-65.1c0,1.4-1.1,2.5-2.5,2.5c-1.4,0-2.5-1.1-2.5-2.5c0-1.4,2.5-5.8,2.5-5.8S68.3-66.5,68.3-65.1z"/>
      <path d="M36.7-65.1c0,1.4-1.1,2.5-2.5,2.5c-1.4,0-2.5-1.1-2.5-2.5c0-1.4,2.5-5.8,2.5-5.8S36.7-66.5,36.7-65.1z"/>
      <path d="M5-65.1c0,1.4-1.1,2.5-2.5,2.5S0-63.7,0-65.1c0-1.4,2.5-5.8,2.5-5.8S5-66.5,5-65.1z"/>
      <path d="M84.2-81.7c0,1.4-1.1,2.5-2.5,2.5c-1.4,0-2.5-1.1-2.5-2.5c0-1.4,2.5-5.8,2.5-5.8S84.2-83.1,84.2-81.7z"/>
      <path d="M52.5-81.7c0,1.4-1.1,2.5-2.5,2.5s-2.5-1.1-2.5-2.5c0-1.4,2.5-5.8,2.5-5.8S52.5-83.1,52.5-81.7z"/>
      <path d="M20.8-81.7c0,1.4-1.1,2.5-2.5,2.5c-1.4,0-2.5-1.1-2.5-2.5c0-1.4,2.5-5.8,2.5-5.8S20.8-83.1,20.8-81.7z"/>
      <path d="M95.2-98.6C95.1-98.3,95-98,95-97.7c0,1.4,1.1,2.5,2.5,2.5s2.5-1.1,2.5-2.5c0-0.2-0.1-0.5-0.2-0.8H95.2z"/>
      <path d="M63.3-97.7c0,1.4,1.1,2.5,2.5,2.5c1.4,0,2.5-1.1,2.5-2.5c0-0.2-0.1-0.5-0.2-0.8h-4.7C63.4-98.3,63.3-98,63.3-97.7z"/>
      <path d="M31.7-97.7c0,1.4,1.1,2.5,2.5,2.5c1.4,0,2.5-1.1,2.5-2.5c0-0.2-0.1-0.5-0.2-0.8h-4.7C31.7-98.3,31.7-98,31.7-97.7z"/>
      <path d="M0-97.7c0,1.4,1.1,2.5,2.5,2.5S5-96.4,5-97.7c0-0.2-0.1-0.5-0.2-0.8H0.2C0.1-98.3,0-98,0-97.7z"/>
    </g>
    <path fill="#FFF9E6" class="icon-animation--creativity__lightning-bolt icon-animation--creativity__lightning-bolt--1"  d="M26.5,40.5c-1.8-2-3.6-4.1-5.4-6.1c0,0-0.1-0.1-0.2-0.1c0,0.1,0,0.1,0,0.2c0.9,1.6,1.9,3.3,2.8,4.9c2,3.5,4.1,7,6.1,10.5 c0,0.1-0.2,0.1-0.2,0.2c0,0-0.3,0-0.3-0.1c0.1-0.9,0.2-1.8,0.3-2.7c1.8,1.9,2.8,3.7,4.1,5.6c0.2-1.5,0.6-2.9,0.9-4.4 c0.1,0.1,0.2,0.2,0.3,0.2c1.4,1.8,2.9,3.6,4.4,5.3c1.1,1.4,2.2,2.7,3.4,4.1c0,0,0.1,0.1,0.2,0.1c0-0.1,0-0.1,0-0.2 c0,0,0-0.1,0-0.1c-1-1.7-1.9-3.3-2.9-5c-2.1-3.6-4.1-7.1-6.2-10.7c-0.3-0.5-0.5-0.9-0.8-1.4c0,0,0,0,0,0c-0.1,1.3-0.3,2.6-0.4,3.9 c0,0,0,0,0,0c-1.1-1.7-2.1-3.5-3.2-5.2c0,0,0,0,0,0c-0.2,1.1-0.4,2.3-0.6,3.4c-0.1-0.1-0.1-0.1-0.1-0.2 C27.9,42.1,27.2,41.3,26.5,40.5z"/>
    <g class="icon-animation--creativity__bulb-full">
      <g fill="#029978">
        <path d="M56.9,80.6c0,1.1-3.4,1.9-7.6,1.9s-7.6-0.8-7.6-1.9C41.7,79.5,56.9,79.5,56.9,80.6z"/>
        <path d="M59.8,78.4H39c-0.4,0-0.8-0.3-0.8-0.7c0-0.4,0.3-0.8,0.7-0.9l10.4-1.6H39c-0.4,0-0.8-0.3-0.8-0.7c0-0.4,0.3-0.8,0.7-0.9 l10.4-1.6H39c-0.4,0-0.8-0.3-0.8-0.7c0-0.4,0.3-0.8,0.7-0.9l10.4-1.6H38.7c-0.4,0-0.8-0.4-0.8-0.8s0.4-0.8,0.8-0.8h21 c0.4,0,0.8,0.3,0.8,0.7c0,0.4-0.3,0.8-0.7,0.9l-10.4,1.6h10.3c0.4,0,0.8,0.3,0.8,0.7c0,0.4-0.3,0.8-0.7,0.9l-10.4,1.6h10.3 c0.4,0,0.8,0.3,0.8,0.7c0,0.4-0.3,0.8-0.7,0.9l-10.4,1.6h10.5c0.4,0,0.8,0.4,0.8,0.8S60.3,78.4,59.8,78.4z"/>
      </g>
      <path fill="#EB4B4B" class="icon-animation--creativity__bulb-brain" d="M67.9,23.1c-1.8-1.4-4.5-1.5-6.9-0.4c-2.2,1-3.6,2.9-3.8,5.1c-0.1,1,0.2,2.1,0.8,3.1c0.2,0.3,0.1,0.6-0.2,0.8 c-0.3,0.2-0.6,0.1-0.8-0.2c-0.7-1.2-1-2.5-0.9-3.7c0.1-2.6,1.8-4.8,4.4-6c2.2-1,4.7-1.1,6.7-0.2c-0.6-1.6-1.6-2.8-2.8-3.5 c-1-0.6-2-0.8-2.9-0.9c0,0,0,0,0,0c-1.7-0.2-3.1,0.1-3.1,0.1c-0.3,0.1-0.6-0.1-0.7-0.4c-0.1-0.3,0.1-0.6,0.4-0.7 c0.1,0,1-0.3,2.3-0.2c-1.2-1.3-3.2-1.5-4.5-1.5c0.3,0.4,0.5,0.9,0.7,1.2c0.8,2,0.5,4.6-0.7,6.7c0.4,0.4,0.6,0.9,0.7,1.5 c0,0.3-0.2,0.6-0.5,0.6c0,0,0,0-0.1,0c-0.3,0-0.5-0.2-0.6-0.5c0-0.4-0.2-0.7-0.5-0.9c-0.5-0.4-1.3-0.3-1.6-0.3 c-0.3,0.1-0.6-0.1-0.7-0.4c-0.1-0.3,0.1-0.6,0.4-0.7c0,0,0.9-0.2,1.7,0.1c1-1.8,1.3-4,0.6-5.7c-0.6-1.4-1.7-2.3-3.3-2.7 c-1.6-0.3-3.2,0.6-3.9,1c-0.4,0.2-0.6,0.3-0.8,0.2c-2.3-0.8-4.3,0.4-5.2,1.1c0.6,0.3,1.3,0.7,1.8,1.4c1.1,1.4,1.4,3.5,1,6 c0.1,0.1,0.2,0.2,0.4,0.3c1,0.8,1.5,2.1,1.3,3.8c0,0.3-0.3,0.5-0.6,0.5c0,0,0,0,0,0c-0.3,0-0.5-0.3-0.5-0.6 c0.1-1.4-0.2-2.3-0.9-2.9c-0.2-0.1-0.3-0.2-0.5-0.3c0,0,0,0,0,0c-1-0.5-2.4-0.4-3.2-0.2c-0.1,0.5-0.2,1.1-0.6,1.7 c-0.1,0.2-0.3,0.3-0.5,0.3c-0.1,0-0.2,0-0.3-0.1c-0.3-0.1-0.4-0.5-0.2-0.8c0.3-0.6,0.5-1.2,0.5-1.6c0,0,0-0.1,0-0.1 c0-0.9-0.6-1.3-0.7-1.4c-0.3-0.2-0.3-0.5-0.2-0.8c0.2-0.3,0.5-0.3,0.8-0.2c0.4,0.3,0.9,0.9,1.1,1.7c0.7-0.1,1.9-0.2,3,0.1 c0.4-2.1,0.1-3.8-0.8-4.9c-1.2-1.5-3.1-1.6-3.1-1.6l0,0c-0.2,0-4-0.2-4.4,3.6l0,0.3l-0.3,0.1c-1.8,0.7-3,1.9-3.5,3.5 c-0.2,0.7-0.2,1.2-0.2,1.6c1-0.1,2.1,0.1,3.1,0.7c1.7,0.9,2.8,2.4,3.1,4.1c0.5,0.1,1.1,0.2,1.7,0.6c0.3,0.2,0.3,0.5,0.1,0.8 c-0.1,0.2-0.3,0.2-0.5,0.2c-0.1,0-0.2,0-0.3-0.1c-0.5-0.3-1-0.5-1.4-0.5c0,0,0,0,0,0c0,0,0,0-0.1,0c-0.8,0-1.5,0.4-1.5,0.5 c-0.3,0.2-0.6,0.1-0.8-0.2c-0.2-0.3-0.1-0.6,0.2-0.8c0,0,0.7-0.4,1.5-0.6c-0.3-1.3-1.2-2.5-2.5-3.1c-1.5-0.8-3.1-0.7-4.4,0.1 c-1.2,0.7-2,2.7-1.4,4.7c0.2,0.7,0.9,2.3,2.8,2.3c0,0,0.1,0,0.1,0c0.8,0,3.9,0,7.8,0c0.4-0.1,6.2-0.9,9.2-5.3 c2.1-3.1,2.5-7.2,1.2-12.3c-0.1-0.3,0.1-0.6,0.4-0.7c0.3-0.1,0.6,0.1,0.7,0.4c1.4,5.4,1,9.9-1.3,13.2c-1.7,2.4-4,3.8-6,4.6 c9.5,0,21.2,0,21.3,0c0,0,0,0,0,0c2.3,0,4.2-1.4,5-3.8C70.6,28.1,70.3,24.9,67.9,23.1z M61.2,18.1c0.2,0,0.3,0.1,0.3,0.2 c0,0.2-0.1,0.3-0.2,0.3c-1.9,0.4-2,2.4-2,2.4c0,0.1-0.1,0.3-0.3,0.3c0,0,0,0,0,0c-0.2,0-0.3-0.1-0.3-0.3 C58.7,21,58.9,18.6,61.2,18.1z M37.5,21.9c-1.9,0.5-1.8,2.3-1.8,2.4c0,0.2-0.1,0.3-0.3,0.3c0,0,0,0,0,0c-0.1,0-0.3-0.1-0.3-0.3 c0,0-0.1-2.4,2.2-3c0.2,0,0.3,0.1,0.3,0.2C37.7,21.7,37.6,21.9,37.5,21.9z M34.1,31c-0.1,0.1-0.1,0.1-0.2,0.1c-0.1,0-0.1,0-0.2-0.1 c-1.2-1.2-2.6-0.2-2.7-0.2c-0.1,0.1-0.3,0.1-0.4-0.1c-0.1-0.1-0.1-0.3,0.1-0.4c0.6-0.4,2.1-1,3.4,0.2C34.2,30.7,34.2,30.9,34.1,31z M43.4,29.4c0,0.1-0.1,0.2-0.3,0.2c0,0-0.1,0-0.1,0c-0.1-0.1-0.2-0.2-0.1-0.4c0.5-1,0.5-1.8,0.2-2.5c-0.3-0.5-0.6-0.7-0.6-0.7 c-0.1-0.1-0.2-0.3-0.1-0.4c0.1-0.1,0.3-0.2,0.4-0.1C42.7,25.4,44.7,26.6,43.4,29.4z M48.5,19.1C48.5,19.1,48.5,19.1,48.5,19.1 c-0.2,0-0.3-0.1-0.3-0.2c-0.5-2.5-2.3-2.5-2.4-2.5c-0.2,0-0.3-0.1-0.3-0.3c0-0.2,0.1-0.3,0.3-0.3c0,0,2.3,0,2.9,3 C48.8,18.9,48.7,19.1,48.5,19.1z M54.7,32.2C54.7,32.3,54.7,32.3,54.7,32.2c-0.2,0-0.3-0.1-0.4-0.2c-0.5-1.8-2.5-1.4-2.6-1.3 c-0.2,0-0.3-0.1-0.3-0.2c0-0.2,0.1-0.3,0.2-0.3c0.2,0,0.5-0.1,0.8-0.1c0.1-1.9,1.9-2.6,1.9-2.6c0.1-0.1,0.3,0,0.4,0.2 c0.1,0.1,0,0.3-0.2,0.4c-0.1,0-1.6,0.6-1.6,2.1c0.8,0.2,1.6,0.6,2,1.7C55,32,54.9,32.2,54.7,32.2z M67.6,26.9 C67.6,26.9,67.6,26.9,67.6,26.9c-0.2,0-0.3-0.1-0.3-0.3c0-2-1.9-2.4-2-2.4c-0.2,0-0.3-0.2-0.2-0.3c0-0.2,0.2-0.2,0.3-0.2 c0,0,2.4,0.5,2.4,2.9C67.9,26.8,67.8,26.9,67.6,26.9z"/>
      <g fill="#EB8E4B">
        <path d="M51.2,43.1c-0.9-0.2-1.9-0.7-2.6-1.4C47,42.5,45,43,43.2,43.4c0,0-1.5,0.4-3.1,0.4L44.8,65h9.1l4.8-21.6 C55.9,43.7,52.2,43.3,51.2,43.1z"/>
        <path d="M61.5,40.6c0-0.2-0.1-0.3-0.2-0.3c-0.1,0-0.3,0.1-0.6,0.5c-0.1,0.1-0.2,0.3-0.4,0.5l-0.1,0.6c0.5-0.1,0.8-0.2,1-0.4 C61.5,41.2,61.5,40.9,61.5,40.6z"/>
        <path d="M50.5,39.1c-0.1-0.2-0.5-0.5-0.8-0.5c0,0,0,0,0,0c-0.3,0-0.5,0.2-0.7,0.6c-0.2,0.4-0.2,0.8,0,1.1c0.6-0.3,1.1-0.6,1.5-1 C50.6,39.2,50.6,39.1,50.5,39.1z"/>
        <path d="M38.3,41.1C38.2,41,38.2,41,38.3,41.1c-0.2,0-0.4,0.1-0.5,0.2c-0.2,0.3-0.3,0.6-0.2,0.7c0.2,0.2,0.6,0.4,1.1,0.5l-0.3-1.3 C38.4,41.1,38.4,41.1,38.3,41.1z"/>
        <path d="M70.7,36H28.6c-0.1,1-0.1,1.1-0.2,1.6c-0.3,4.4,0.8,9.2,3.7,14.2c0.6,1,1.2,2.1,2,3.3c1.9,2.9,4.1,6.4,4.1,9 c0,0.4,0.3,1,0.8,1h4.7L39,43.8c-1-0.1-1.8-0.5-2.3-1c-0.3-0.4-0.5-1,0.1-2c0.3-0.5,1-0.9,1.6-0.7c0.5,0.1,0.9,0.4,1,1l0.4,1.6 c1.1,0,2.4-0.1,3.1-0.2c1.7-0.4,3.5-0.9,5.1-1.6c-0.3-0.6-0.3-1.3,0-2c0.3-0.8,1-1.2,1.7-1.2c0.8,0,1.6,0.5,1.8,1.2 c0.2,0.5,0,1-0.4,1.4c-0.4,0.4-0.9,0.7-1.5,1c0.5,0.4,1.2,0.7,1.8,0.8c1.3,0.3,5,0.4,7.5,0.2l0.3-1.2l0-0.1 c0.2-0.3,0.3-0.5,0.5-0.7c0.7-0.9,1.4-0.9,1.7-0.9c0.5,0.1,0.9,0.5,1,1.1c0.2,0.7-0.1,1.5-0.7,2c-0.4,0.3-1.1,0.7-2,0.9L55,65h4.6 c0.4,0,0.8-0.5,0.8-1c0-2.5,2.2-5.9,4.1-8.9c0.8-1.1,1.6-2.3,2.2-3.3c2.9-5,4.4-9.9,4.1-14.3C70.9,37.1,70.8,37,70.7,36z"/>
      </g>
      <path fill="#EB8E4B" class="icon-animation--creativity__bulb-top" d="M50,17.7L50,17.7C39.5,17.7,30,26,28.6,36h42.2C69.3,26,59.6,17.7,50,17.7z"/>
    </g>
    <path fill="#FFF9E6" class="icon-animation--creativity__lightning-bolt icon-animation--creativity__lightning-bolt--2" d="M51.2,25.7c0.2-2.7,0.4-5.4,0.5-8.1c0-0.1,0-0.1-0.1-0.2c0,0.1-0.1,0.1-0.1,0.2c-0.5,1.8-1,3.7-1.5,5.5 c-1,3.9-2.1,7.8-3.1,11.8c0,0.1-0.2-0.1-0.3,0c0,0-0.2-0.2-0.2-0.2c0.7-0.5,1.4-1.1,2.1-1.7c-0.1,2.6-0.6,4.6-1,6.9 c1.2-0.9,2.5-1.6,3.7-2.5c0,0.1,0,0.3,0,0.3c-0.2,2.3-0.5,4.6-0.7,6.9c-0.2,1.8-0.4,3.5-0.5,5.3c0,0.1,0,0.1,0,0.2 c0,0,0.1-0.1,0.1-0.1c0,0,0-0.1,0-0.1c0.5-1.9,1-3.7,1.5-5.6c1.1-4,2.1-7.9,3.2-11.9c0.1-0.5,0.3-1.1,0.4-1.6c0,0,0,0,0,0 c-1,0.8-2,1.6-3,2.5c0,0,0,0,0,0c0.5-2,1-4,1.4-6c0,0,0,0,0,0c-0.9,0.7-1.9,1.3-2.8,2c0-0.1,0-0.2,0-0.2 C51,27.8,51.1,26.8,51.2,25.7z"/>
    <path fill="#FFF9E6" class="icon-animation--creativity__lightning-bolt icon-animation--creativity__lightning-bolt--3" d="M75,39.7c1.8-2,3.6-4.1,5.4-6.1c0,0,0-0.1,0.1-0.2c-0.1,0-0.1,0-0.2,0.1c-1.5,1.1-3,2.3-4.5,3.4c-3.2,2.5-6.5,4.9-9.7,7.4 c-0.1,0-0.1-0.1-0.2-0.1c0,0,0-0.2,0-0.2c0.9,0,1.8,0,2.7,0c-1.7,2-3.3,3.2-5,4.7c1.5,0,3,0.2,4.5,0.2c-0.1,0.1-0.1,0.2-0.2,0.3 c-1.6,1.7-3.2,3.3-4.7,5c-1.2,1.3-2.4,2.6-3.7,3.8c0,0,0,0.1-0.1,0.2c0.1,0,0.1,0,0.2,0c0,0,0.1,0,0.1-0.1 c1.5-1.2,3.1-2.3,4.6-3.5c3.3-2.5,6.5-5,9.8-7.5c0.4-0.3,0.9-0.7,1.3-1c0,0,0,0,0,0c-1.3,0-2.6,0.1-3.9,0.1c0,0,0,0,0,0 c1.6-1.3,3.2-2.6,4.8-3.8c0,0,0,0,0,0c-1.1,0-2.3-0.1-3.5-0.1c0.1-0.1,0.1-0.1,0.1-0.2C73.6,41.3,74.3,40.5,75,39.7z"/>
  </g>
  <path fill="#EB4B4B" d="M50,3A47,47,0,1,1,3,50,47.05,47.05,0,0,1,50,3m0-3a50,50,0,1,0,50,50A50,50,0,0,0,50,0Z"/>
  <path fill="#FFF9E6" d="M50,11A39,39,0,1,1,11,50,39,39,0,0,1,50,11m0-6A45,45,0,1,0,95,50,45,45,0,0,0,50,5Z"/>
</svg>
