<svg class="icon-animation icon-animation--passion" xmlns="http://www.w3.org/2000/svg" viewBox="0 0 100 100">
  <defs>
    <style>
      .cls-1 {
        fill: none;
      }

      .cls-2 {
        clip-path: url(#clip-path);
      }
    </style>
    <clipPath id="clip-path">
      <path class="cls-1" d="M50,5A45,45,0,1,0,95,50,45.05,45.05,0,0,0,50,5Z"/>
    </clipPath>
  </defs>
  <title>Passion</title>
  <g class="cls-2">
    <g class="icon-animation--passion__heart">
      <path fill="#EB8E4B" d="M61.79,26.08A16.65,16.65,0,0,1,78.14,45.93h0A33.17,33.17,0,0,1,72.25,59a63.21,63.21,0,0,1-9.82,10.66A90.93,90.93,0,0,1,50,78.82a90.69,90.69,0,0,1-12.37-9.09A63.34,63.34,0,0,1,27.78,59a33.2,33.2,0,0,1-5.91-13.1h0A16.67,16.67,0,0,1,48.79,29.86l1.21,1,1.21-1a16.69,16.69,0,0,1,10.58-3.78h0m0-1.9A18.52,18.52,0,0,0,50,28.39a18.56,18.56,0,0,0-30,17.9C23.66,66.28,50,81,50,81S76.34,66.28,80,46.29A18.55,18.55,0,0,0,61.79,24.18Z"/>
      <circle fill="#EB8E4B" cx="50.97" cy="60.29" r="3"/>
      <path fill="#FFF9E6" class="icon-animation--passion__gear icon-animation--passion__gear--2" d="M60.15,57.88a9.45,9.45,0,0,0-1-2.35l2-2.88-1.28-1.27L58.59,50.1l-3,2a8.27,8.27,0,0,0-2.41-1h0l-.48-3.87h-3.6l-.67,3.89h0a7.54,7.54,0,0,0-2.29,1v0l-2.88-2L42,51.37l-1.27,1.27,2,2.89a7.15,7.15,0,0,0-.93,2.2h0l-3.8.75v3.6l3.79.39h0a8.39,8.39,0,0,0,1,2.43l0,.07-2,2.92,1.29,1.3,1.26,1.26,2.89-2v0a7.54,7.54,0,0,0,2.29,1h0l.67,3.52h3.6l.48-3.51h0a8.26,8.26,0,0,0,2.41-1l2.92,2,1.31-1.29,1.26-1.26-2-2.88a9.53,9.53,0,0,0,1-2.35l3.53-.61v-3.6ZM51,65.22a4.94,4.94,0,1,1,4.94-4.94A4.94,4.94,0,0,1,51,65.22Z"/>
      <circle fill="#EB8E4B" cx="63.58" cy="41.76" r="3"/>
      <path fill="#029978" class="icon-animation--passion__gear icon-animation--passion__gear--1" d="M72.63,39.35A9.29,9.29,0,0,0,71.69,37l2-2.88-1.26-1.27-1.27-1.27-3.08,2a9.09,9.09,0,0,0-2.54-1h0l-.22-3.68h-3.6l-.93,3.7h0a6.63,6.63,0,0,0-2.12.94l-2.84-2-1.25,1.27-1.26,1.27,2,2.9,0,0a7.84,7.84,0,0,0-1,2.34h0L51.33,40v3.6l3.09.58h0a7.78,7.78,0,0,0,1,2.33l0,0-2,2.9,1.29,1.29,1.26,1.26,2.84-2a6.5,6.5,0,0,0,2.07.91h0l.93,3.71h3.6l.22-3.7h0a9.11,9.11,0,0,0,2.54-1l3,2,1.34-1.29,1.28-1.26-2-2.88a9.22,9.22,0,0,0,.91-2.35l3.4-.61V40Zm-9,7.34a4.94,4.94,0,1,1,4.94-4.94A4.94,4.94,0,0,1,63.58,46.69Z"/>
      <path fill="#EB4B4B" d="M50,81S23.66,66.28,20,46.29a18.56,18.56,0,0,1,30-17.9Z"/>
    </g>
  </g>
  <path fill="#EB4B4B" d="M50,3A47,47,0,1,1,3,50,47.05,47.05,0,0,1,50,3m0-3a50,50,0,1,0,50,50A50,50,0,0,0,50,0Z"/>
  <path fill="#FFF9E6" d="M50,11A39,39,0,1,1,11,50,39,39,0,0,1,50,11m0-6A45,45,0,1,0,95,50,45,45,0,0,0,50,5Z"/>
</svg>
