<?xml version="1.0" encoding="UTF-8"?>
<svg xmlns="http://www.w3.org/2000/svg" viewBox="0 0 100 100" height="100" width="100">
  <polygon fill="#efefef"
    points="49.97 34.58 50 34.58 61.64 34.58 60.88 43.06 50 43.06 49.97 43.06 30.73 43.06 31.47 51.33 49.97 51.33 50 51.33 60.17 51.33 59.21 62.07 49.97 64.56 49.97 64.56 49.96 64.57 40.74 62.08 40.15 55.47 35.67 55.47 31.84 55.47 33 68.47 49.96 73.18 50 73.17 50 73.17 66.94 68.47 67.07 67.07 69.01 45.28 69.22 43.06 70.71 26.3 50 26.3 49.97 26.3 29.24 26.3 29.99 34.58 49.97 34.58" />
  <path fill="#efefef" d="m0,0v100h100V0H0Zm77.04,79.99l-27.08,7.51-27.01-7.5L16.93,12.5h66.13l-6.02,67.49Z" />
</svg>