<?xml version="1.0" encoding="utf-8"?>
<!-- Generator: Adobe Illustrator 27.5.0, SVG Export Plug-In . SVG Version: 6.00 Build 0)  -->
<svg version="1.1" id="Layer_1" xmlns="http://www.w3.org/2000/svg" xmlns:xlink="http://www.w3.org/1999/xlink" x="0px" y="0px"
	 viewBox="0 0 100 100" style="enable-background:new 0 0 100 100;" xml:space="preserve">
<style type="text/css">
	.st0{fill:#FFAA00;}
</style>
<polygon class="st0" points="58.7,28.7 58.7,28.7 74.8,35.4 68.9,46.7 53.8,40.5 53.8,40.5 27.1,29.4 23.4,41.3 49.1,51.9 49.1,52 
	63.2,57.8 55.7,72.1 41.5,70.3 41.5,70.3 41.4,70.3 30.1,61.5 33.1,52 26.9,49.5 21.6,47.3 15.7,66 36.5,82.2 36.6,82.2 36.6,82.2 
	62.7,85.4 63.7,83.6 78.9,54.5 80.5,51.5 92.2,29.2 63.5,17.3 63.4,17.3 34.7,5.4 31,17.3 "/>
<path class="st0" d="M0,0v100h100V0H0z M70.3,107.1l-41.8-5.1L-4.7,76.1l30.4-97l91.6,38L70.3,107.1z"/>
</svg>
