<?xml version="1.0" encoding="UTF-8"?>
<svg xmlns="http://www.w3.org/2000/svg" viewBox="0 0 100 100" height="100" width="100">
  <path fill="#efefef" d="m0,0v100h100V0H0Zm87.5,71.65l-37.5,21.65-37.5-21.65V28.35L50,6.7l37.5,21.65v43.3Z" />
  <g fill="#efefef">
    <path d="m48.51,42.54s-11.92,7.46-16.04,7.46-7.46-3.34-7.46-7.46,3.34-7.46,7.46-7.46,16.04,7.46,16.04,7.46Z" />
    <path d="m51.49,42.54s11.92-7.46,16.04-7.46,7.46,3.34,7.46,7.46-3.34,7.46-7.46,7.46-16.04-7.46-16.04-7.46Z" />
    <circle cx="50" cy="35.82" r="3.73" />
    <path d="m55.34,48.9c-1.36-2.08-3.25-3.38-5.34-3.38s-3.99,1.3-5.34,3.38h10.68Z" />
    <path d="m43.27,51.89c-.34,1.05-.57,2.18-.67,3.38h14.79c-.1-1.2-.33-2.33-.67-3.38h-13.45Z" />
    <path d="m44.69,64.58c1.35,2.06,3.23,3.34,5.31,3.34s3.96-1.28,5.31-3.34h-10.62Z" />
    <path d="m56.71,61.59c.33-1.03.57-2.15.67-3.34h-14.77c.11,1.18.34,2.3.67,3.34h13.42Z" />
  </g>
</svg>