<?xml version="1.0" encoding="utf-8"?>
<!-- Generator: Adobe Illustrator 27.5.0, SVG Export Plug-In . SVG Version: 6.00 Build 0)  -->
<svg version="1.1" id="Layer_1" xmlns="http://www.w3.org/2000/svg" xmlns:xlink="http://www.w3.org/1999/xlink" x="0px" y="0px"
	 viewBox="0 0 100 100" style="enable-background:new 0 0 100 100;" xml:space="preserve">
<style type="text/css">
	.st0{fill:#FFAA00;}
</style>
<path class="st0" d="M0,0v100h100V0H0z M96.1,85.6c-6.9,16.6-25.3,25.6-42.4,20c-9-2.9-15.9-9.1-19.9-16.7c-7.4,2.3-15.6,2.2-23.3-1
	C0.8,83.8-6.1,75.7-9,66.4l-7.4-3l33.6-81.1l22.3,9.2L14.3,52.3c-2.1,5.1,0.7,11.1,6.2,12.9c4.6,1.5,9.8-0.5,11.9-4.9
	c2.4-5-0.1-10.9-5.3-13.1l9.5-22.8c17.6,7.3,26,27.4,18.7,44.9C53,74.7,56.2,81,62.2,82.3c4.6,1,9.2-1.6,11-5.9l3.6-8.6L67.6,64
	l9.5-22.8l32,13.2L96.1,85.6L96.1,85.6z"/>
</svg>
