<?xml version="1.0" encoding="UTF-8"?>
<svg xmlns="http://www.w3.org/2000/svg" viewBox="0 0 100 100">
  <path fill="#efefef" class="b"
    d="m0,0v100h100V0H0Zm87.5,60.16c0,11.97-9.06,22.19-20.99,23.15-6.29.51-12.1-1.55-16.51-5.23-3.97,3.31-9.07,5.31-14.63,5.31-7.05,0-13.37-3.21-17.56-8.24h-5.31V16.62h16.07v43.89c0,3.68,3.23,6.64,7.09,6.37,3.24-.23,5.93-2.81,6.09-6.06.18-3.66-2.85-6.69-6.59-6.69v-16.48c12.68,0,23,10.26,23,22.87,0,3.91,3.55,7.01,7.61,6.28,3.07-.55,5.24-3.33,5.24-6.45v-6.22h-6.59v-16.48h23.08v22.52Z" />
</svg>