<?xml version="1.0" standalone="no"?>
<!DOCTYPE svg PUBLIC "-//W3C//DTD SVG 20010904//EN"
 "http://www.w3.org/TR/2001/REC-SVG-20010904/DTD/svg10.dtd">
<svg version="1.0" xmlns="http://www.w3.org/2000/svg"
 width="700.000000pt" height="700.000000pt" viewBox="0 0 700.000000 700.000000"
 preserveAspectRatio="xMidYMid meet">
<metadata>
Created by potrace 1.14, written by Peter Selinger 2001-2017
</metadata>
<g transform="translate(0.000000,700.000000) scale(0.100000,-0.100000)"
fill="#000000" stroke="none">
<path d="M0 3880 l0 -2730 58 0 c79 -1 315 -1 383 0 l56 0 0 2730 0 2730 -249
0 -248 0 0 -2730z"/>
<path d="M1048 6608 c-1 -2 -3 -925 -5 -2053 -2 -1127 -4 -2061 -5 -2075 -2
-39 11 -146 27 -214 48 -206 144 -377 299 -532 173 -172 376 -272 631 -311 68
-11 246 -7 325 7 168 29 355 110 485 210 96 75 223 219 283 322 55 97 114 259
127 352 3 23 8 49 11 59 7 23 8 263 1 274 -3 4 -8 32 -12 62 -9 70 -55 212
-96 293 -174 348 -520 581 -899 605 l-85 5 0 -247 0 -248 45 -4 c141 -12 266
-69 366 -168 232 -228 245 -575 32 -818 -81 -92 -218 -172 -335 -193 -96 -18
-233 -3 -336 36 -115 43 -248 165 -302 276 -65 133 -59 -68 -62 2257 l-3 2107
-245 0 c-135 0 -246 -1 -247 -2z"/>
<path d="M2139 4648 c-1 -2 -2 -113 -3 -247 -1 -157 2 -245 9 -246 5 -2 49 -6
96 -10 530 -37 1027 -342 1293 -795 71 -120 167 -352 183 -440 2 -14 8 -41 14
-62 15 -60 30 -186 34 -308 2 -63 7 -137 10 -165 32 -240 139 -459 310 -630
248 -250 571 -362 925 -322 164 19 364 98 500 199 87 64 213 197 270 283 98
151 152 297 176 475 12 88 11 1219 -1 1223 -9 3 -1073 1 -1085 -2 -3 0 -5
-111 -5 -246 l0 -245 60 0 c33 -1 167 -1 298 0 l237 0 0 -332 c-1 -362 -5
-400 -58 -518 -25 -59 -72 -122 -130 -178 -256 -245 -683 -205 -886 83 -81
115 -112 210 -115 360 -1 50 -4 108 -6 130 -2 22 -7 69 -10 105 -15 166 -77
400 -153 580 -188 443 -511 800 -952 1050 -191 109 -462 199 -702 234 -96 14
-307 30 -309 24z"/>
<path d="M4920 4640 l-55 -5 0 -242 c0 -207 2 -242 15 -246 8 -2 376 -3 818
-3 l802 1 1 -25 c4 -142 0 -1704 -5 -1760 -39 -425 -247 -826 -571 -1099 -238
-201 -481 -314 -799 -371 -80 -15 -139 -18 -286 -15 -186 3 -201 5 -320 31
-36 8 -76 17 -89 20 -105 23 -360 142 -482 225 -135 92 -284 233 -391 372
l-60 79 -22 -32 c-70 -104 -205 -248 -321 -342 -226 -181 -478 -291 -790 -343
-81 -14 -412 -15 -465 -1 -14 3 -38 8 -55 11 -74 13 -96 18 -189 47 -55 16
-133 45 -174 64 -40 19 -75 34 -77 34 -22 0 -266 160 -334 219 -13 12 -27 21
-31 21 -3 0 -6 -31 -5 -70 2 -57 -1 -70 -14 -74 -9 -2 -127 -3 -263 -2 -216 1
-245 -1 -238 -14 16 -29 236 -235 315 -296 237 -181 497 -308 774 -379 53 -14
114 -27 136 -31 22 -3 47 -8 55 -9 8 -2 40 -6 70 -9 30 -4 73 -9 95 -12 45 -5
257 -5 325 1 123 10 156 14 280 39 293 60 588 194 841 382 85 63 104 72 111
56 4 -11 134 -107 208 -154 222 -140 525 -258 772 -298 35 -5 74 -13 88 -16
14 -4 124 -8 245 -9 275 -4 448 21 680 95 603 194 1085 640 1329 1232 49 118
102 305 128 452 22 119 22 142 26 1299 l3 1177 -53 0 c-422 4 -1987 4 -2028 0z"/>
</g>
</svg>
