<svg xmlns="http://www.w3.org/2000/svg" viewBox="0 0 1920 560">
  <defs>
    <style>
      .a {
        fill: #475370;
      }
    </style>
  </defs>
  <rect class="a" x="1904" y="406" width="5" height="5.29" rx="3"/>
  <rect class="a" x="1828" y="526" width="2" height="2.4" rx="1"/>
  <rect class="a" x="1668" y="494" width="5" height="4.53" rx="2"/>
  <rect class="a" x="1539" y="393" width="8" height="7.84" rx="4"/>
  <rect class="a" x="1403" y="436" width="3" height="2.63" rx="1"/>
  <rect class="a" x="1368" y="383" width="6" height="5.92" rx="3"/>
  <rect class="a" x="1357" y="403" width="5" height="4.75" rx="2"/>
  <rect class="a" x="1215" y="484" width="5" height="4.67" rx="2"/>
  <rect class="a" x="1107" y="500" width="7" height="7.39" rx="4"/>
  <rect class="a" x="1089" y="515" width="4" height="4.14" rx="2"/>
  <rect class="a" x="985" y="480" width="5" height="5.34" rx="3"/>
  <rect class="a" x="957" y="438" width="6" height="5.83" rx="3"/>
  <rect class="a" x="874" y="475" width="8" height="7.88" rx="4"/>
  <rect class="a" x="737" y="382" width="5" height="5.3" rx="3"/>
  <rect class="a" x="633" y="442" width="4" height="3.85" rx="2"/>
  <rect class="a" x="564" y="397" width="6" height="5.69" rx="3"/>
  <rect class="a" x="482" y="392" width="7" height="7.46" rx="4"/>
  <rect class="a" x="477" y="498" width="5" height="4.74" rx="2"/>
  <rect class="a" x="317" y="450" width="4" height="3.98" rx="2"/>
  <rect class="a" x="225" y="495" width="5" height="5.23" rx="3"/>
  <rect class="a" x="190" y="419" width="6" height="6.33" rx="3"/>
  <rect class="a" x="144" y="416" width="3" height="3.48" rx="2"/>
  <rect class="a" x="9" y="438" width="5" height="5.05" rx="3"/>
  <rect class="a" x="9" y="532" width="2" height="2.44" rx="1"/>
  <rect class="a" x="1894" y="360" width="3" height="3.47" rx="2"/>
  <rect class="a" x="1867" y="312" width="3" height="3.46" rx="2"/>
  <rect class="a" x="1805" y="311" width="2" height="2.29" rx="1"/>
  <rect class="a" x="1707" y="340" width="8" height="7.95" rx="4"/>
  <rect class="a" x="1578" y="408" width="7" height="7.29" rx="4"/>
  <rect class="a" x="1562" y="313" width="5" height="5.24" rx="3"/>
  <rect class="a" x="1436" y="407" width="2" height="1.65" rx="1"/>
  <rect class="a" x="1407" y="421" width="7" height="6.51" rx="3"/>
  <rect class="a" x="1259" y="375" width="5" height="5.41" rx="3"/>
  <rect class="a" x="1112" y="391" width="4" height="4.21" rx="2"/>
  <rect class="a" x="1032" y="354" width="7" height="7.46" rx="4"/>
  <rect class="a" x="876" y="282" width="5" height="4.62" rx="2"/>
  <rect class="a" x="728" y="325" width="7" height="6.57" rx="3"/>
  <rect class="a" x="665" y="388" width="4" height="4.44" rx="2"/>
  <rect class="a" x="554" y="276" width="4" height="3.7" rx="2"/>
  <rect class="a" x="411" y="360" width="3" height="3.45" rx="2"/>
  <rect class="a" x="382" y="419" width="5" height="4.79" rx="2"/>
  <rect class="a" x="238" y="337" width="3" height="3.39" rx="2"/>
  <rect class="a" x="127" y="422" width="2" height="1.99" rx="1"/>
  <rect class="a" x="7" y="274" width="6" height="6.04" rx="3"/>
  <rect class="a" x="1851" y="212" width="4" height="4.25" rx="2"/>
  <rect class="a" x="1816" y="252" width="7" height="7.27" rx="4"/>
  <rect class="a" x="1797" y="237" width="5" height="4.51" rx="2"/>
  <rect class="a" x="1778" y="280" width="5" height="5.1" rx="3"/>
  <rect class="a" x="1671" y="224" width="2" height="2.38" rx="1"/>
  <rect class="a" x="1614" y="264" width="2" height="2.33" rx="1"/>
  <rect class="a" x="1569" y="242" width="7" height="6.81" rx="3"/>
  <rect class="a" x="1564" y="282" width="7" height="7" rx="4"/>
  <rect class="a" x="1403" y="266" width="5" height="5.1" rx="3"/>
  <rect class="a" x="1290" y="234" width="6" height="5.51" rx="3"/>
  <rect class="a" x="1186" y="276" width="3" height="2.89" rx="1"/>
  <rect class="a" x="1117" y="225" width="2" height="1.92" rx="1"/>
  <rect class="a" x="1046" y="185" width="7" height="6.57" rx="3"/>
  <rect class="a" x="936" y="260" width="3" height="3.07" rx="2"/>
  <rect class="a" x="878" y="238" width="3" height="3.04" rx="2"/>
  <rect class="a" x="738" y="328" width="2" height="2.33" rx="1"/>
  <rect class="a" x="724" y="197" width="7" height="6.83" rx="3"/>
  <rect class="a" x="564" y="199" width="4" height="3.61" rx="2"/>
  <rect class="a" x="547" y="292" width="7" height="6.62" rx="3"/>
  <rect class="a" x="519" y="228" width="6" height="5.98" rx="3"/>
  <rect class="a" x="435" y="182" width="6" height="6.22" rx="3"/>
  <rect class="a" x="301" y="213" width="4" height="3.85" rx="2"/>
  <rect class="a" x="289" y="202" width="5" height="5.2" rx="3"/>
  <rect class="a" x="174" y="333" width="6" height="6.24" rx="3"/>
  <rect class="a" x="134" y="306" width="4" height="4.3" rx="2"/>
  <rect class="a" x="43" y="260" width="5" height="4.91" rx="2"/>
  <rect class="a" x="6" y="254" width="7" height="7.13" rx="4"/>
  <rect class="a" x="1886" y="178" width="5" height="4.78" rx="2"/>
  <rect class="a" x="1730" y="207" width="3" height="2.51" rx="1"/>
  <rect class="a" x="1683" y="95" width="4" height="4.5" rx="2"/>
  <rect class="a" x="1677" y="221" width="5" height="5.22" rx="3"/>
  <rect class="a" x="1628" y="110" width="4" height="3.94" rx="2"/>
  <rect class="a" x="1473" y="176" width="5" height="4.72" rx="2"/>
  <rect class="a" x="1375" y="90" width="7" height="6.82" rx="3"/>
  <rect class="a" x="1271" y="205" width="5" height="5.26" rx="3"/>
  <rect class="a" x="1237" y="217" width="7" height="7.08" rx="4"/>
  <rect class="a" x="1097" y="213" width="5" height="5.19" rx="3"/>
  <rect class="a" x="1033" y="223" width="4" height="3.56" rx="2"/>
  <rect class="a" x="892" y="213" width="3" height="2.99" rx="1"/>
  <rect class="a" x="787" y="137" width="5" height="4.65" rx="2"/>
  <rect class="a" x="643" y="191" width="3" height="3.45" rx="2"/>
  <rect class="a" x="597" y="229" width="6" height="5.56" rx="3"/>
  <rect class="a" x="532" y="222" width="5" height="4.71" rx="2"/>
  <rect class="a" x="368" y="86" width="7" height="7.39" rx="4"/>
  <rect class="a" x="325" y="196" width="6" height="6.15" rx="3"/>
  <rect class="a" x="181" y="110" width="7" height="6.91" rx="3"/>
  <rect class="a" x="94" y="102" width="3" height="3.1" rx="2"/>
  <rect class="a" x="7" y="132" width="5" height="5.06" rx="3"/>
  <rect class="a" x="1870" y="68" width="2" height="2.33" rx="1"/>
  <rect class="a" x="1712" y="46" width="5" height="5.49" rx="3"/>
  <rect class="a" x="1628" y="93" width="7" height="6.64" rx="3"/>
  <rect class="a" x="1583" y="6" width="7" height="7.43" rx="4"/>
  <rect class="a" x="1508" y="96" width="7" height="6.65" rx="3"/>
  <rect class="a" x="1427" y="131" width="6" height="5.52" rx="3"/>
  <rect class="a" x="1388" y="71" width="4" height="4.36" rx="2"/>
  <rect class="a" x="1285" y="-3" width="8" height="7.9" rx="4"/>
  <rect class="a" x="1201" y="34" width="2" height="2.32" rx="1"/>
  <rect class="a" x="1113" y="119" width="3" height="2.87" rx="1"/>
  <rect class="a" x="967" y="125" width="5" height="5.5" rx="3"/>
  <rect class="a" x="894" y="26" width="6" height="5.68" rx="3"/>
  <rect class="a" x="821" y="14" width="2" height="2.33" rx="1"/>
  <rect class="a" x="718" y="33" width="6" height="6.22" rx="3"/>
  <rect class="a" x="580" y="118" width="5" height="5.34" rx="3"/>
  <rect class="a" x="361" y="59" width="7" height="6.88" rx="3"/>
  <rect class="a" x="212" y="45" width="4" height="3.87" rx="2"/>
  <rect class="a" x="155" y="50" width="8" height="7.72" rx="4"/>
  <rect class="a" x="37" y="124" width="6" height="6.17" rx="3"/>
  <rect class="a" x="8" y="37" width="3" height="3.09" rx="2"/>
</svg>
