<?xml version="1.0" encoding="utf-8"?>
<!-- Generator: Adobe Illustrator 24.3.0, SVG Export Plug-In . SVG Version: 6.00 Build 0)  -->
<svg version="1.1" id="Layer_1" xmlns="http://www.w3.org/2000/svg" xmlns:xlink="http://www.w3.org/1999/xlink" x="0px"
  y="0px" viewBox="0 0 1920 427" style="enable-background:new 0 0 1920 427;" xml:space="preserve">
  <style type="text/css">
    .st0 {
      fill: #242b3a;
      stroke: #475370;
      stroke-linejoin: bevel;
    }
  </style>
  <polygon class="st0" points="1556,427 1304,427 1462,321 " />
  <polygon class="st0" points="1462,321 1304,427 1425,143 " />
  <polygon class="st0" points="1556,427 1462,321 1425,143 " />
  <polygon class="st0" points="1631,259 1425,143 1590,88 " />
  <polygon class="st0" points="235,264 159,184 283,120 " />
  <polygon class="st0" points="366,173 283,120 471,88 " />
  <polygon class="st0" points="325,335 283,120 366,173 " />
  <polygon class="st0" points="366,173 325,335 471,88 " />
  <polygon class="st0" points="375,427 325,335 471,88 " />
  <polygon class="st0" points="518,336 471,88 631,199 " />
  <polygon class="st0" points="518,336 375,427 471,88 " />
  <polygon class="st0" points="600,427 375,427 518,336 " />
  <polygon class="st0" points="872,240 518,336 781,219 " />
  <polygon class="st0" points="893,341 600,427 872,240 " />
  <polygon class="st0" points="1024,427 893,341 1037,184 " />
  <polygon class="st0" points="1024,427 1037,184 1172,184 " />
  <polygon class="st0" points="1386,0 1024,427 1172,184 " />
  <polygon class="st0" points="1304,427 1024,427 1425,143 " />
  <polygon class="st0" points="631,199 630,22 781,219 " />
  <polygon class="st0" points="631,199 471,88 630,22 " />
  <polygon class="st0" points="1425,143 1024,427 1386,0 " />
  <polygon class="st0" points="1024,427 600,427 893,341 " />
  <polygon class="st0" points="893,341 872,240 1037,184 " />
  <polygon class="st0" points="872,240 917,113 1037,184 " />
  <polygon class="st0" points="872,240 781,219 917,113 " />
  <polygon class="st0" points="781,219 518,336 631,199 " />
  <polygon class="st0" points="600,427 518,336 872,240 " />
  <polygon class="st0" points="1556,427 1425,143 1631,259 " />
  <polygon class="st0" points="1780,163 1631,259 1590,88 " />
  <polygon class="st0" points="1725,275 1556,427 1631,259 " />
  <polygon class="st0" points="1725,275 1631,259 1780,163 " />
  <polygon class="st0" points="1772,377 1556,427 1725,275 " />
  <polygon class="st0" points="235,264 50,427 159,184 " />
  <polygon class="st0" points="325,335 50,427 235,264 " />
  <polygon class="st0" points="283,120 325,335 235,264 " />
  <polygon class="st0" points="375,427 50,427 325,335 " />
  <polygon class="st0" points="1772,377 1725,275 1860,296 " />
  <polyline class="st0" points="0,266 159,184 0,226 " />
  <polyline class="st0" points="1920,225 1725,275 1860,296 1920,265 " />
  <polyline class="st0" points="1920,413 1772,377 1556,427 1920,427 " />
  <polyline class="st0" points="0,427 50,427 0,414 " />
  <polyline class="st0" points="0,226 159,184 0,174 " />
  <polyline class="st0" points="1920,173 1780,163 1725,275 1920,225 " />
  <polyline class="st0" points="1920,366 1860,296 1772,377 1920,413 " />
  <polyline class="st0" points="0,414 50,427 0,367 " />
  <polyline class="st0" points="0,367 50,427 159,184 0,266 " />
  <polyline class="st0" points="1920,265 1860,296 1920,366 " />
  <polyline class="st0" points="1920,94 1780,163 1920,173 " />
  <polyline class="st0" points="0,174 159,184 82,54 0,95 " />
</svg>