<?xml version="1.0" encoding="UTF-8"?>
<svg id="a" xmlns="http://www.w3.org/2000/svg" viewBox="0 0 103.87 14.76">
  <g fill="#ffffff">
    <path
      d="m14.02,5.3v-1.39s.37-3.91-6.93-3.91C.32,0,0,3.91,0,3.91v6.97s.57,3.87,7.09,3.87c5.54,0,6.93-2.77,6.93-2.77v-4.98h-6.93v1.88h3.26v3.1s-.16.9-3.26.9c-3.63,0-3.43-2-3.43-2V3.91s-.2-2.12,3.43-2.12,3.26,2.12,3.26,2.12v1.39h3.67" />
    <path
      d="m26.82,4.9v9.42h2.95v-7.29s0-1.2,2.41-1.2,2.43,1.18,2.43,1.18v7.32h2.95v-7.62s-.12-2.49-5.38-2.49c-1.8,0-3,.29-3.79.68h.02s-1.59,0-1.59,0" />
    <path
      d="m50.31,4.9v9.42h2.96v-7.29s0-1.2,2.4-1.2,2.42,1.18,2.42,1.18v7.32h2.96v-7.62s-.12-2.49-5.38-2.49c-1.8,0-3,.29-3.79.68h.02s-1.59,0-1.59,0" />
    <path
      d="m80.18,10.25h-7.79s-.02,1.74,0,1.74c.01,0,0,1.19,2.41,1.19s2.43-1.2,2.43-1.2v-.78s2.95,0,2.95,0v.77s.22,2.77-5.38,2.77-5.36-2.77-5.36-2.77v-4.83s-.22-2.77,5.36-2.77,5.38,2.79,5.38,2.79c0,0,0,3.08,0,3.08Zm-7.79-3.04v1.08h4.84s0-1.09,0-1.08c0,0,0-1.22-2.43-1.22-2.41,0-2.41,1.22-2.41,1.22" />
    <path
      d="m91.97,8.47v-1.3s.25-2.79-5.38-2.79-5.36,2.77-5.36,2.77v4.83s-.25,2.77,5.36,2.77,5.38-2.77,5.38-2.77v-1.2h-2.96v1.21s0,1.2-2.43,1.2-2.4-1.2-2.41-1.2c-.01,0,0-4.77,0-4.77,0,0,.04-1.22,2.53-1.22,2.35,0,2.3,1.2,2.3,1.2v1.27h2.96" />
    <path
      d="m61.72,4.74h.94v-2.26h2.96v2.26h3.24v1.59h-3.24v5.79s.16,1.47,3.1,1.06c0,0,.02,1.44,0,1.44-2.55.33-6.05.06-6.05-2.5v-5.79h-.94v-1.59" />
    <path
      d="m93.13.13s2.96.03,2.96,0c0-.02-.02,4.32,0,4.32.65-.14,1.43-.22,2.4-.22,5.26,0,5.38,2.49,5.38,2.49v7.62h-2.96v-7.32s0-1.18-2.43-1.18-2.4,1.2-2.4,1.2v7.29h-2.96V.13" />
    <path
      d="m49.31,10.25h-7.79s-.02,1.74,0,1.74c.01,0,0,1.19,2.41,1.19s2.43-1.2,2.43-1.2v-.78s2.95,0,2.95,0v.77s.22,2.77-5.38,2.77-5.36-2.77-5.36-2.77v-4.83s-.22-2.77,5.36-2.77,5.38,2.79,5.38,2.79c0,0,0,3.08,0,3.08Zm-7.79-3.04v1.08h4.84s0-1.09,0-1.08c0,0,0-1.22-2.43-1.22-2.41,0-2.41,1.22-2.41,1.22" />
    <path
      d="m25.83,10.25h-7.79s-.02,1.74,0,1.74c.01,0,0,1.19,2.41,1.19s2.43-1.2,2.43-1.2v-.78s2.95,0,2.95,0v.77s.23,2.77-5.38,2.77-5.36-2.77-5.36-2.77v-4.83s-.23-2.77,5.36-2.77,5.38,2.79,5.38,2.79v3.08Zm-7.79-3.04v1.08h4.83s.01-1.09.01-1.08c0,0,0-1.22-2.44-1.22-2.4,0-2.41,1.22-2.41,1.22" />
  </g>
</svg>