<?xml version="1.0" encoding="UTF-8"?>
<svg xmlns="http://www.w3.org/2000/svg" viewBox="0 0 2371.73 834.99">
  <path fill="#ffffff"
    d="m1345.11,690.18s5.5-6.12,5.5-18.37c0-15.29-11.14-31.73-31.25-31.73-18.76,0-32.65,15.04-32.65,34.86,0,26.62,26.52,41.28,54.39,41.28,48.46,0,79.81-31.01,107.58-96.73l86.89-205.66h27.39v-34h-100.35v34h35.3l-62.2,157.39-62.2-157.39h41.95v-34h-136.71v34h33.42l94.61,214.44c-18.42,46.53-31.97,58.01-61.67,61.92h0Zm824.43-310.35h-92.29v34h38.19v175.67h-38.19v34.04h128.03v-34.04h-33.08v-99.96c0-46.44,31.54-75.71,60.66-75.71,26.71,0,43.93,19.58,43.93,54.63v121.03h-33.51v34.04h128.46v-34.04h-38.62v-136.17c0-49.57-25.32-79.18-67.7-79.18-37.32,0-72.33,14.47-95.86,57.19v-51.5Zm-296.12,121.85c0-72.48,19.53-100.93,63.41-100.93s63.41,28.45,63.41,100.93-19.53,100.93-63.41,100.93-63.41-28.59-63.41-100.93Zm189.56,0c0-75.8-51.26-127.54-126.15-127.54s-126.19,51.74-126.19,127.54,51.31,127.54,126.19,127.54,126.15-51.89,126.15-127.54Zm-395.22-127.54c-49.62,0-85.54,32.65-85.54,75.22,0,38.43,22.81,58.93,84.14,75.47,46.63,12.15,67.46,21.75,67.46,46.39,0,21.41-14.95,33.71-41.18,33.71-32.6,0-64.86-24.69-82.75-62.88h-31.49v87.18h29.85l7.81-37.52c16.06,20.73,40.65,37.52,78.26,37.52,57.62,0,88.77-39.35,88.77-76.96,0-44.22-31.44-61.34-85.83-75.8-43.25-11.38-65.29-21.41-65.29-44.94,0-19.1,15.48-33.66,38.48-33.66,35.54,0,55.31,28.35,71.27,57.53h31.05v-81.25h-30.38l-7.47,34.24c-12.54-19.67-33.61-34.24-67.17-34.24Zm-707.54-111.1v92.92h26.71c9.5-52.9,20.3-58.78,74.93-58.88h42v292.41h-71.56v34.04h201.03v-34.04h-71.51v-292.41h41.95c54.68.1,65.53,5.98,74.98,58.88h26.76v-92.92h-345.31Zm-600.54,170.6h-45.76c-11.3-.03-20.45-9.19-20.45-20.49h-28.55c0,9.5,2.7,18.28,7.43,25.8h-4.68c-14.24-.03-25.77-11.56-25.8-25.8h-28.55c0,14.13,5.93,26.86,15.53,35.73-9.94,9.24-15.57,22.21-15.53,35.78h28.55c0-14.23,11.57-25.8,25.8-25.8h4.68c-4.89,7.71-7.47,16.67-7.43,25.8h28.55c0-11.33,9.21-20.49,20.45-20.49h45.76v-30.52Zm176.73,216.17v-40.26h-88.05v-346.51h52.9c63.94,0,77.54,7.04,88.77,69.68h31.73v-110.09H213.33v110.09h31.68c11.24-62.64,24.88-69.68,88.77-69.68h52.9v346.51h-88.05v40.26h237.78Zm47.79-240.62h-21.89v24.45h-86.99v30.52h86.99v24.45h21.89c5.61-15.92,20.68-26.56,37.56-26.52v-26.38c-16.88.04-31.95-10.6-37.56-26.52ZM417.49,45.13c-205.61,0-372.31,166.75-372.31,372.41-2.34,205.64,162.46,374.23,368.1,376.57,205.64,2.34,374.23-162.46,376.57-368.1.03-2.83.03-5.65,0-8.48.03-205.65-166.66-372.38-372.31-372.41-.02,0-.03,0-.05,0h0Zm417.49,372.41c-.03,230.58-186.97,417.47-417.54,417.45C186.87,834.96-.03,648.02,0,417.45.03,186.87,186.97-.03,417.54,0c230.58.03,417.47,186.97,417.45,417.54Zm-56.95,372.41l-9.69,29.99-10.22-29.99h-11.86v40.41h7.38v-32.4l11.33,32.4h6.17l11.33-32.74v32.74h7.38v-40.41h-11.81Zm-70.64,0h32.93v6.51h-12.49v33.9h-7.96v-33.9h-12.49" />
</svg>