<?xml version="1.0" standalone="no"?>
<!DOCTYPE svg PUBLIC "-//W3C//DTD SVG 20010904//EN"
 "http://www.w3.org/TR/2001/REC-SVG-20010904/DTD/svg10.dtd">
<svg version="1.0" xmlns="http://www.w3.org/2000/svg"
 width="1200.000000pt" height="1200.000000pt" viewBox="0 0 1200.000000 1200.000000"
 preserveAspectRatio="xMidYMid meet">
<metadata>
Created by potrace 1.11, written by Peter Selinger 2001-2013
</metadata>
<g transform="translate(0.000000,1200.000000) scale(0.100000,-0.100000)"
fill="#000000" stroke="none">
<path d="M5699 11996 c-2 -2 -56 -7 -119 -10 -63 -4 -131 -9 -150 -11 -19 -2
-60 -7 -90 -10 -116 -13 -148 -17 -240 -31 -141 -22 -148 -23 -235 -40 -44 -9
-84 -17 -90 -19 -5 -1 -28 -5 -50 -9 -80 -16 -283 -68 -431 -111 -1086 -319
-2091 -967 -2829 -1825 -49 -58 -92 -107 -95 -110 -8 -7 -137 -173 -192 -245
-68 -90 -266 -387 -330 -495 -222 -373 -428 -822 -548 -1196 -95 -295 -186
-662 -215 -864 -2 -14 -6 -38 -9 -55 -10 -61 -28 -191 -31 -221 -3 -29 -6 -55
-20 -174 -26 -229 -27 -985 -1 -1126 2 -10 7 -54 11 -97 3 -43 8 -88 10 -100
2 -12 6 -44 10 -72 3 -27 8 -57 10 -65 2 -8 6 -35 9 -60 3 -25 8 -55 10 -66 2
-12 7 -38 10 -58 22 -139 93 -433 151 -633 190 -641 483 -1239 888 -1806 27
-37 24 -34 132 -173 848 -1100 2096 -1885 3465 -2180 91 -19 179 -37 195 -40
17 -2 41 -6 55 -9 14 -3 41 -8 60 -10 19 -3 64 -10 100 -15 99 -15 179 -24
290 -34 30 -3 91 -9 135 -13 170 -16 861 -8 1010 12 17 2 53 6 80 10 159 18
247 29 305 40 14 3 41 7 60 10 380 58 963 229 1325 390 17 7 64 27 105 45 504
217 1106 607 1545 1000 126 113 364 350 456 455 24 27 63 70 85 95 73 79 260
317 356 453 240 337 455 719 620 1102 134 308 287 772 334 1010 2 11 6 29 8
40 26 118 38 176 42 205 3 19 7 43 10 52 3 10 7 28 9 40 2 13 7 46 11 73 4 28
9 55 9 60 2 12 15 109 20 145 2 14 7 57 11 95 3 39 8 81 10 95 19 152 27 808
11 990 -12 143 -26 276 -32 320 -2 14 -9 61 -15 105 -14 100 -18 123 -36 228
-5 30 -31 159 -41 202 -2 11 -6 31 -9 45 -27 135 -129 489 -198 680 -102 286
-261 642 -386 865 -320 569 -650 1001 -1095 1435 -318 311 -728 625 -1100 844
-71 42 -137 81 -145 86 -54 34 -485 245 -580 284 -63 26 -124 51 -135 56 -151
68 -693 236 -885 274 -14 3 -36 7 -50 10 -14 3 -36 8 -50 11 -31 7 -59 12
-130 25 -30 6 -66 12 -80 15 -31 7 -56 10 -190 29 -97 14 -132 18 -280 32 -30
3 -73 8 -95 10 -53 6 -751 15 -756 10z m696 -369 c11 -3 63 -8 115 -12 52 -4
102 -9 110 -10 8 -2 44 -6 80 -10 36 -4 74 -9 84 -11 11 -2 42 -6 69 -9 28 -3
53 -8 56 -9 3 -2 27 -7 54 -10 26 -4 102 -18 170 -32 1385 -286 2603 -1077
3445 -2237 51 -70 92 -131 92 -136 0 -5 3 -11 8 -13 9 -4 106 -155 179 -278
274 -464 477 -954 612 -1485 26 -102 78 -346 86 -405 3 -25 8 -52 10 -60 3 -8
7 -31 9 -50 15 -116 18 -137 21 -160 2 -14 7 -52 10 -85 3 -33 8 -73 10 -90
19 -153 27 -707 12 -895 -13 -166 -17 -204 -23 -250 -3 -25 -7 -63 -10 -85
-22 -217 -110 -647 -174 -850 -10 -33 -28 -94 -40 -135 -33 -109 -125 -364
-170 -465 -5 -11 -16 -37 -24 -57 -35 -84 -52 -120 -124 -268 -307 -628 -760
-1228 -1283 -1699 -129 -117 -163 -145 -389 -325 -33 -26 -229 -163 -285 -200
-134 -87 -165 -106 -275 -171 -108 -64 -435 -233 -511 -264 -19 -8 -56 -25
-84 -37 -66 -30 -236 -98 -355 -140 -87 -32 -374 -122 -410 -129 -8 -2 -51
-12 -95 -24 -85 -21 -295 -67 -348 -76 -18 -3 -43 -7 -57 -10 -14 -3 -41 -7
-60 -10 -19 -3 -46 -7 -60 -10 -36 -6 -147 -20 -245 -31 -33 -3 -73 -8 -90
-10 -212 -25 -846 -25 -1030 1 -16 2 -60 7 -97 10 -37 3 -77 8 -90 10 -13 2
-45 6 -73 10 -43 5 -190 28 -250 40 -106 20 -242 49 -309 66 -44 12 -90 23
-101 25 -11 2 -81 22 -155 44 -536 160 -1022 386 -1495 693 -86 56 -247 167
-255 177 -3 3 -30 24 -60 45 -77 56 -330 268 -419 351 -212 198 -402 402 -571
610 -95 119 -92 114 -120 154 -13 19 -27 37 -30 40 -14 12 -130 181 -130 189
0 5 -3 11 -7 13 -13 5 -108 155 -203 318 -102 174 -214 396 -303 600 -83 190
-183 473 -246 698 -35 126 -88 342 -97 397 -1 11 -10 54 -18 95 -8 41 -17 95
-21 120 -3 25 -8 52 -10 60 -2 8 -7 41 -10 73 -4 32 -8 67 -10 77 -2 10 -7 50
-10 87 -4 37 -8 79 -10 93 -25 170 -25 905 -1 1037 2 10 7 50 10 88 4 39 9 81
11 95 2 14 6 48 10 75 33 268 125 669 223 971 472 1445 1523 2652 2892 3321
80 39 162 78 183 87 20 9 52 22 70 30 17 8 57 24 87 36 30 11 69 27 85 34 63
29 312 114 465 159 166 50 464 119 614 143 21 3 48 7 59 10 11 2 57 8 101 14
45 6 92 13 106 15 59 9 183 21 330 31 52 4 96 8 98 9 5 4 647 -3 667 -8z"/>
<path d="M5709 11396 c-2 -2 -56 -7 -119 -10 -63 -4 -124 -9 -135 -11 -11 -2
-47 -7 -80 -10 -161 -16 -438 -65 -625 -110 -8 -2 -28 -6 -45 -10 -80 -19
-290 -80 -394 -114 -795 -264 -1493 -692 -2096 -1283 -614 -603 -1070 -1333
-1340 -2144 -37 -110 -96 -309 -110 -373 -2 -9 -13 -52 -24 -96 -26 -107 -63
-295 -77 -394 -4 -25 -8 -54 -10 -65 -2 -10 -6 -44 -10 -75 -3 -31 -8 -63 -9
-71 -2 -8 -6 -55 -10 -105 -4 -49 -10 -99 -12 -110 -9 -36 -11 -668 -3 -775
17 -232 50 -487 85 -660 3 -14 8 -41 11 -60 4 -19 28 -123 55 -230 327 -1311
1140 -2456 2279 -3205 309 -203 652 -382 990 -516 166 -65 502 -173 635 -204
11 -2 70 -16 130 -30 116 -27 353 -72 420 -81 22 -2 56 -6 75 -9 252 -33 369
-40 700 -40 259 0 487 8 549 20 9 1 47 6 84 10 37 3 76 8 86 10 10 2 42 6 72
10 30 3 61 8 69 10 8 2 34 7 57 10 36 5 299 58 343 70 8 2 35 8 60 14 25 6 86
22 135 36 50 14 97 27 105 30 8 2 69 21 135 43 466 155 901 366 1300 634 172
115 301 208 351 253 6 6 29 24 50 40 165 128 499 446 660 629 564 639 978
1418 1183 2225 39 152 83 356 95 436 4 22 11 67 16 100 16 110 19 130 25 195
4 36 8 76 11 90 26 164 25 932 -1 1065 -2 11 -7 51 -10 88 -4 37 -8 76 -10 86
-3 16 -13 88 -20 148 -2 12 -6 34 -9 50 -3 15 -8 42 -11 58 -3 17 -7 41 -10
55 -2 14 -7 39 -10 55 -4 17 -15 68 -27 115 -11 47 -21 93 -23 102 -11 53 -69
259 -103 363 -179 546 -403 992 -736 1465 -44 63 -86 122 -93 130 -6 8 -42 53
-79 100 -233 295 -549 614 -849 856 -373 301 -806 564 -1225 744 -41 18 -93
40 -115 50 -147 65 -564 203 -715 236 -19 4 -39 9 -45 10 -110 27 -255 58
-350 75 -131 23 -139 24 -235 34 -36 4 -67 9 -70 10 -3 2 -46 6 -95 10 -50 4
-103 9 -120 12 -36 6 -700 14 -706 9z m392 -1601 c47 -9 83 -40 102 -92 13
-33 15 -71 12 -185 -2 -79 -6 -157 -9 -173 -2 -17 -7 -60 -11 -96 -3 -36 -7
-76 -10 -90 -3 -22 -19 -132 -31 -219 -7 -51 -54 -308 -64 -355 -5 -22 -12
-56 -15 -75 -3 -19 -22 -109 -41 -200 -20 -91 -38 -178 -41 -195 -2 -16 -11
-55 -18 -85 -58 -230 -19 -363 117 -401 72 -20 187 -5 189 24 2 32 12 79 30
147 123 456 497 837 826 843 l66 1 46 -51 c25 -28 55 -55 66 -61 11 -5 56 -10
100 -10 101 -1 128 -11 149 -56 17 -37 23 -130 12 -198 -3 -18 -8 -49 -11 -68
-2 -19 -6 -44 -9 -55 -5 -26 -37 -193 -42 -225 -37 -212 -45 -318 -29 -408 18
-105 119 -91 273 37 80 66 160 162 166 197 2 16 7 52 11 79 13 102 17 122 35
220 10 55 21 115 25 132 12 73 66 285 79 318 8 19 13 35 11 35 -3 0 6 19 19
43 31 57 74 78 154 76 78 -3 104 -20 126 -88 20 -63 21 -209 1 -275 -17 -54
-20 -126 -6 -126 10 0 21 24 21 47 0 8 15 38 33 66 19 29 53 86 77 127 53 91
152 193 214 221 118 52 235 17 267 -78 10 -31 7 -95 -7 -168 -30 -152 -33
-178 -34 -262 -3 -200 111 -249 335 -144 67 31 217 127 223 142 2 5 8 9 13 9
6 0 8 -25 5 -62 -13 -149 -16 -196 -17 -251 l-2 -57 -70 -46 c-81 -54 -211
-117 -282 -139 -75 -22 -227 -15 -286 13 -81 40 -146 115 -182 212 -34 92 -82
342 -70 363 2 4 -4 7 -14 7 -20 0 -21 -1 -143 -355 -34 -99 -65 -189 -70 -200
-5 -11 -36 -101 -71 -200 -69 -200 -96 -259 -131 -292 -34 -32 -66 -41 -117
-31 -85 16 -133 68 -157 171 -1 4 -2 9 -3 12 0 3 -29 -17 -63 -44 -137 -107
-248 -154 -357 -150 -114 3 -195 65 -263 198 l-35 70 -34 -35 c-81 -84 -219
-170 -337 -208 -146 -48 -315 -10 -415 93 -32 32 -100 134 -110 164 -2 8 -14
5 -33 -8 -103 -67 -251 -80 -345 -29 -73 40 -135 143 -142 235 -1 15 -5 25 -8
23 -3 -2 -26 -38 -51 -81 -233 -401 -560 -613 -873 -568 -128 19 -269 135
-344 286 -98 194 -136 415 -136 769 1 96 -1 162 -2 145 -11 -101 -92 -414
-140 -545 -153 -411 -368 -613 -698 -655 -118 -15 -193 -6 -270 31 -136 67
-252 242 -320 484 -55 196 -70 331 -70 615 0 217 7 318 36 510 18 116 19 127
35 205 9 41 17 82 19 90 42 206 167 581 237 712 37 69 120 149 171 165 48 14
190 14 221 0 14 -7 32 -24 41 -39 30 -51 26 -116 -20 -314 -3 -12 -34 -124
-70 -250 -68 -236 -134 -476 -140 -503 -2 -9 -17 -74 -33 -146 -16 -71 -32
-146 -36 -165 -3 -19 -8 -46 -11 -60 -3 -13 -7 -42 -10 -65 -3 -22 -8 -51 -10
-65 -16 -85 -21 -306 -10 -395 27 -208 86 -334 179 -382 42 -22 122 -19 178 7
193 86 402 474 582 1080 37 127 97 355 117 445 7 33 14 65 15 70 7 26 46 203
50 225 49 263 87 360 158 415 43 33 124 52 203 49 126 -5 185 -47 187 -131 0
-45 -12 -161 -19 -173 -1 -3 -5 -27 -9 -55 -3 -27 -8 -59 -10 -70 -2 -11 -7
-42 -10 -70 -6 -45 -11 -80 -22 -139 -2 -10 -6 -44 -10 -75 -3 -31 -8 -58 -9
-61 -2 -3 -6 -34 -10 -69 -4 -34 -8 -72 -11 -84 -2 -12 -6 -47 -9 -77 -3 -30
-7 -66 -10 -80 -2 -14 -6 -50 -9 -80 -7 -82 -18 -181 -22 -215 -7 -64 -17
-285 -17 -395 0 -315 36 -510 111 -594 48 -52 139 -58 224 -15 77 39 168 151
242 295 66 131 158 406 202 607 9 39 22 100 30 135 8 34 16 77 19 95 3 18 12
66 20 107 8 41 17 95 20 120 3 25 9 68 15 95 5 28 12 73 15 100 3 28 8 61 10
75 10 64 14 100 20 165 3 39 8 81 11 95 5 26 10 87 19 200 16 223 23 276 39
314 20 47 64 95 105 112 37 16 145 34 171 28 8 -2 31 -6 51 -9z m834 -3080
c121 -22 254 -76 365 -148 36 -23 67 -44 70 -47 3 -3 22 -18 42 -33 53 -39
195 -180 267 -266 55 -64 62 -78 57 -105 -3 -17 -8 -58 -12 -91 -5 -33 -9 -63
-10 -67 -1 -5 -2 -14 -3 -20 0 -7 -27 14 -59 47 -32 33 -82 80 -111 105 -29
25 -62 52 -72 61 -32 27 -179 137 -263 195 -45 32 -82 52 -87 47 -5 -5 2 -35
16 -71 24 -58 50 -157 62 -227 6 -41 6 -193 -1 -232 -3 -18 -8 -48 -11 -65 -3
-18 -15 -62 -27 -98 -76 -234 -206 -399 -387 -489 -217 -109 -475 -52 -619
135 -121 157 -179 438 -141 684 66 432 373 705 784 695 55 -1 118 -5 140 -10z
m-2135 -499 c66 -6 73 -7 168 -27 121 -25 285 -93 384 -160 278 -188 419 -503
369 -819 -42 -260 -191 -483 -429 -638 -160 -104 -362 -179 -567 -210 -6 -1
-10 -14 -11 -29 0 -16 -4 -134 -8 -263 -9 -285 -13 -329 -46 -481 -21 -95 -22
-97 -57 -189 -98 -253 -236 -424 -415 -514 -298 -149 -563 -54 -741 266 -64
117 -157 388 -181 529 -3 19 -10 61 -16 94 -6 33 -13 83 -16 110 -3 28 -7 61
-10 75 -22 136 -22 637 0 701 3 8 7 34 10 59 18 172 102 454 192 645 229 485
639 811 1069 851 39 4 71 7 72 8 4 4 168 -2 233 -8z m1454 -1415 c11 -1 44
-27 73 -58 l53 -58 87 -2 c49 -1 99 -5 112 -8 33 -8 59 -40 67 -82 10 -52 -2
-194 -26 -318 -12 -60 -24 -119 -25 -130 -2 -11 -8 -47 -14 -80 -6 -33 -13
-73 -16 -90 -18 -102 -24 -237 -12 -298 22 -107 115 -99 262 22 49 40 49 41
51 106 5 117 35 342 49 365 2 4 7 21 10 38 12 73 74 236 133 354 49 99 88 138
170 168 62 23 110 25 155 6 83 -35 89 -84 29 -266 -22 -69 -43 -137 -45 -150
-3 -14 -10 -43 -16 -66 -14 -51 -33 -146 -46 -229 -4 -22 -8 -51 -11 -65 -12
-75 -11 -259 1 -305 31 -117 138 -140 232 -49 54 52 132 230 158 359 9 44 30
136 46 205 91 383 85 363 125 421 86 125 314 178 364 84 14 -27 12 -48 -24
-220 -14 -66 -27 -136 -30 -155 -3 -19 -8 -46 -11 -60 -7 -35 -91 -537 -100
-600 -2 -14 -11 -71 -20 -128 -9 -56 -15 -107 -13 -112 7 -21 148 88 258 199
64 64 162 179 220 255 57 76 105 135 107 130 1 -5 19 -85 38 -178 l37 -169
-38 -54 c-90 -131 -402 -386 -681 -558 -1 0 -4 -17 -7 -35 -7 -50 -25 -140
-30 -148 -2 -4 -7 -23 -10 -42 -33 -206 -164 -548 -273 -715 -155 -236 -364
-365 -598 -368 -151 -3 -238 23 -307 90 -57 56 -81 122 -81 223 1 106 35 203
125 347 79 126 132 197 243 322 22 25 45 51 50 57 31 35 165 170 242 244 93
89 130 122 228 206 55 47 62 58 78 119 10 37 17 69 15 70 -2 2 -28 -15 -59
-38 -157 -118 -303 -150 -442 -97 -60 23 -149 86 -167 120 -15 28 -23 26 -81
-20 -28 -22 -88 -58 -133 -81 -103 -51 -206 -63 -283 -34 -62 24 -130 95 -175
182 l-36 72 -28 -31 c-91 -95 -268 -199 -383 -224 -227 -48 -434 85 -494 319
-24 92 -15 259 20 392 85 314 298 611 548 761 88 53 221 94 285 88 14 -1 34
-2 44 -3z"/>
<path d="M7129 8326 c-222 -57 -455 -457 -437 -751 9 -132 54 -191 141 -182
41 3 56 11 92 47 74 72 146 232 171 380 3 14 14 72 19 95 2 6 10 46 19 90 9
44 19 91 21 105 49 237 48 227 32 227 -8 0 -34 -5 -58 -11z"/>
<path d="M4371 8174 c0 -11 3 -14 6 -6 3 7 2 16 -1 19 -3 4 -6 -2 -5 -13z"/>
<path d="M6633 6400 c-118 -54 -228 -255 -261 -475 -11 -76 -5 -219 11 -276
22 -74 65 -132 119 -158 51 -24 117 -27 156 -7 68 36 142 151 185 292 37 118
42 155 41 304 -1 116 -4 144 -24 195 -25 64 -85 134 -116 136 -11 1 -31 2 -46
3 -15 2 -45 -5 -65 -14z"/>
<path d="M4410 5820 c-245 -64 -439 -245 -579 -541 -62 -131 -111 -276 -137
-404 -2 -11 -6 -31 -9 -45 -3 -14 -8 -41 -11 -60 -3 -19 -7 -46 -9 -60 -27
-159 -26 -717 0 -935 5 -41 11 -82 21 -145 26 -176 102 -349 174 -400 39 -28
113 -37 163 -21 50 17 122 93 158 168 32 68 74 201 83 268 4 23 8 50 10 62 4
20 12 76 21 148 12 94 19 217 19 344 l1 144 -30 10 c-53 17 -172 75 -227 110
-115 74 -131 101 -134 221 -5 171 23 192 167 122 95 -46 172 -76 193 -76 8 0
12 19 12 53 0 28 3 86 7 127 21 229 71 371 161 462 99 99 261 115 343 33 45
-45 44 -71 -16 -318 -27 -111 -53 -235 -56 -274 l-7 -71 43 10 c24 5 55 12 69
14 52 10 161 53 224 88 189 106 290 272 282 464 -11 253 -187 434 -484 498
-120 26 -357 28 -452 4z"/>
<path d="M6190 4483 c-177 -62 -348 -294 -410 -557 -63 -265 26 -443 179 -355
83 47 179 238 207 409 2 14 9 45 14 70 5 25 12 61 15 80 4 19 11 55 16 80 45
198 58 275 46 282 -15 9 -12 10 -67 -9z"/>
<path d="M7515 2795 c-11 -8 -31 -23 -45 -32 -14 -10 -77 -70 -140 -133 -111
-110 -223 -249 -286 -355 -37 -62 -74 -162 -72 -193 3 -34 34 -56 77 -55 85 2
189 76 269 192 36 52 122 220 126 246 1 6 4 15 7 20 20 33 101 325 91 325 -4
0 -16 -7 -27 -15z"/>
</g>
</svg>
